<?xml version="1.0" encoding="utf-8"?>
<!DOCTYPE svg PUBLIC "-//W3C//DTD SVG 1.1//EN" "http://www.w3.org/Graphics/SVG/1.1/DTD/svg11.dtd">
<svg version="1.1" xmlns="http://www.w3.org/2000/svg" xmlns:xlink="http://www.w3.org/1999/xlink" x="0px" y="0px" viewBox="0 0 104 32"
	 enable-background="new 0 0 104 32" xml:space="preserve">
<path d="M0,20.3v6.4h5.2v-7C3.6,20.1,1.8,20.3,0,20.3z M21,10v16.8h5.2V0.1H26
	C25,3.8,23.3,7.1,21,10z M14,16.3v10.5h5.2V12C17.7,13.6,15.9,15.1,14,16.3z M7,19.3v7.4h5.2v-9.5C10.6,18.1,8.8,18.8,7,19.3z
	 M44.3,25.6c-0.7,0.7-1.8,1.2-3.1,1.2c-1.4,0-2.4-0.4-3.4-1.5v1.4h-2.5V8.4h2.6v6.5c0.9-1.1,2-1.5,3.4-1.5c1.3,0,2.4,0.4,3.1,1.2
	c1.3,1.3,1.4,3.5,1.4,5.5C45.7,22,45.6,24.3,44.3,25.6 M40.5,15.8c-2.3,0-2.7,2-2.7,4.3s0.4,4.3,2.7,4.3c2.3,0,2.7-2,2.7-4.3
	S42.8,15.8,40.5,15.8 M59.3,8.3H62V11h-2.7V8.3z M59.3,13.6h2.6v13h-2.6V13.6z M73.2,26.6v-1.4c-1,1.2-2,1.5-3.4,1.5
	c-1.3,0-2.4-0.4-3.1-1.2c-1.3-1.3-1.4-3.5-1.4-5.5c0-2,0.2-4.2,1.4-5.5c0.7-0.7,1.8-1.2,3.1-1.2c1.4,0,2.4,0.3,3.4,1.5V8.4h2.6v18.2
	H73.2L73.2,26.6z M70.4,15.8c-2.3,0-2.7,2-2.7,4.3s0.4,4.3,2.7,4.3c2.3,0,2.7-2,2.7-4.3S72.8,15.8,70.4,15.8L70.4,15.8z M83.6,31.9
	c-2,0-3.2-0.5-4.5-1.7l1.6-1.7c0.8,0.8,1.5,1.2,2.8,1.2c2.2,0,3-1.6,3-3.3v-1.7c-0.9,1.1-2,1.5-3.3,1.5c-1.3,0-2.4-0.4-3.1-1.2
	c-1.2-1.3-1.4-3.1-1.4-5.3c0-2.2,0.2-4,1.4-5.3c0.7-0.7,1.8-1.1,3.1-1.1c1.4,0,2.4,0.4,3.4,1.5v-1.4h2.5v12.9
	C89.1,29.6,87.1,31.9,83.6,31.9 M83.9,15.8c-2.3,0-2.6,2-2.6,4.1s0.3,4.1,2.6,4.1c2.3,0,2.6-2,2.6-4.1S86.3,15.8,83.9,15.8
	 M94.7,20.8c0,2.2,1.2,3.6,3.3,3.6c1.4,0,2.2-0.4,3.1-1.3l1.6,1.6c-1.3,1.3-2.6,2-4.8,2c-3.2,0-5.8-1.7-5.8-6.6
	c0-4.2,2.2-6.6,5.4-6.6c3.4,0,5.4,2.6,5.4,6.2v1.2H94.7L94.7,20.8z M100.1,17.2c-0.4-1-1.3-1.6-2.5-1.6c-1.2,0-2.2,0.7-2.6,1.6
	c-0.3,0.6-0.3,1-0.3,1.8h5.8C100.4,18.2,100.3,17.8,100.1,17.2L100.1,17.2z M57.2,14.4c-0.8-0.7-1.6-0.9-2.7-0.9
	c-1.4,0-2.8,0.6-3.4,1.6v-1.4h-2.5v13h2.6v-7.9c0-1.8,1.2-2.9,2.6-2.9c0.9,0,1.3,0.3,1.9,0.9L57.2,14.4
	C57.3,14.4,57.2,14.4,57.2,14.4"/>
</svg>
