<?xml version="1.0" encoding="UTF-8" standalone="no"?>
<svg width="57px" height="57px" viewBox="0 0 57 57" version="1.1" xmlns="http://www.w3.org/2000/svg" xmlns:xlink="http://www.w3.org/1999/xlink" xmlns:sketch="http://www.bohemiancoding.com/sketch/ns">
    <!-- Generator: Sketch 3.4.1 (15681) - http://www.bohemiancoding.com/sketch -->
    <title>Artboard 18</title>
    <desc>Created with Sketch.</desc>
    <defs></defs>
    <g id="Page-1" stroke="none" stroke-width="1" fill="none" fill-rule="evenodd" sketch:type="MSPage">
        <g id="Artboard-18" sketch:type="MSArtboardGroup" fill="#000000">
            <path d="M39.6532313,51.9496962 L39.2836914,52.076939 L34.1609938,37.199545 L23.9003842,37.199545 L20.1392388,48.1227045 L13.5684846,45.8602124 L16.5505915,37.199545 L14.8617782,37.199545 C13.2812617,37.199545 12,35.9151905 12,34.3380415 C12,32.7576768 13.2831457,31.4765381 14.8617782,31.4765381 L18.5211808,31.4765381 L21.9932662,21.39287 C21.3566236,20.2660494 20.9932966,18.964358 20.9932966,17.577807 C20.9932966,13.995627 23.4183469,10.9798479 26.7163035,10.0826136 L26.7163035,8.58451038 L25.0811587,8.58451038 L25.0811587,3.67796303 C25.0811587,1.64668014 26.7324716,0 28.7602346,0 C30.7921321,0 32.4393104,1.65517995 32.4393104,3.67796303 L32.4393104,8.58451038 L30.8041656,8.58451038 L30.8041656,10.0826136 C34.1021222,10.9798479 36.5271725,13.995627 36.5271725,17.577807 C36.5271725,18.7103573 36.2847679,19.786291 35.8490112,20.7565554 L45.5864657,49.0361769 L45.6807097,49 L45.6357301,49.179251 L45.8544456,49.8144469 L45.4405811,49.9569519 L43.9939463,55.7220303 L39.6532313,51.9496962 Z M32.1904045,31.4765381 L30.0427692,25.2393522 C29.6255591,25.3086755 29.1971091,25.3447449 28.7602346,25.3447449 C28.5020643,25.3447449 28.246836,25.3321488 27.9951308,25.3075375 L25.8709735,31.4765381 L32.1904045,31.4765381 Z M28.7602346,22.0744553 C31.2436648,22.0744553 33.2568829,20.0612373 33.2568829,17.577807 C33.2568829,15.0943767 31.2436648,13.0811587 28.7602346,13.0811587 C26.2768043,13.0811587 24.2635863,15.0943767 24.2635863,17.577807 C24.2635863,20.0612373 26.2768043,22.0744553 28.7602346,22.0744553 Z M12.9786918,52.8217204 L15.6676255,53.8004122 L17.485196,48.8066782 L14.7962624,47.8279864 L12.9786918,52.8217204 Z M13.3444668,56 L15.6676255,53.8004122 L12.9786918,52.8217204 L13.3444668,56 Z" id="Oval-15" sketch:type="MSShapeGroup"></path>
        </g>
    </g>
</svg>