<?xml version="1.0" encoding="utf-8"?>
<!-- Generator: Adobe Illustrator 18.0.0, SVG Export Plug-In . SVG Version: 6.00 Build 0)  -->
<!DOCTYPE svg PUBLIC "-//W3C//DTD SVG 1.1//EN" "http://www.w3.org/Graphics/SVG/1.1/DTD/svg11.dtd">
<svg version="1.1" id="Layer_1" xmlns="http://www.w3.org/2000/svg" xmlns:xlink="http://www.w3.org/1999/xlink" x="0px" y="0px"
	 viewBox="0 0 60 60" enable-background="new 0 0 60 60" xml:space="preserve">
<path fill="#121111" d="M28.5,4c0.6,2.3,0,3.3-2.2,3.7c-1.4,0.3-2.8,0.7-4.4,1.1c2,1.3,4.2,1.4,6,2.3C38.7,16.5,44.9,25.1,47.1,37
	c1.1,6.2-0.3,12.2-0.1,18.4c0,1-0.5,1.5-1.5,1.5c-1.1,0-1.4-1-1.4-1.7c0.1-1.9,0.8-12.9,0.5-15.5c-0.1-5.1-1.9-9.9-4.7-14
	c-4-6-9.2-10.7-16.5-12.7c-0.7-0.2-1.3-0.4-1.8,0.1c-0.2,0.3,0.3,0.6,0.7,0.8c0.9,1,2.2,1.8,2.6,3.2c-0.1,1.1-1.2,1.6-2.5,2
	c-1.5,0.4-3.3-2-3.9-2.6c-0.7-0.7-1.4-1.4-2-2.1c-0.7-0.8-5.3-4-4.5-6.4c0.6-1.6,1.5-2,2.8-2.3c3.6-0.7,7.2-1.5,10.7-2.4
	C26.7,3,27.7,3,28.5,4z"/>
</svg>
