<?xml version="1.0" encoding="utf-8"?>
<!-- Generator: Adobe Illustrator 18.0.0, SVG Export Plug-In . SVG Version: 6.00 Build 0)  -->
<!DOCTYPE svg PUBLIC "-//W3C//DTD SVG 1.1//EN" "http://www.w3.org/Graphics/SVG/1.1/DTD/svg11.dtd">
<svg version="1.1" id="Layer_1" xmlns="http://www.w3.org/2000/svg" xmlns:xlink="http://www.w3.org/1999/xlink" x="0px" y="0px"
	 viewBox="0 0 60.2 60.2" enable-background="new 0 0 60.2 60.2" xml:space="preserve">
<path fill="#121111" d="M13,6.4c0.8-0.6,1.8-1,2.8-0.9c1.2,0,1.8,1.1,1.7,2.1C17.4,9,16.1,9.9,15,10.7c-1.7,1.9,0.4,1.3,1.1,1.6
	c7.7,0.5,15.4,1.3,22.4,5.1c5.8,3.1,11,7,15.6,11.8c3.2,3.3,3.3,7.3,2.9,11.4c-0.3,3.5-0.5,7.1-1.4,10.5c-0.1,0.2-0.8,4.3-2.7,3.6
	c-1.8-0.7-0.1-2.2,0.1-3.4c0.5-3,0.8-6.1,1.2-9.1c0.3-2.4,0.4-4.9,0-7.3c-0.7-2.9-2.6-4.9-4.9-6.6c-3.9-3-7.7-6.3-12.3-8.3
	c-3.8-1.7-7.5-3.5-11.9-3.6c-1.6,0-11.8-0.9-13.9-0.9c2,1.4,3.8,2,5.7,2.5c2.5,1,2.7,1.5,1.9,3.9c-0.1,0.1-0.2,0.2-0.4,0.3
	c-0.9,0.9-1.9,0.5-2.9,0.2c-3.7-1.5-7.5-2.7-11.1-4.5c-0.9-0.4-1.4-1.6-1.4-2.3c0-0.8,0.3-1.6,0.9-2.2C4.5,13,12.4,7,13,6.4z"/>
</svg>
