<?xml version="1.0" encoding="utf-8"?>
<!-- Generator: Adobe Illustrator 18.0.0, SVG Export Plug-In . SVG Version: 6.00 Build 0)  -->
<!DOCTYPE svg PUBLIC "-//W3C//DTD SVG 1.1//EN" "http://www.w3.org/Graphics/SVG/1.1/DTD/svg11.dtd">
<svg version="1.1" id="Layer_1" xmlns="http://www.w3.org/2000/svg" xmlns:xlink="http://www.w3.org/1999/xlink" x="0px" y="0px"
	 viewBox="0 0 60 60" enable-background="new 0 0 60 60" xml:space="preserve">
<path fill="#121111" d="M47.9,29.2c1.4,9.5-5.6,15.6-14.9,18.8c-3.6,1.2-7.3,1.9-11.3,2.5c1.8,2.3,6.2,1.4,5.7,5.5
	c-0.7,1.2-1.7,1.6-3,1c-0.4-0.2-10.3-4.6-11-5c-2-1.1-2.2-3.4-0.4-4.7c2.9-2.2,5.9-4.4,8.9-6.5c1.3-0.9,2.7-1.3,3.7,0.1
	c0.8,1.2,0.4,2.5-0.9,3.4c-1,0.7-1.7,1.5-2.8,2.3c-1.2,0.9,1,0.6,1.6,0.5c6.4-0.4,12.2-2.5,17-6.8c4-3.5,5.3-8.2,4.3-13.3
	c-0.3-1.6-0.9-10.2-1-13c-0.2-2.3-0.4-4.7,0-7c0.1-0.7,0.4-1.3,0.6-1.9c0.2-0.8,0.9-0.6,1.5-0.6c0.7,0.1,1,0.6,0.9,1.2
	C45.5,12.2,47.7,27.7,47.9,29.2z"/>
</svg>
