<?xml version="1.0" encoding="utf-8"?>
<!-- Generator: Adobe Illustrator 18.0.0, SVG Export Plug-In . SVG Version: 6.00 Build 0)  -->
<!DOCTYPE svg PUBLIC "-//W3C//DTD SVG 1.1//EN" "http://www.w3.org/Graphics/SVG/1.1/DTD/svg11.dtd">
<svg version="1.1" id="Layer_1" xmlns="http://www.w3.org/2000/svg" xmlns:xlink="http://www.w3.org/1999/xlink" x="0px" y="0px"
	 viewBox="0 0 60 60" enable-background="new 0 0 60 60" xml:space="preserve">
<path fill="#121111" d="M16,9.7c5.6,0.6,10.6,1.4,15.6,2.8c11.2,3.3,21.9,17.4,21.1,29.1c-0.3,4.5-0.4,8.9-1,13.4
	c-0.1,0.9-0.4,1.7-1.4,1.6c-1-0.1-1.2-1.1-1.1-1.9c0.6-3.8,0.9-7.6,0.9-11.4c0.1-14.2-9.5-26.1-23.4-29c-4.3-0.9-8.6-1.4-13-1.2
	c2.1,0.9,4.2,1.9,6.3,2.8c1.4,0.6,2.3,1.5,1.7,3.1c-0.7,1.7-2,1.4-3.4,0.8c-3.4-1.5-6.8-3-10.3-4.5c-1.4-0.6-2-1.6-1.9-3.1
	c0.1-1.4,1-1.9,2.2-2.3c3-1.2,5.1-3.6,7.7-5.4c1.3-0.9,2.6-2.1,3.9-0.4c1.2,1.6,0.1,2.8-1.3,3.7C17.8,8.2,17.1,8.8,16,9.7z"/>
</svg>
