<?xml version="1.0" encoding="utf-8"?>
<!-- Generator: Adobe Illustrator 18.0.0, SVG Export Plug-In . SVG Version: 6.00 Build 0)  -->
<!DOCTYPE svg PUBLIC "-//W3C//DTD SVG 1.1//EN" "http://www.w3.org/Graphics/SVG/1.1/DTD/svg11.dtd">
<svg version="1.1" id="Layer_1" xmlns="http://www.w3.org/2000/svg" xmlns:xlink="http://www.w3.org/1999/xlink" x="0px" y="0px"
	 viewBox="0 0 69.8 69.8" enable-background="new 0 0 69.8 69.8" xml:space="preserve">
<path fill="#191818" d="M65.1,26.7c-0.6,0.1-1.1,0.2-1.7,0.2c-4.2,0.5-8.1,2.1-12.2,2.8c-10.4,1.6-33.8,4-34.9,3.9
	c-0.4-1,1.5-2.8,1.8-3.1c0.9-1,0.9-2,0.1-2.9c-0.1-0.1-0.3-0.2-0.4-0.3c-0.8-0.8-1.7-0.7-2.4-0.3c-1.7,0.9-2.6,2.7-3.9,4
	c-0.5,1-2.2,2-2.5,3.1c-0.2,0.1-1.4,0.3-2.1,0.3c-1,0.1-1.9,0.5-2.2,1.5c-0.3,1.2,0.3,2,1.3,2.6c0.2,1.5,1.1,2.1,2.5,2.4
	c3.2,0.7,6.4,1.6,9.7,2.3c1.4,0.3,3,0.7,4.1-0.8c0.8-2.1,0.6-2.8-2-3.4c-2.2-0.5-4.4-0.8-6.5-1.6c0.5-0.9,9.1-1.3,10.8-1.5
	c11.5-1.5,23.1-2.6,34.4-5.5c2.3-0.6,4.6-1,6.8-1.5c0.7-0.2,1.2-0.7,1.1-1.4C66.4,27,65.9,26.6,65.1,26.7z"/>
</svg>
