<?xml version="1.0" encoding="utf-8"?>
<!-- Generator: Adobe Illustrator 18.0.0, SVG Export Plug-In . SVG Version: 6.00 Build 0)  -->
<!DOCTYPE svg PUBLIC "-//W3C//DTD SVG 1.1//EN" "http://www.w3.org/Graphics/SVG/1.1/DTD/svg11.dtd">
<svg version="1.1" id="Layer_1" xmlns="http://www.w3.org/2000/svg" xmlns:xlink="http://www.w3.org/1999/xlink" x="0px" y="0px"
	 viewBox="0 0 120.6 120.6" enable-background="new 0 0 120.6 120.6" xml:space="preserve">
<path fill="#111111" d="M2.9,57.2c-0.4-0.2-0.8-0.7-1-1.1c-0.6-0.9-0.8-2.3,0-3c3.3-2.6,6-4.8,9-7.3c1.3-1.1,2.7-1.9,4.1-0.7
	c1.5,1.3,0.3,2.6-0.7,3.7c-0.8,0.8-1.6,1.4-2.6,2.1c-0.2,0.1-0.4,0.6,0.2,0.8c5.8-1,11.5-2.3,17.3-2.8c8.2-0.7,16.3-0.3,24.4-0.2
	c20,0.1,37.2,8.3,53.6,18.6c3.6,2.2,11.2,6.8,12,7.3c0.9,0.5,1.9,0.8,1.5,2c-0.3,1.1-1.4,1-2.3,0.8c-0.6-0.1-1.2-0.5-1.7-0.9
	C105,68.4,92.7,61.4,79.4,56.4c-9.8-3.7-20-4.3-30.4-4.6c-8.9-0.2-17.7-0.1-26.4,1.3c-3.7,0.6-7.3,1.5-11.1,2.2
	c1.7,1.4,3.9,1.6,5.7,2.8c0.7,0.8,0.4,1.6,0.2,2.5l0,0c-0.7,1.1-1.6,1.5-2.9,0.9C13.3,61,4.7,58.1,2.9,57.2z"/>
</svg>
