<?xml version="1.0" encoding="utf-8"?>
<!-- Generator: Adobe Illustrator 18.0.0, SVG Export Plug-In . SVG Version: 6.00 Build 0)  -->
<!DOCTYPE svg PUBLIC "-//W3C//DTD SVG 1.1//EN" "http://www.w3.org/Graphics/SVG/1.1/DTD/svg11.dtd">
<svg version="1.1" id="Layer_1" xmlns="http://www.w3.org/2000/svg" xmlns:xlink="http://www.w3.org/1999/xlink" x="0px" y="0px"
	 viewBox="0 0 120.6 120.6" enable-background="new 0 0 120.6 120.6" xml:space="preserve">
<path fill="#111111" d="M20.8,7.1c4-0.6,7.9-1.5,11.8-2.6c0.8-0.3,1.8-0.6,2.5,0.1c1.6,2.2,1.3,3.1-1.2,3.8c-1.9,0.5-3.3,1-5.7,1.5
	c-0.3,0.1-0.6,0.2-0.5,0.5c0,0.1,0.3,0.1,0.4,0.1c10.6,2.3,21,4.9,30.8,9.9c7.4,3.8,13.5,9.4,20,14.5c11.4,8.9,17.3,20.9,21.3,34.3
	c0.6,2,0.9,4,0.9,6.1c0,3.2-0.1,10.7-0.4,12.7c-0.5,6.2-2.6,12.2-3.8,18.3c-0.6,3-1.2,5.9-1.8,8.9c-0.2,1.1-0.4,2-1.8,1.8
	c-1.5-0.3-0.9-1.1-0.7-2.1c1.3-8.2,3.6-16.1,5-24.3c0.1-0.5,0.2-3.9,0.4-5.1c1.5-10.4-1.2-20.1-6.2-29.4c-3-5.6-6.1-10.9-10.9-15.1
	c-6-5.2-11.7-10.5-18.5-14.8c-4.3-2.7-8.6-5.1-13.3-6.7c-6.4-2.2-12.8-4.4-19.5-5.6c-0.3-0.1-0.6,0-1.2,0c1.1,1.3,1.9,2.5,2.9,3.6
	c0.7,0.8,0.7,1.5,0.2,2.4c-0.6,1-1.2,1.7-2.5,1c-3.1-2.4-4.7-4.9-7.6-7.5c-0.9-0.9-2.3-1.9-2.3-3.3C19.1,9.1,19,7.4,20.8,7.1z"/>
</svg>
