<?xml version="1.0" encoding="utf-8"?>
<!-- Generator: Adobe Illustrator 17.1.0, SVG Export Plug-In . SVG Version: 6.00 Build 0)  -->
<!DOCTYPE svg PUBLIC "-//W3C//DTD SVG 1.1//EN" "http://www.w3.org/Graphics/SVG/1.1/DTD/svg11.dtd">
<svg version="1.1" id="Layer_1" xmlns="http://www.w3.org/2000/svg" xmlns:xlink="http://www.w3.org/1999/xlink" x="0px" y="0px"
	 width="512px" height="512px" viewBox="0 0 512 512" enable-background="new 0 0 512 512" xml:space="preserve">
<g>
	<path d="M197.4,113.1c-6-2.4-12.7-1.1-17.3,3.3l-82.7,81.2c-1.5,1.4-2.7,3.1-3.3,5H49.1c-3.3,0-6,2.6-6,5.9v94.8
		c0,3.2,2.7,5.9,6,5.9h44.7c0.7,1.8,1.9,3.6,3.3,4.9l82.7,81.2c3.2,2.9,7.3,4.6,11.4,4.6c2,0,4-0.4,6-1.1c5.9-2.5,9.8-8.1,9.8-14.3
		v-257C207.1,121.1,203.2,115.6,197.4,113.1"/>
	<path d="M280.4,202c-8.6-8.2-23.4-8.2-31.8,0c-4.3,4.2-6.7,9.7-6.7,15.7c0,5.8,2.4,11.4,6.7,15.6c6.1,6.1,9.6,14.1,9.6,22.5
		c0,8.6-3.5,16.7-9.6,22.8c-9,8.5-9,22.6,0,31.2c4.2,4.2,9.8,6.5,15.9,6.5c6,0,11.6-2.2,15.9-6.5c14.7-14.4,22.8-33.6,22.8-54
		C303.2,235.6,295,216.5,280.4,202"/>
	<path d="M338.8,144.7c-8.5-8.3-23.3-8.3-31.8,0c-8.8,8.6-8.8,22.5,0,31.2c21.9,21.5,33.8,49.6,33.8,79.9
		c0,30.3-11.9,58.6-33.8,80.2c-8.8,8.7-8.8,22.7,0,31.3c4.1,4.2,9.9,6.6,15.9,6.6c6,0,11.7-2.3,15.9-6.6
		c30.4-29.7,47.1-69.2,47.1-111.4C385.9,213.9,369.2,174.3,338.8,144.7"/>
	<path d="M365.8,87.3c-8.8,8.6-8.8,22.7,0,31.3c37.5,36.8,58,85.4,58,137.3s-20.5,100.9-58,137.5c-4.4,4.2-6.7,9.6-6.7,15.6
		c0,5.9,2.2,11.5,6.7,15.6c4.1,4.3,9.8,6.5,15.9,6.5c6,0,11.6-2.2,15.9-6.5c46-45.1,71.4-104.9,71.4-168.7
		c0-63.5-25.4-123.4-71.3-168.5C389.1,79,374,79,365.8,87.3"/>
</g>
</svg>
