<?xml version="1.0" encoding="utf-8"?>
<!-- Generator: Adobe Illustrator 17.1.0, SVG Export Plug-In . SVG Version: 6.00 Build 0)  -->
<!DOCTYPE svg PUBLIC "-//W3C//DTD SVG 1.1//EN" "http://www.w3.org/Graphics/SVG/1.1/DTD/svg11.dtd">
<svg version="1.1" id="Layer_1" xmlns="http://www.w3.org/2000/svg" xmlns:xlink="http://www.w3.org/1999/xlink" x="0px" y="0px"
	 viewBox="0 0 512 512" enable-background="new 0 0 512 512" xml:space="preserve">
<path d="M476.4,379.8c-37.4-38.9-45.6-95.7-53.3-151.5c-11.8-81.9-24.6-174.1-141.8-186.4V27c0-14.8-12.3-27.1-27.1-27.1
	c-14.8,0-27.1,12.3-27.1,27.1v14.8C110.9,54.1,98.1,146.2,86.3,228.2c-7.7,55.3-15.9,112.6-52.7,151.6c-7.7,7.7-9.7,19.5-5.1,29.2
	c4.1,9.7,13.8,16.4,25.1,16.4h113.2c0.5,48.1,39.9,86.5,87.6,86.5c48.1,0,87-38.9,87.6-86.5h114.7c10.8,0,20.5-6.7,25.1-16.4
	C486.4,399.3,484.1,388,476.4,379.8z M254.2,458.7c-18.4,0-33.3-14.3-33.8-32.8h33.8H288C287.5,443.8,272.6,458.7,254.2,458.7z
	 M254.2,371.6h-149c22-43,28.7-91.1,34.8-135.7c13.3-95.2,24.1-141.3,114.2-141.3c91.1,0,101.9,46.1,115.2,141.3
	c6.1,44,13.3,92.7,35.3,135.7C404.7,371.6,254.2,371.6,254.2,371.6z"/>
</svg>
