<?xml version="1.0" encoding="utf-8"?>
<!-- Generator: Adobe Illustrator 17.1.0, SVG Export Plug-In . SVG Version: 6.00 Build 0)  -->
<!DOCTYPE svg PUBLIC "-//W3C//DTD SVG 1.1//EN" "http://www.w3.org/Graphics/SVG/1.1/DTD/svg11.dtd">
<svg version="1.1" id="Layer_1" xmlns="http://www.w3.org/2000/svg" xmlns:xlink="http://www.w3.org/1999/xlink" x="0px" y="0px"
	 width="512px" height="512px" viewBox="0 0 512 512" enable-background="new 0 0 512 512" xml:space="preserve">
<g>
	<path d="M365.9,267.6c8.4,5.8,15.3,13.1,20.5,21.8s7.9,19,7.9,30.9c0,14.2-3,26.2-9,36c-6,9.8-14.6,17.6-25.8,23.2
		c-11.9,6.1-25.5,10.3-41,12.9c-15.5,2.5-33.6,3.7-54.6,3.7H118.6v-15.4c4.1-0.4,9.2-1,15.4-1.8c6.2-0.8,10.5-1.7,13-2.8
		c4.9-2,8.2-4.6,10-7.8c1.8-3.2,2.7-7.4,2.7-12.5V158.4c0-4.8-0.7-8.7-2.2-11.9c-1.4-3.2-4.9-5.9-10.4-8.3
		c-4.1-1.7-8.8-3.1-14.2-4.3c-5.4-1.1-10.1-2-14.2-2.7V116h152.2c38.3,0,65.9,5.3,82.9,15.8c17,10.6,25.4,26,25.4,46.6
		c0,9.5-1.9,17.8-5.7,25c-3.8,7.2-9.2,13.4-16.4,18.7c-6.5,4.9-14.2,9.1-23.1,12.6c-9,3.6-18.5,6.5-28.8,8.9v3.7
		c10.3,1,20.9,3.3,32,6.8C348.1,257.6,357.7,262,365.9,267.6z M302.3,183.3c0-15.5-4.4-27.6-13.1-36.3c-8.8-8.6-21.9-13-39.4-13
		c-2.5,0-5.7,0.1-9.7,0.3c-4,0.2-7.4,0.4-10.3,0.5v103.8H240c21.3,0,37-5,47.1-14.9C297.3,213.7,302.3,200.3,302.3,183.3z
		 M316.1,317.8c0-19.5-5.8-34.5-17.3-44.9c-11.6-10.4-28.2-15.6-49.9-15.6c-2.5,0-5.9,0.1-10,0.3c-4.2,0.2-7.2,0.4-9.2,0.5v102.6
		c1.2,4.9,4.9,9,11,12.4c6.2,3.4,13.7,5,22.5,5c15.6,0,28.4-5.3,38.2-15.8C311.2,351.8,316.1,336.9,316.1,317.8z"/>
</g>
</svg>
