<?xml version="1.0" encoding="utf-8"?>
<!-- Generator: Adobe Illustrator 17.1.0, SVG Export Plug-In . SVG Version: 6.00 Build 0)  -->
<!DOCTYPE svg PUBLIC "-//W3C//DTD SVG 1.1//EN" "http://www.w3.org/Graphics/SVG/1.1/DTD/svg11.dtd">
<svg version="1.1" id="Layer_1" xmlns="http://www.w3.org/2000/svg" xmlns:xlink="http://www.w3.org/1999/xlink" x="0px" y="0px"
	 viewBox="0 0 512 512" enable-background="new 0 0 512 512" xml:space="preserve">
<g>
	<path fill="#010101" d="M470.5,105.5c-3.6-2.6-8.2-3.6-11.8-1.5l-190.2,82.3c-8.2,3.6-18.4,5.1-29.2,5.1c-14.8,0-30.2-3.6-40.9-8.2
		c-3.6-1.5-7.2-3.6-9.2-5.1c1-0.5,1.5-1,3.1-1l172.9-74.7l25.6,11.3V81.5c0-4.6-2-9.2-5.6-12.3c-3.6-2.6-8.2-3.6-11.8-1.5L183.1,150
		c-5.6,2.6-10.7,5.1-15.3,9.7c-4.1,4.1-7.7,10.7-7.7,18.4v0.5v290c0,0,0,0,0,0.5l0,0v0.5l0,0c0.5,10.2,5.6,16.9,10.2,21
		c15.3,13.3,40.9,21,68.5,21.5c12.8,0,26.1-2,38.4-7.2l190.2-82.3c5.1-2,8.2-7.7,8.2-13.3v-291C476.1,112.6,474.1,108,470.5,105.5z"
		/>
	<path fill="#010101" d="M349.8,50.2c-0.5-4.1-2-8.2-5.1-10.7c-3.6-2.6-8.2-3.6-11.8-1.5l-190.2,81.8c-8.2,3.6-18.4,5.1-29.2,5.1
		c-14.8,0-30.2-3.6-40.9-8.2c-3.6-1.5-7.2-3.6-9.2-5.1c1-0.5,1.5-1,3.1-1l172.9-74.7L265,47.2V15c0-4.6-2-9.2-5.6-12.3
		c-3.6-2.6-8.2-3.6-11.8-1.5L57.4,83.5c-5.6,2.6-10.7,5.1-15.3,9.7c-4.1,4.1-7.7,10.7-7.7,18.4v0.5v290v0.5c0,0,0,0,0,0.5v0.5l0,0
		c0.5,10.2,5.6,16.9,10.2,21c15.3,13.3,40.9,21,68.5,21.5c7.2,0,14.8-1,22-2.6V178.1c0-13.8,5.1-27.1,14.8-36.3
		c6.1-6.1,13.8-11.3,23.5-14.8L349.8,50.2z"/>
</g>
</svg>
