<?xml version="1.0" encoding="utf-8"?>
<!-- Generator: Adobe Illustrator 17.1.0, SVG Export Plug-In . SVG Version: 6.00 Build 0)  -->
<!DOCTYPE svg PUBLIC "-//W3C//DTD SVG 1.1//EN" "http://www.w3.org/Graphics/SVG/1.1/DTD/svg11.dtd">
<svg version="1.1" id="Layer_1" xmlns="http://www.w3.org/2000/svg" xmlns:xlink="http://www.w3.org/1999/xlink" x="0px" y="0px"
	 viewBox="0 0 512 512" enable-background="new 0 0 512 512" xml:space="preserve">
<path fill="#010101" d="M430.6,45c-4.1-3.1-9.2-4.1-13.8-2l-218.4,94.6c-9.7,4.1-21.5,6.1-33.8,6.1c-16.9,0-34.8-4.1-47.1-9.2
	c-4.6-2-8.2-4.1-10.7-5.6c1-0.5,2-1,3.1-1.5l199.5-86.5l29.7,12.8V16.9c0-5.6-2.6-10.7-6.1-13.8c-4.1-3.1-9.2-4.1-13.8-2L100.8,95.7
	c-6.6,2.6-12.3,6.1-17.4,10.7c-4.6,4.6-9.2,12.3-8.7,21v0.5v333.5v0.5c0,0,0,0,0,0.5v0.5l0,0c0.5,11.8,6.1,19.4,11.8,24
	c17.4,15.3,47.1,24,78.8,25.1c14.8,0,30.2-2.6,44-8.2l218.4-94.6c5.6-2.6,9.7-8.7,9.7-15.3v-334C437.3,53.2,434.7,48.1,430.6,45z"/>
</svg>
