<?xml version="1.0" encoding="UTF-8" standalone="no"?>
<svg width="512px" height="512px" viewBox="0 0 512 512" version="1.1" xmlns="http://www.w3.org/2000/svg" xmlns:xlink="http://www.w3.org/1999/xlink" xmlns:sketch="http://www.bohemiancoding.com/sketch/ns">
    <!-- Generator: Sketch 3.4.4 (17249) - http://www.bohemiancoding.com/sketch -->
    <title>calendar</title>
    <desc>Created with Sketch.</desc>
    <defs></defs>
    <g id="Exports" stroke="none" stroke-width="1" fill="none" fill-rule="evenodd" sketch:type="MSPage">
        <g id="calendar" sketch:type="MSArtboardGroup" fill="#000000">
            <path d="M440.000308,57.1304348 C462.643813,57.1304348 481,75.6873302 481,98.1490246 L481,447.98141 C481,470.635352 462.680805,489 440.000308,489 L68.9996916,489 C46.3561872,489 28,470.443105 28,447.98141 L28,98.1490246 C28,75.495083 46.3191954,57.1304348 68.9996916,57.1304348 L101.156544,57.1304348 L101.156544,99.1540997 C101.156544,127.882364 124.203704,150.758407 152.633817,150.758407 C181.262139,150.758407 204.11109,127.654372 204.11109,99.1540997 L204.11109,57.1304348 L306.18841,57.1304348 L306.18841,98.0470122 C306.18841,126.775277 329.23557,149.651319 357.665683,149.651319 C386.294005,149.651319 409.142955,126.547284 409.142955,98.0470122 L409.142955,57.1304348 L440.000308,57.1304348 Z M439.818182,201.086957 L439.818182,427.305166 C439.818182,438.66257 430.656333,447.869565 419.36322,447.869565 L89.6367796,447.869565 C78.3398163,447.869565 69.1818182,438.518377 69.1818182,427.305166 L69.1818182,201.086957 L439.818182,201.086957 L439.818182,201.086957 Z M130.954545,36.5612584 C130.954545,25.205589 140.094126,16 151.545455,16 C162.9175,16 172.136364,25.1251293 172.136364,36.5612584 L172.136364,98.2648285 C172.136364,109.620498 162.996783,118.826087 151.545455,118.826087 C140.173409,118.826087 130.954545,109.700958 130.954545,98.2648285 L130.954545,36.5612584 L130.954545,36.5612584 Z M357.454545,16 C368.826591,16 378.045455,25.1251293 378.045455,36.5612584 L378.045455,98.2648285 C378.045455,109.620498 368.905874,118.826087 357.454545,118.826087 C346.0825,118.826087 336.863636,109.700958 336.863636,98.2648285 L336.863636,36.5612584 C336.863636,25.205589 346.003217,16 357.454545,16 Z" id="Rectangle-4" sketch:type="MSShapeGroup"></path>
        </g>
    </g>
</svg>