<?xml version="1.0" encoding="UTF-8" standalone="no"?>
<svg width="24px" height="19px" viewBox="0 0 24 19" version="1.1" xmlns="http://www.w3.org/2000/svg" xmlns:xlink="http://www.w3.org/1999/xlink" xmlns:sketch="http://www.bohemiancoding.com/sketch/ns">
    <!-- Generator: Sketch 3.3.1 (12002) - http://www.bohemiancoding.com/sketch -->
    <title>Imported Layers</title>
    <desc>Created with Sketch.</desc>
    <defs></defs>
    <g id="Page-1" stroke="none" stroke-width="1" fill="none" fill-rule="evenodd" sketch:type="MSPage">
        <g id="Comments" sketch:type="MSArtboardGroup" transform="translate(-181.000000, -61.000000)" fill="#9098A3">
            <g id="Imported-Layers" sketch:type="MSLayerGroup" transform="translate(181.000000, 61.000000)">
                <path d="M12,15.1562395 C8.96734788,15.1562395 6.50163799,12.66334 6.50163799,9.6 C6.50163799,6.53542523 8.96734788,4.04376049 12,4.04376049 C15.0314303,4.04376049 17.498362,6.53542523 17.498362,9.6 C17.498362,12.66334 15.0314303,15.1562395 12,15.1562395 L12,15.1562395 Z M12,5.27848038 C9.64181362,5.27848038 7.72349621,7.21699061 7.72349621,9.6 C7.72349621,11.9830094 9.64181362,13.9215196 12,13.9215196 C14.3581864,13.9215196 16.2765038,11.9830094 16.2765038,9.6 C16.2765038,7.21699061 14.3581864,5.27848038 12,5.27848038 L12,5.27848038 Z" id="Fill-1" sketch:type="MSShapeGroup"></path>
                <path d="M21.7736439,18.8610165 L2.22391234,18.8610165 C1.21343559,18.8610165 0.391125,18.0300501 0.391125,17.0089367 L0.391125,4.6617378 C0.391125,3.64062445 1.21343559,2.80965796 2.22391234,2.80965796 L4.05669968,2.80965796 C4.56377084,2.80965796 5.35064754,2.47998775 5.70987386,2.1169801 L6.42710463,1.39343424 C7.02214959,0.792125658 8.10471598,0.338983458 8.94535444,0.338983458 L15.0546456,0.338983458 C15.895284,0.338983458 16.9778504,0.792125658 17.5716735,1.39343424 L18.2889043,2.1169801 C18.6469087,2.47875303 19.4362292,2.80965796 19.9433003,2.80965796 L21.7760877,2.80965796 C22.7865644,2.80965796 23.608875,3.64062445 23.608875,4.6617378 L23.608875,17.0089367 C23.608875,18.0300501 22.7865644,18.8610165 21.7760877,18.8610165 L21.7736439,18.8610165 L21.7736439,18.8610165 Z M2.22391234,4.04437785 C1.88667947,4.04437785 1.61298323,4.32095511 1.61298323,4.6617378 L1.61298323,17.0089367 C1.61298323,17.3497194 1.88667947,17.6262967 2.22391234,17.6262967 L21.7736439,17.6262967 C22.1108768,17.6262967 22.3845731,17.3497194 22.3845731,17.0089367 L22.3845731,4.6617378 C22.3845731,4.32095511 22.1108768,4.04437785 21.7736439,4.04437785 L19.9408566,4.04437785 C19.0989963,4.04437785 18.0176518,3.59123565 17.4226068,2.99116178 L16.705376,2.26514649 C16.3473716,1.90460828 15.559273,1.57370335 15.0522018,1.57370335 L8.94291072,1.57370335 C8.43583956,1.57370335 7.647741,1.90337356 7.28729282,2.26514649 L6.57250576,2.99116178 C5.97746081,3.59123565 4.89489442,4.04437785 4.05425596,4.04437785 L2.22146862,4.04437785 L2.22391234,4.04437785 L2.22391234,4.04437785 Z" id="Fill-2" sketch:type="MSShapeGroup"></path>
            </g>
        </g>
    </g>
</svg>