<?xml version="1.0" encoding="utf-8"?>
<!-- Generator: Adobe Illustrator 17.1.0, SVG Export Plug-In . SVG Version: 6.00 Build 0)  -->
<!DOCTYPE svg PUBLIC "-//W3C//DTD SVG 1.1//EN" "http://www.w3.org/Graphics/SVG/1.1/DTD/svg11.dtd">
<svg version="1.1" id="Layer_1" xmlns="http://www.w3.org/2000/svg" xmlns:xlink="http://www.w3.org/1999/xlink" x="0px" y="0px"
	 width="512px" height="512px" viewBox="0 0 512 512" enable-background="new 0 0 512 512" xml:space="preserve">
<path d="M503.9,422.7L290.6,50.9c-19-33-50.2-32.2-69.2,0.8L8.1,422.3c-19,33-3.5,62.7,34.6,62.7h426.5
	C507.3,485,522.9,455.7,503.9,422.7z M275.6,400.6c-1.3,3-3.1,5.4-5.3,7.2c-2.2,1.8-4.8,3.2-7.7,4c-2.9,0.8-6,1.2-9.3,1.2
	c-3.4,0-6.5-0.4-9.5-1.2c-3-0.8-5.6-2.1-7.7-4c-2.2-1.8-3.9-4.2-5.1-7.2c-1.3-3-1.9-6.7-1.9-11.1c0-4.5,0.6-8.3,1.9-11.3
	c1.2-3,2.9-5.5,5.1-7.3c2.2-1.8,4.7-3.1,7.7-3.9c3-0.8,6.1-1.1,9.5-1.1c3.3,0,6.4,0.4,9.3,1.1c2.9,0.8,5.5,2.1,7.7,3.9
	c2.2,1.8,4,4.3,5.3,7.3c1.3,3,1.9,6.8,1.9,11.3C277.6,394,276.9,397.7,275.6,400.6z M261.4,347h-16.6l-17.4-139h51.3L261.4,347z"/>
</svg>
