<?xml version="1.0" encoding="UTF-8" standalone="no"?>
<svg width="37px" height="37px" viewBox="0 0 37 37" version="1.1" xmlns="http://www.w3.org/2000/svg" xmlns:xlink="http://www.w3.org/1999/xlink" xmlns:sketch="http://www.bohemiancoding.com/sketch/ns">
    <!-- Generator: Sketch 3.4.1 (15681) - http://www.bohemiancoding.com/sketch -->
    <title>Imported Layers</title>
    <desc>Created with Sketch.</desc>
    <defs></defs>
    <g id="Page-1" stroke="none" stroke-width="1" fill="none" fill-rule="evenodd" sketch:type="MSPage">
        <g id="1-Overview" sketch:type="MSArtboardGroup" transform="translate(-1076.000000, -576.000000)" fill="#000000">
            <g id="Rectangle-1-Copy-2-+-Design-+-18,954-Tutorials-+-Line-Copy-+-Imported-Layers" sketch:type="MSLayerGroup" transform="translate(976.000000, 494.000000)">
                <path d="M133.262412,82 L103.441176,82 C101.541647,82 100,83.5563125 100,85.46875 L100,108.59375 C100,110.506187 101.541647,112.0625 103.441176,112.0625 L113.764706,112.0625 L113.764706,116.109375 C113.764706,116.430813 113.507765,116.6875 113.191176,116.6875 L107.453588,116.6875 C107.137,116.6875 106.882353,116.944187 106.882353,117.265625 L106.882353,118.421875 C106.882353,118.743313 107.137,119 107.453588,119 L129.25,119 C129.566588,119 129.821235,118.743313 129.821235,118.421875 L129.821235,117.265625 C129.821235,116.944187 129.566588,116.6875 129.25,116.6875 L123.514706,116.6875 C123.195824,116.6875 122.938882,116.430813 122.938882,116.109375 L122.938882,112.0625 L133.262412,112.0625 C135.161941,112.0625 136.703588,110.506187 136.703588,108.59375 L136.703588,85.46875 C136.703588,83.5563125 135.161941,82 133.262412,82 L133.262412,82 Z M117.205882,108.59375 C117.205882,107.9555 117.717471,107.4375 118.352941,107.4375 C118.986118,107.4375 119.497706,107.9555 119.497706,108.59375 C119.497706,109.232 118.986118,109.75 118.352941,109.75 C117.717471,109.75 117.205882,109.232 117.205882,108.59375 L117.205882,108.59375 Z M134.411765,105.125 L102.291824,105.125 L102.291824,85.46875 C102.291824,84.8328125 102.808,84.3125 103.441176,84.3125 L133.262412,84.3125 C133.895588,84.3125 134.411765,84.8328125 134.411765,85.46875 L134.411765,105.125 L134.411765,105.125 Z" id="Imported-Layers" sketch:type="MSShapeGroup"></path>
            </g>
        </g>
    </g>
</svg>