<?xml version="1.0" encoding="UTF-8" standalone="no"?>
<svg width="40px" height="40px" viewBox="0 0 40 40" version="1.1" xmlns="http://www.w3.org/2000/svg" xmlns:xlink="http://www.w3.org/1999/xlink" xmlns:sketch="http://www.bohemiancoding.com/sketch/ns">
    <!-- Generator: Sketch 3.4.1 (15681) - http://www.bohemiancoding.com/sketch -->
    <title>icon-settings</title>
    <desc>Created with Sketch.</desc>
    <defs></defs>
    <g id="Page-1" stroke="none" stroke-width="1" fill="none" fill-rule="evenodd" sketch:type="MSPage">
        <g id="1-Overview" sketch:type="MSArtboardGroup" transform="translate(-820.000000, -1009.000000)" fill="#000000">
            <g id="Rectangle-1-Copy-7-+-Design-+-18,954-Tutorials-+-Line-Copy-6-+-icon-settings" sketch:type="MSLayerGroup" transform="translate(720.000000, 930.000000)">
                <path d="M134.666667,116.333333 C134.666667,117.806667 135.263333,119 136,119 C136.736667,119 137.333333,117.806667 137.333333,116.333333 L137.333333,103 L134.666667,103 L134.666667,116.333333 L134.666667,116.333333 Z M137.333333,81.6666667 C137.333333,80.1933333 136.736667,79 136,79 C135.263333,79 134.666667,80.1933333 134.666667,81.6666667 L134.666667,84.3333333 L137.333333,84.3333333 L137.333333,81.6666667 L137.333333,81.6666667 Z M137.333333,87 L134.666667,87 C133.193333,87 132,88.1933333 132,89.6666667 L132,97.6666667 C132,99.14 133.193333,100.333333 134.666667,100.333333 L137.333333,100.333333 C138.806667,100.333333 140,99.14 140,97.6666667 L140,89.6666667 C140,88.1933333 138.806667,87 137.333333,87 L137.333333,87 Z M118.666667,116.333333 C118.666667,117.806667 119.263333,119 120,119 C120.736667,119 121.333333,117.806667 121.333333,116.333333 L121.333333,113.666667 L118.666667,113.666667 L118.666667,116.333333 L118.666667,116.333333 Z M121.333333,81.6666667 C121.333333,80.1933333 120.736667,79 120,79 C119.263333,79 118.666667,80.1933333 118.666667,81.6666667 L118.666667,95 L121.333333,95 L121.333333,81.6666667 L121.333333,81.6666667 Z M121.333333,97.6666667 L118.666667,97.6666667 C117.193333,97.6666667 116,98.86 116,100.333333 L116,108.333333 C116,109.806667 117.193333,111 118.666667,111 L121.333333,111 C122.806667,111 124,109.808333 124,108.333333 L124,100.333333 C124,98.86 122.808333,97.6666667 121.333333,97.6666667 L121.333333,97.6666667 Z M102.666667,116.333333 C102.666667,117.806667 103.263333,119 104,119 C104.736667,119 105.333333,117.806667 105.333333,116.333333 L105.333333,108.333333 L102.666667,108.333333 L102.666667,116.333333 L102.666667,116.333333 Z M105.333333,81.6666667 C105.333333,80.1933333 104.736667,79 104,79 C103.263333,79 102.666667,80.1933333 102.666667,81.6666667 L102.666667,89.6666667 L105.333333,89.6666667 L105.333333,81.6666667 L105.333333,81.6666667 Z M102.666667,92.3333333 C101.193333,92.3333333 100,93.5266667 100,95 L100,103 C100,104.473333 101.193333,105.666667 102.666667,105.666667 L105.333333,105.666667 C106.806667,105.666667 108,104.473333 108,103 L108,95 C108,93.5266667 106.806667,92.3333333 105.333333,92.3333333 L102.666667,92.3333333 Z" id="icon-settings" sketch:type="MSShapeGroup"></path>
            </g>
        </g>
    </g>
</svg>