<?xml version="1.0" encoding="utf-8"?>
<!-- Generator: Adobe Illustrator 18.0.0, SVG Export Plug-In . SVG Version: 6.00 Build 0)  -->
<!DOCTYPE svg PUBLIC "-//W3C//DTD SVG 1.1//EN" "http://www.w3.org/Graphics/SVG/1.1/DTD/svg11.dtd">
<svg version="1.1" id="Layer_1" xmlns="http://www.w3.org/2000/svg" xmlns:xlink="http://www.w3.org/1999/xlink" x="0px" y="0px"
	 viewBox="0 0 564.7 512" enable-background="new 0 0 564.7 512" xml:space="preserve">
<g>
	<g>
		<g>
			<path fill="#010101" d="M532.9,15H102c-14,0-32.6,12.3-32.6,26.3V206h27v-51h89v38h24v-38h90v51h25v-51h89v89h-38v26h38v89h-38
				v24h38v90h-63v26h182.6c14,0,20.4-12.8,20.4-26.8V41.3C553.4,27.3,546.9,15,532.9,15z M185.4,129h-89V40h89V129z M299.4,129h-90
				V40h90V129z M413.4,129h-89V40h89V129z M527.4,473h-87v-90h87V473z M527.4,359h-87v-89h87V359z M527.4,244h-87v-89h87V244z
				 M527.4,129h-87V40h87V129z"/>
		</g>
	</g>
	<g>
		<path fill="#231F20" d="M11,498.4l0-1c-0.1-2.2-2.1-54.7,5.2-66.1c6.5-10.1,24.3-17,44.9-25c5.8-2.2,11.7-4.6,17.7-7
			c22.6-9.4,30.7-13.7,32.6-14.8l0.2-24.7c-1.9-1.7-10.1-10.1-13-31.3c-0.2,0-0.4,0-0.5,0c-6.7,0-12.5-11-12.9-16.4
			c-0.2-3.5,0.1-14.7,4.3-19.2c1.2-1.2,2.5-1.9,4.1-1.9c-1.3-10.3-2.6-21.4-2-27.2c2.1-21.4,23.1-43.5,54.8-43.5
			c31.6,0,52.7,22.1,54.8,43.5c0.6,5.9-0.7,16.9-2,27.2c1.5,0,2.9,0.7,4.1,1.9c4.2,4.5,4.6,15.6,4.3,19.2
			c-0.3,5.5-6.1,16.4-12.9,16.4c-0.2,0-0.4,0-0.5,0c-3,21.2-11.1,29.6-13,31.3l0.2,24.7c1.9,1.1,10,5.3,32.6,14.8
			c6,2.5,11.9,4.8,17.7,7c20.6,8,38.4,14.9,44.9,25c7.3,11.4,5.3,63.9,5.2,66.1l0,1H11z"/>
		<path fill="#FFFFFF" d="M146.3,221.2c31.4,0,51.8,21.8,53.8,42.6c0.5,5.7-0.6,16.4-2.2,28.3c0.4-0.1,0.7-0.1,1.1-0.1
			c6.7,0,7.8,14.6,7.5,20c-0.3,5.5-6,15.5-11.9,15.5c-0.5,0-0.9-0.1-1.4-0.2c-3.1,24.3-13.2,32-13.2,32l0.2,25.8
			c0,0,6.4,3.9,33.3,15.1c26.9,11.2,54,19,62.1,31.6c7.2,11.3,5.1,65.6,5.1,65.6H11.9c0,0-2.2-54.3,5.1-65.6
			c8.1-12.6,35.2-20.4,62.1-31.6c26.9-11.2,33.3-15.1,33.3-15.1l0.3-25.8c0,0-10.1-7.7-13.2-32c-0.5,0.1-0.9,0.2-1.4,0.2
			c-5.9,0-11.5-10-11.9-15.5c-0.3-5.4,0.8-20,7.5-20c0.3,0,0.7,0,1.1,0.1c-1.6-11.9-2.7-22.6-2.1-28.3
			C94.5,243.1,114.9,221.2,146.3,221.2 M146.3,219.2c-19.1,0-31.8,7.6-39.2,14c-9.4,8.2-15.5,19.3-16.5,30.4
			c-0.6,5.8,0.6,16.4,1.9,26.5c-1.4,0.3-2.6,1-3.7,2.1c-4.5,4.8-4.9,16-4.6,19.9c0.4,5.9,6.3,17.1,13.6,17.4
			c2.9,19.8,10.4,28.3,12.9,30.7l-0.2,23.7c-2.6,1.4-11.1,5.7-32,14.4c-5.9,2.5-11.9,4.8-17.7,7c-20.8,8.1-38.7,15-45.4,25.4
			c-7.5,11.7-5.5,64.5-5.4,66.7l0.1,1.9h1.9h268.8h1.9l0.1-1.9c0.1-2.2,2.1-55-5.4-66.7c-6.6-10.4-24.6-17.3-45.4-25.4
			c-5.8-2.2-11.7-4.6-17.7-7c-21-8.7-29.4-13-32-14.4l-0.2-23.7c2.5-2.4,10-11,12.9-30.7c7.3-0.3,13.2-11.5,13.5-17.4
			c0.2-3.9-0.1-15.1-4.6-19.9c-1.1-1.1-2.3-1.8-3.7-2.1c1.3-10.1,2.4-20.7,1.9-26.5C200,241.8,178.5,219.2,146.3,219.2L146.3,219.2z
			"/>
	</g>
	<rect x="286.4" y="256" fill="#231F20" width="26" height="103"/>
	<rect x="248.4" y="295" fill="#231F20" width="102" height="25"/>
</g>
</svg>
