<?xml version="1.0" encoding="utf-8"?>
<!-- Generated by IcoMoon.io -->
<!DOCTYPE svg PUBLIC "-//W3C//DTD SVG 1.1//EN" "http://www.w3.org/Graphics/SVG/1.1/DTD/svg11.dtd">
<svg version="1.1" xmlns="http://www.w3.org/2000/svg" xmlns:xlink="http://www.w3.org/1999/xlink" width="32" height="32" viewBox="0 0 32 32">
<path fill="#444444" d="M19.335 16.123c0.934 1.623 0.267 3.639-1.49 4.502s-3.939 0.247-4.874-1.376c-0.189-0.328-0.312-0.672-0.374-1.019l-1.707-8.053c-0.155-0.729-0.452-2.134-0.452-2.134-0.006-0.029 0.006-0.036 0.028-0.015l1.614 1.571 6.416 5.557c0.334 0.263 0.62 0.588 0.839 0.968zM2.59 8.968c-4.383 6.964-2.434 16.155 4.393 20.94 0.839 0.588 1.993 0.4 2.578-0.42s0.379-1.961-0.46-2.549c-5.219-3.658-6.71-10.688-3.358-16.015 3.488-5.543 10.908-7.186 16.573-3.671s7.43 10.857 3.942 16.4c-0.79 1.255-1.793 2.33-2.965 3.193-0.814 0.6-0.973 1.743-0.354 2.555s1.78 0.983 2.594 0.383c1.534-1.13 2.847-2.537 3.878-4.175 4.56-7.246 2.253-16.846-5.153-21.441s-17.107-2.446-21.667 4.8z"></path>
</svg>
