<?xml version="1.0" encoding="UTF-8" standalone="no"?>
<svg width="512px" height="512px" viewBox="0 0 512 512" version="1.1" xmlns="http://www.w3.org/2000/svg" xmlns:xlink="http://www.w3.org/1999/xlink" xmlns:sketch="http://www.bohemiancoding.com/sketch/ns">
    <!-- Generator: Sketch 3.2.2 (9983) - http://www.bohemiancoding.com/sketch -->
    <title>desktop</title>
    <desc>Created with Sketch.</desc>
    <defs></defs>
    <g id="Exports" stroke="none" stroke-width="1" fill="none" fill-rule="evenodd" sketch:type="MSPage">
        <g id="desktop" sketch:type="MSArtboardGroup" fill="#000000">
            <path d="M203.666071,343.271825 L99.0643519,343.271825 L99.0643519,158.029129 C99.0643519,149.745451 105.782047,143.030203 114.067729,143.030203 L397.866131,143.030203 C406.152267,143.030203 412.869508,149.74155 412.869508,158.029129 L412.869508,343.271825 L412.869508,343.271825 L308.267789,343.271825 C308.267789,357.095624 297.061169,368.302027 283.246315,368.302027 L228.687544,368.302027 C214.868566,368.302027 203.666071,357.098663 203.666071,343.271825 Z M439.019938,343.271825 L439.019938,138.007528 C439.019938,126.945246 430.061748,118 419.011262,118 L92.9225977,118 C81.8728698,118 72.9139222,126.957675 72.9139222,138.007528 L72.9139222,343.271825 L16.4561593,343.271825 C4.31399669,343.271825 -0.591458206,351.793091 5.50962926,362.304605 L12.4716701,374.299449 C18.5732483,384.81181 33.3654434,393.33223 45.5120587,393.33223 L466.421801,393.33223 C478.571004,393.33223 493.361102,384.810964 499.46219,374.299449 L506.424231,362.304605 C512.525809,351.792245 507.62439,343.271825 495.477701,343.271825 L439.019938,343.271825 L439.019938,343.271825 Z" id="Rectangle-742" sketch:type="MSShapeGroup"></path>
        </g>
    </g>
</svg>