<?xml version="1.0" encoding="UTF-8" standalone="no"?>
<svg width="28px" height="28px" viewBox="0 0 28 28" version="1.1" xmlns="http://www.w3.org/2000/svg" xmlns:xlink="http://www.w3.org/1999/xlink" xmlns:sketch="http://www.bohemiancoding.com/sketch/ns">
    <!-- Generator: Sketch 3.3.3 (12081) - http://www.bohemiancoding.com/sketch -->
    <title>doc_vcard</title>
    <desc>Created with Sketch.</desc>
    <defs></defs>
    <g id="Page-1" stroke="none" stroke-width="1" fill="none" fill-rule="evenodd" sketch:type="MSPage">
        <g id="doc_vcard" sketch:type="MSArtboardGroup" fill="#000000">
            <g id="doc_pdf-copy-10" sketch:type="MSLayerGroup" transform="translate(2.000000, 0.000000)">
                <g id="Group" sketch:type="MSShapeGroup">
                    <path d="M2.32272727,7.71759609 L2.32272727,3.74363056 C2.32272727,2.96329113 2.9645565,2.32272727 3.74089036,2.32272727 L11.9719134,2.32272727 C12.3714048,2.32272727 13.0611154,2.61425431 13.3277736,2.89028253 L19.9837949,9.78018663 C20.2687184,10.075122 20.5481818,10.764163 20.5481818,11.173329 L20.5481818,24.2527549 C20.5481818,25.0398663 19.9136276,25.6772727 19.1367072,25.6772727 L3.73420184,25.6772727 C2.95734427,25.6772727 2.32272727,25.0415715 2.32272727,24.265918 L2.32272727,21.18301 L2.32272727,7.71759609 L2.32272727,7.71759609 Z M0.0318181818,7.71759609 L0.0318181818,21.18301 L0.0318181818,24.265918 C0.0318181818,26.3059311 1.69123391,27.9681818 3.73420184,27.9681818 L19.1367072,27.9681818 C21.1811674,27.9681818 22.8390909,26.3028062 22.8390909,24.2527549 L22.8390909,11.173329 C22.8390909,10.1692455 22.3282861,8.90981223 21.631436,8.18847591 L14.9754148,1.29857178 C14.2762555,0.574845041 12.9915327,0.0318181818 11.9719134,0.0318181818 L3.74089036,0.0318181818 C1.70033331,0.0318181818 0.0318181818,1.6970438 0.0318181818,3.74363056 L0.0318181818,7.71759609 L0.0318181818,7.71759609 Z" id="Shape"></path>
                    <path d="M14.0947797,17.0815607 C13.0688702,16.6377646 12.8251094,16.4843537 12.8251094,16.4843537 L12.815861,15.4632118 C12.815861,15.4632118 13.2003293,15.1570747 13.3198976,14.1968863 C13.5603555,14.2687977 13.8127041,13.8250016 13.8259161,13.5907759 C13.8397886,13.3654535 13.7928861,12.7401668 13.4995804,12.8031749 C13.5596949,12.331984 13.6032944,11.908734 13.5821552,11.6847814 C13.5055258,10.8649914 12.7266802,10 11.5296757,10 C10.3320107,10 9.55316507,10.8649914 9.47719625,11.6847814 C9.4560571,11.908734 9.4996566,12.331984 9.55911046,12.8031749 C9.26580473,12.7401668 9.21956284,13.3654535 9.23277481,13.5907759 C9.24664738,13.8250016 9.4983354,14.2687977 9.73945385,14.1968863 C9.85836157,15.1570747 10.2434905,15.4632118 10.2434905,15.4632118 L10.2335815,16.4843537 C10.2335815,16.4843537 9.98982067,16.6377646 8.96391122,17.0815607 C7.93800178,17.5246719 6.90086215,17.8349182 6.59236266,18.3341888 C6.3155719,18.7807244 6.59236266,20.9237452 6.59236266,20.9237452 C6.59236266,20.9237452 8.08780867,21.7929263 11.5296758,21.7929263 C14.971543,21.7929263 16.5860182,20.9237452 16.5860182,20.9237452 C16.5860182,20.9237452 16.743119,18.7807244 16.4669888,18.3341888 C16.1578287,17.8349182 15.1213497,17.5246719 14.0947797,17.0815607 Z" id="Imported-Layers-6-Copy-13"></path>
                </g>
            </g>
        </g>
    </g>
</svg>