<?xml version="1.0" encoding="UTF-8" standalone="no"?>
<svg width="28px" height="28px" viewBox="0 0 28 28" version="1.1" xmlns="http://www.w3.org/2000/svg" xmlns:xlink="http://www.w3.org/1999/xlink" xmlns:sketch="http://www.bohemiancoding.com/sketch/ns">
    <!-- Generator: Sketch 3.3.3 (12081) - http://www.bohemiancoding.com/sketch -->
    <title>doc_calendar</title>
    <desc>Created with Sketch.</desc>
    <defs></defs>
    <g id="Page-1" stroke="none" stroke-width="1" fill="none" fill-rule="evenodd" sketch:type="MSPage">
        <g id="doc_calendar" sketch:type="MSArtboardGroup" fill="#000000">
            <g id="doc_calendar-copy-2" sketch:type="MSLayerGroup" transform="translate(2.000000, 0.000000)">
                <g id="Group-Copy-20" sketch:type="MSShapeGroup">
                    <path d="M2.32272727,7.71759609 L2.32272727,3.74363056 C2.32272727,2.96329113 2.9645565,2.32272727 3.74089036,2.32272727 L11.9719134,2.32272727 C12.3714048,2.32272727 13.0611154,2.61425431 13.3277736,2.89028253 L19.9837949,9.78018663 C20.2687184,10.075122 20.5481818,10.764163 20.5481818,11.173329 L20.5481818,24.2527549 C20.5481818,25.0398663 19.9136276,25.6772727 19.1367072,25.6772727 L3.73420184,25.6772727 C2.95734427,25.6772727 2.32272727,25.0415715 2.32272727,24.265918 L2.32272727,21.18301 L2.32272727,7.71759609 L2.32272727,7.71759609 Z M0.0318181818,7.71759609 L0.0318181818,21.18301 L0.0318181818,24.265918 C0.0318181818,26.3059311 1.69123391,27.9681818 3.73420184,27.9681818 L19.1367072,27.9681818 C21.1811674,27.9681818 22.8390909,26.3028062 22.8390909,24.2527549 L22.8390909,11.173329 C22.8390909,10.1692455 22.3282861,8.90981223 21.631436,8.18847591 L14.9754148,1.29857178 C14.2762555,0.574845041 12.9915327,0.0318181818 11.9719134,0.0318181818 L3.74089036,0.0318181818 C1.70033331,0.0318181818 0.0318181818,1.6970438 0.0318181818,3.74363056 L0.0318181818,7.71759609 L0.0318181818,7.71759609 Z" id="Shape"></path>
                    <path d="M12.7272727,10.9772727 L12.7272727,15.1136364 C12.7272727,15.5353811 13.0691644,15.8772727 13.4909091,15.8772727 C13.9126538,15.8772727 14.2545455,15.5353811 14.2545455,15.1136364 L14.2545455,10.9772727 C14.2545455,10.555528 13.9126538,10.2136364 13.4909091,10.2136364 C13.0691644,10.2136364 12.7272727,10.555528 12.7272727,10.9772727 L12.7272727,10.9772727 L12.7272727,10.9772727 Z" id="Shape"></path>
                    <path d="M6.36363636,13.7142191 C6.36363636,13.7842243 6.30698593,13.8409091 6.23628076,13.8409091 L16.1637192,13.8409091 C16.0935013,13.8409091 16.0363636,13.7837465 16.0363636,13.7142191 L16.0363636,21.0312355 C16.0363636,20.9612302 16.0930141,20.9045455 16.1637192,20.9045455 L6.23628076,20.9045455 C6.30649871,20.9045455 6.36363636,20.9617081 6.36363636,21.0312355 L6.36363636,13.7142191 L6.36363636,13.7142191 Z M4.83636364,13.7142191 L4.83636364,21.0312355 C4.83636364,21.805048 5.4628596,22.4318182 6.23628076,22.4318182 L16.1637192,22.4318182 C16.9367108,22.4318182 17.5636364,21.8045125 17.5636364,21.0312355 L17.5636364,13.7142191 C17.5636364,12.9404066 16.9371404,12.3136364 16.1637192,12.3136364 L6.23628076,12.3136364 C5.46328915,12.3136364 4.83636364,12.9409421 4.83636364,13.7142191 L4.83636364,13.7142191 L4.83636364,13.7142191 Z" id="Shape"></path>
                    <path d="M7.95454545,10.9772727 L7.95454545,15.1136364 C7.95454545,15.5353811 8.2964371,15.8772727 8.71818182,15.8772727 C9.13992654,15.8772727 9.48181818,15.5353811 9.48181818,15.1136364 L9.48181818,10.9772727 C9.48181818,10.555528 9.13992654,10.2136364 8.71818182,10.2136364 C8.2964371,10.2136364 7.95454545,10.555528 7.95454545,10.9772727 L7.95454545,10.9772727 L7.95454545,10.9772727 Z" id="Shape"></path>
                </g>
            </g>
        </g>
    </g>
</svg>