<?xml version="1.0" encoding="UTF-8" standalone="no"?>
<svg width="28px" height="28px" viewBox="0 0 28 28" version="1.1" xmlns="http://www.w3.org/2000/svg" xmlns:xlink="http://www.w3.org/1999/xlink" xmlns:sketch="http://www.bohemiancoding.com/sketch/ns">
    <!-- Generator: Sketch 3.3.3 (12081) - http://www.bohemiancoding.com/sketch -->
    <title>doc_powerpoint</title>
    <desc>Created with Sketch.</desc>
    <defs></defs>
    <g id="Page-1" stroke="none" stroke-width="1" fill="none" fill-rule="evenodd" sketch:type="MSPage">
        <g id="doc_powerpoint" sketch:type="MSArtboardGroup" fill="#000000">
            <g id="doc_ppt-copy-3" sketch:type="MSLayerGroup" transform="translate(3.000000, 0.000000)">
                <path d="M5.87618182,6.86509091 L8.21927273,6.86509091 C8.54594103,6.86509091 8.85033195,6.89478758 9.13245455,6.95418182 C9.41457714,7.01357605 9.65363541,7.11602958 9.84963636,7.26154545 C10.0456373,7.40706133 10.191151,7.60305935 10.2861818,7.84954545 C10.3812126,8.09603155 10.4020003,8.40636179 10.3485455,8.78054545 C10.2950907,9.14878975 10.1911523,9.45763509 10.0367273,9.70709091 C9.88230225,9.95654673 9.6907587,10.1555144 9.46209091,10.304 C9.23342312,10.4524856 8.97209237,10.5579088 8.67809091,10.6202727 C8.38408945,10.6826367 8.07078955,10.7138182 7.73818182,10.7138182 L6.72254545,10.7138182 L6.384,13.1727273 L4.99418182,13.1727273 L5.87618182,6.86509091 L5.87618182,6.86509091 Z M6.89181818,9.53781818 L7.81836364,9.53781818 C7.94309155,9.53781818 8.06484789,9.5259395 8.18363636,9.50218182 C8.30242484,9.47842414 8.4123025,9.43833361 8.51327273,9.38190909 C8.61424295,9.32548457 8.70036325,9.24827324 8.77163636,9.15027273 C8.84290947,9.05227222 8.88745448,8.92903105 8.90527273,8.78054545 C8.92903041,8.62018099 8.90972759,8.49100051 8.84736364,8.393 C8.78499968,8.29499949 8.69887932,8.21927298 8.589,8.16581818 C8.47912068,8.11236338 8.35439462,8.07821216 8.21481818,8.06336364 C8.07524175,8.04851505 7.94012189,8.04109091 7.80945455,8.04109091 L7.09672727,8.04109091 L6.89181818,9.53781818 L6.89181818,9.53781818 Z" id="P" sketch:type="MSShapeGroup"></path>
                <g id="Group-Copy-24" sketch:type="MSShapeGroup">
                    <path d="M2.34181818,7.71759609 L2.34181818,3.74363056 C2.34181818,2.96329113 2.98364741,2.32272727 3.75998127,2.32272727 L11.9910043,2.32272727 C12.3904957,2.32272727 13.0802063,2.61425431 13.3468646,2.89028253 L20.0028858,9.78018663 C20.2878093,10.075122 20.5672727,10.764163 20.5672727,11.173329 L20.5672727,24.2527549 C20.5672727,25.0398663 19.9327185,25.6772727 19.1557981,25.6772727 L3.75329275,25.6772727 C2.97643518,25.6772727 2.34181818,25.0415715 2.34181818,24.265918 L2.34181818,21.18301 L2.34181818,7.71759609 L2.34181818,7.71759609 Z M0.0509090909,7.71759609 L0.0509090909,21.18301 L0.0509090909,24.265918 C0.0509090909,26.3059311 1.71032482,27.9681818 3.75329275,27.9681818 L19.1557981,27.9681818 C21.2002583,27.9681818 22.8581818,26.3028062 22.8581818,24.2527549 L22.8581818,11.173329 C22.8581818,10.1692455 22.347377,8.90981223 21.6505269,8.18847591 L14.9945057,1.29857178 C14.2953464,0.574845041 13.0106236,0.0318181818 11.9910043,0.0318181818 L3.75998127,0.0318181818 C1.71942422,0.0318181818 0.0509090909,1.6970438 0.0509090909,3.74363056 L0.0509090909,7.71759609 L0.0509090909,7.71759609 Z" id="Shape"></path>
                    <path d="M4.77272727,21.4449607 C4.77272727,22.2187151 5.39909812,22.8454545 6.17244211,22.8454545 L16.4821033,22.8454545 C17.2552934,22.8454545 17.8818182,22.2182115 17.8818182,21.4449607 L17.8818182,16.9277665 C17.8818182,16.1540121 17.2554474,15.5272727 16.4821033,15.5272727 L6.17244211,15.5272727 C5.39925207,15.5272727 4.77272727,16.1545158 4.77272727,16.9277665 L4.77272727,21.4449607 L4.77272727,21.4449607 Z M16.3545455,17.0580877 L16.3558854,21.3181818 L6.29999999,21.3181818 L6.3,17.0574662 L16.3545455,17.0580877 L16.3545455,17.0580877 Z" id="Shape"></path>
                </g>
            </g>
        </g>
    </g>
</svg>