<?xml version="1.0" encoding="UTF-8" standalone="no"?>
<svg width="28px" height="28px" viewBox="0 0 28 28" version="1.1" xmlns="http://www.w3.org/2000/svg" xmlns:xlink="http://www.w3.org/1999/xlink" xmlns:sketch="http://www.bohemiancoding.com/sketch/ns">
    <!-- Generator: Sketch 3.3.3 (12081) - http://www.bohemiancoding.com/sketch -->
    <title>doc_zip</title>
    <desc>Created with Sketch.</desc>
    <defs></defs>
    <g id="Page-1" stroke="none" stroke-width="1" fill="none" fill-rule="evenodd" sketch:type="MSPage">
        <g id="doc_zip" sketch:type="MSArtboardGroup" fill="#000000">
            <g id="doc_zip-copy-2" sketch:type="MSLayerGroup" transform="translate(2.000000, 0.000000)">
                <path d="M2.31746032,7.75066578 L2.31746032,3.7857115 C2.31746032,3.00714155 2.95783415,2.36803022 3.73240762,2.36803022 L11.9447662,2.36803022 C12.3433517,2.36803022 13.0314983,2.6588962 13.2975519,2.9342985 L19.9384801,9.80857924 C20.2227576,10.1028458 20.5015873,10.7903244 20.5015873,11.1985626 L20.5015873,24.2483299 C20.5015873,25.0336564 19.868472,25.6696175 19.0933133,25.6696175 L3.72573426,25.6696175 C2.95063827,25.6696175 2.31746032,25.0353578 2.31746032,24.2614632 L2.31746032,21.1855458 L2.31746032,7.75066578 L2.31746032,7.75066578 Z M0.0317460317,7.75066578 L0.0317460317,21.1855458 L0.0317460317,24.2614632 C0.0317460317,26.2968504 1.68739891,27.9553318 3.72573426,27.9553318 L19.0933133,27.9553318 C21.1331375,27.9553318 22.7873016,26.2937326 22.7873016,24.2483299 L22.7873016,11.1985626 C22.7873016,10.1967559 22.277655,8.94017848 21.5823851,8.22047784 L14.941457,1.34619708 C14.243883,0.624111443 12.9620735,0.0823159365 11.9447662,0.0823159365 L3.73240762,0.0823159365 C1.69647768,0.0823159365 0.0317460317,1.74376554 0.0317460317,3.7857115 L0.0317460317,7.75066578 L0.0317460317,7.75066578 Z" id="Shape" sketch:type="MSShapeGroup"></path>
                <path d="M5.71428571,17.2063492 L6.98412698,17.2063492 C7.40491537,17.2063492 7.74603175,16.8652328 7.74603175,16.4444444 C7.74603175,16.0236561 7.40491537,15.6825397 6.98412698,15.6825397 L5.71428571,15.6825397 C5.29349733,15.6825397 4.95238095,16.0236561 4.95238095,16.4444444 C4.95238095,16.8652328 5.29349733,17.2063492 5.71428571,17.2063492 L5.71428571,17.2063492 L5.71428571,17.2063492 Z" id="Shape" sketch:type="MSShapeGroup"></path>
                <path d="M8.31746032,18.984127 L9.58730159,18.984127 C10.00809,18.984127 10.3492063,18.6430106 10.3492063,18.2222222 C10.3492063,17.8014338 10.00809,17.4603175 9.58730159,17.4603175 L8.31746032,17.4603175 C7.89667194,17.4603175 7.55555556,17.8014338 7.55555556,18.2222222 C7.55555556,18.6430106 7.89667194,18.984127 8.31746032,18.984127 L8.31746032,18.984127 L8.31746032,18.984127 Z" id="Shape" sketch:type="MSShapeGroup"></path>
                <path d="M5.71428571,20.7619048 L6.98412698,20.7619048 C7.40491537,20.7619048 7.74603175,20.4207884 7.74603175,20 C7.74603175,19.5792116 7.40491537,19.2380952 6.98412698,19.2380952 L5.71428571,19.2380952 C5.29349733,19.2380952 4.95238095,19.5792116 4.95238095,20 C4.95238095,20.4207884 5.29349733,20.7619048 5.71428571,20.7619048 L5.71428571,20.7619048 L5.71428571,20.7619048 Z" id="Shape" sketch:type="MSShapeGroup"></path>
                <path d="M8.31746032,22.5396825 L9.58730159,22.5396825 C10.00809,22.5396825 10.3492063,22.1985662 10.3492063,21.7777778 C10.3492063,21.3569894 10.00809,21.015873 9.58730159,21.015873 L8.31746032,21.015873 C7.89667194,21.015873 7.55555556,21.3569894 7.55555556,21.7777778 C7.55555556,22.1985662 7.89667194,22.5396825 8.31746032,22.5396825 L8.31746032,22.5396825 L8.31746032,22.5396825 Z" id="Shape" sketch:type="MSShapeGroup"></path>
                <path d="M5.71428571,24.3809524 L6.98412698,24.3809524 C7.40491537,24.3809524 7.74603175,24.039836 7.74603175,23.6190476 C7.74603175,23.1982592 7.40491537,22.8571429 6.98412698,22.8571429 L5.71428571,22.8571429 C5.29349733,22.8571429 4.95238095,23.1982592 4.95238095,23.6190476 C4.95238095,24.039836 5.29349733,24.3809524 5.71428571,24.3809524 L5.71428571,24.3809524 L5.71428571,24.3809524 Z" id="Shape" sketch:type="MSShapeGroup"></path>
                <path d="M8.31746032,26.1587302 L9.58730159,26.1587302 C10.00809,26.1587302 10.3492063,25.8176138 10.3492063,25.3968254 C10.3492063,24.976037 10.00809,24.6349206 9.58730159,24.6349206 L8.31746032,24.6349206 C7.89667194,24.6349206 7.55555556,24.976037 7.55555556,25.3968254 C7.55555556,25.8176138 7.89667194,26.1587302 8.31746032,26.1587302 L8.31746032,26.1587302 L8.31746032,26.1587302 Z" id="Shape" sketch:type="MSShapeGroup"></path>
                <path d="M6.92063492,8.50793651 L5.84129086,8.50793651 C5.42096819,8.50793651 5.07936508,8.84905911 5.07936508,9.26985517 L5.07936508,14.0952242 C5.07936508,14.515782 5.42049086,14.8571429 5.84129086,14.8571429 L9.52378851,14.8571429 C9.94411117,14.8571429 10.2857143,14.5160203 10.2857143,14.0952242 L10.2857143,9.26985517 C10.2857143,8.8492974 9.94458851,8.50793651 9.52378851,8.50793651 L8.44444444,8.50793651 L8.44444444,9.9047619 C8.44444444,10.3255503 8.10332806,10.6666667 7.68253968,10.6666667 C7.2617513,10.6666667 6.92063492,10.3255503 6.92063492,9.9047619 L6.92063492,8.50793651 L6.92063492,8.50793651 Z" id="Rectangle-257-Copy-2" sketch:type="MSShapeGroup"></path>
            </g>
        </g>
    </g>
</svg>