<?xml version="1.0" encoding="UTF-8" standalone="no"?>
<svg width="28px" height="28px" viewBox="0 0 28 28" version="1.1" xmlns="http://www.w3.org/2000/svg" xmlns:xlink="http://www.w3.org/1999/xlink" xmlns:sketch="http://www.bohemiancoding.com/sketch/ns">
    <!-- Generator: Sketch 3.3.3 (12081) - http://www.bohemiancoding.com/sketch -->
    <title>doc_spreadsheet</title>
    <desc>Created with Sketch.</desc>
    <defs></defs>
    <g id="Page-1" stroke="none" stroke-width="1" fill="none" fill-rule="evenodd" sketch:type="MSPage">
        <g id="doc_spreadsheet" sketch:type="MSArtboardGroup" fill="#000000">
            <g id="doc_spreadsheet-copy-2" sketch:type="MSLayerGroup" transform="translate(2.000000, 0.000000)">
                <g id="Group-Copy-7" sketch:type="MSShapeGroup">
                    <path d="M2.32272727,7.71759609 L2.32272727,3.74363056 C2.32272727,2.96329113 2.9645565,2.32272727 3.74089036,2.32272727 L11.9719134,2.32272727 C12.3714048,2.32272727 13.0611154,2.61425431 13.3277736,2.89028253 L19.9837949,9.78018663 C20.2687184,10.075122 20.5481818,10.764163 20.5481818,11.173329 L20.5481818,24.2527549 C20.5481818,25.0398663 19.9136276,25.6772727 19.1367072,25.6772727 L3.73420184,25.6772727 C2.95734427,25.6772727 2.32272727,25.0415715 2.32272727,24.265918 L2.32272727,21.18301 L2.32272727,7.71759609 L2.32272727,7.71759609 Z M0.0318181818,7.71759609 L0.0318181818,21.18301 L0.0318181818,24.265918 C0.0318181818,26.3059311 1.69123391,27.9681818 3.73420184,27.9681818 L19.1367072,27.9681818 C21.1811674,27.9681818 22.8390909,26.3028062 22.8390909,24.2527549 L22.8390909,11.173329 C22.8390909,10.1692455 22.3282861,8.90981223 21.631436,8.18847591 L14.9754148,1.29857178 C14.2762555,0.574845041 12.9915327,0.0318181818 11.9719134,0.0318181818 L3.74089036,0.0318181818 C1.70033331,0.0318181818 0.0318181818,1.6970438 0.0318181818,3.74363056 L0.0318181818,7.71759609 L0.0318181818,7.71759609 Z" id="Shape"></path>
                    <path d="M7.89090909,17.9454545 L7.89090909,20.8090909 L1.48798456,20.8090909 C1.06623985,20.8090909 0.724348195,21.1509826 0.724348195,21.5727273 C0.724348195,21.994472 1.06623985,22.3363636 1.48798456,22.3363636 L7.89090909,22.3363636 L7.89090909,26.7485731 C7.89090909,27.1703178 8.23280074,27.5122095 8.65454545,27.5122095 C9.07629017,27.5122095 9.41818182,27.1703178 9.41818182,26.7485731 L9.41818182,22.3363636 L20.9412217,22.3363636 C21.3629664,22.3363636 21.7048581,21.994472 21.7048581,21.5727273 C21.7048581,21.1509826 21.3629664,20.8090909 20.9412217,20.8090909 L9.41818182,20.8090909 L9.41818182,17.9454545 L20.9412217,17.9454545 C21.3629664,17.9454545 21.7048581,17.6035629 21.7048581,17.1818182 C21.7048581,16.7600735 21.3629664,16.4181818 20.9412217,16.4181818 L1.48798456,16.4181818 C1.06623985,16.4181818 0.724348195,16.7600735 0.724348195,17.1818182 C0.724348195,17.6035629 1.06623985,17.9454545 1.48798456,17.9454545 L7.89090909,17.9454545 L7.89090909,17.9454545 Z" id="Path"></path>
                </g>
            </g>
        </g>
    </g>
</svg>