<?xml version="1.0" encoding="UTF-8" standalone="no"?>
<svg width="28px" height="29px" viewBox="0 0 28 29" version="1.1" xmlns="http://www.w3.org/2000/svg" xmlns:xlink="http://www.w3.org/1999/xlink" xmlns:sketch="http://www.bohemiancoding.com/sketch/ns">
    <!-- Generator: Sketch 3.3.3 (12081) - http://www.bohemiancoding.com/sketch -->
    <title>doc_word</title>
    <desc>Created with Sketch.</desc>
    <defs></defs>
    <g id="Page-1" stroke="none" stroke-width="1" fill="none" fill-rule="evenodd" sketch:type="MSPage">
        <g id="doc_word" sketch:type="MSArtboardGroup" transform="translate(0.000000, 0.500000)" fill="#000000">
            <g id="doc_word-copy-4" sketch:type="MSLayerGroup" transform="translate(2.000000, 0.000000)">
                <g id="Group-Copy" sketch:type="MSShapeGroup">
                    <path d="M2.34181818,7.71759609 L2.34181818,3.74363056 C2.34181818,2.96329113 2.98364741,2.32272727 3.75998127,2.32272727 L11.9910043,2.32272727 C12.3904957,2.32272727 13.0802063,2.61425431 13.3468646,2.89028253 L20.0028858,9.78018663 C20.2878093,10.075122 20.5672727,10.764163 20.5672727,11.173329 L20.5672727,24.2527549 C20.5672727,25.0398663 19.9327185,25.6772727 19.1557981,25.6772727 L3.75329275,25.6772727 C2.97643518,25.6772727 2.34181818,25.0415715 2.34181818,24.265918 L2.34181818,21.18301 L2.34181818,7.71759609 L2.34181818,7.71759609 Z M0.0509090909,7.71759609 L0.0509090909,21.18301 L0.0509090909,24.265918 C0.0509090909,26.3059311 1.71032482,27.9681818 3.75329275,27.9681818 L19.1557981,27.9681818 C21.2002583,27.9681818 22.8581818,26.3028062 22.8581818,24.2527549 L22.8581818,11.173329 C22.8581818,10.1692455 22.347377,8.90981223 21.6505269,8.18847591 L14.9945057,1.29857178 C14.2953464,0.574845041 13.0106236,0.0318181818 11.9910043,0.0318181818 L3.75998127,0.0318181818 C1.71942422,0.0318181818 0.0509090909,1.6970438 0.0509090909,3.74363056 L0.0509090909,7.71759609 L0.0509090909,7.71759609 Z" id="Shape"></path>
                    <path d="M5.56818182,22.3363636 L17.0227273,22.3363636 C17.444472,22.3363636 17.7863636,21.994472 17.7863636,21.5727273 C17.7863636,21.1509826 17.444472,20.8090909 17.0227273,20.8090909 L5.56818182,20.8090909 C5.1464371,20.8090909 4.80454545,21.1509826 4.80454545,21.5727273 C4.80454545,21.994472 5.1464371,22.3363636 5.56818182,22.3363636 L5.56818182,22.3363636 L5.56818182,22.3363636 Z" id="Shape"></path>
                    <path d="M5.56818182,17.9454545 L17.0227273,17.9454545 C17.444472,17.9454545 17.7863636,17.6035629 17.7863636,17.1818182 C17.7863636,16.7600735 17.444472,16.4181818 17.0227273,16.4181818 L5.56818182,16.4181818 C5.1464371,16.4181818 4.80454545,16.7600735 4.80454545,17.1818182 C4.80454545,17.6035629 5.1464371,17.9454545 5.56818182,17.9454545 L5.56818182,17.9454545 L5.56818182,17.9454545 Z" id="Shape"></path>
                    <path d="M4.80963636,7.31054545 L6.32418182,7.31054545 L6.76072727,11.3552727 L6.77854545,11.3552727 L8.66727273,7.31054545 L9.95909091,7.31054545 L10.6896364,11.4621818 L10.7074545,11.4621818 L12.3467273,7.31054545 L13.7543636,7.31054545 L11.0281818,13.6181818 L9.78981818,13.6181818 L9.00581818,9.25272727 L8.988,9.25272727 L6.99236364,13.6181818 L5.79854545,13.6181818 L4.80963636,7.31054545 L4.80963636,7.31054545 Z" id="W"></path>
                </g>
            </g>
        </g>
    </g>
</svg>