<?xml version="1.0" encoding="UTF-8" standalone="no"?>
<svg width="28px" height="28px" viewBox="0 0 28 28" version="1.1" xmlns="http://www.w3.org/2000/svg" xmlns:xlink="http://www.w3.org/1999/xlink" xmlns:sketch="http://www.bohemiancoding.com/sketch/ns">
    <!-- Generator: Sketch 3.3.3 (12081) - http://www.bohemiancoding.com/sketch -->
    <title>doc_illustrator</title>
    <desc>Created with Sketch.</desc>
    <defs></defs>
    <g id="Page-1" stroke="none" stroke-width="1" fill="none" fill-rule="evenodd" sketch:type="MSPage">
        <g id="doc_illustrator" sketch:type="MSArtboardGroup" fill="#000000">
            <g id="doc_image-copy-13" sketch:type="MSLayerGroup" transform="translate(3.000000, 0.000000)">
                <g id="Group-Copy-14" transform="translate(0.031818, 0.031818)" sketch:type="MSShapeGroup">
                    <path d="M2.29090909,7.68577791 L2.29090909,3.71181238 C2.29090909,2.93147294 2.93273832,2.29090909 3.70907218,2.29090909 L11.9400952,2.29090909 C12.3395866,2.29090909 13.0292972,2.58243612 13.2959555,2.85846434 L19.9519767,9.74836845 C20.2369002,10.0433038 20.5163636,10.7323448 20.5163636,11.1415109 L20.5163636,24.2209367 C20.5163636,25.0080481 19.8818094,25.6454545 19.104889,25.6454545 L3.70238366,25.6454545 C2.92552609,25.6454545 2.29090909,25.0097534 2.29090909,24.2340998 L2.29090909,21.1511918 L2.29090909,7.68577791 L2.29090909,7.68577791 Z M0,7.68577791 L0,21.1511918 L0,24.2340998 C0,26.274113 1.65941573,27.9363636 3.70238366,27.9363636 L19.104889,27.9363636 C21.1493492,27.9363636 22.8072727,26.270988 22.8072727,24.2209367 L22.8072727,11.1415109 C22.8072727,10.1374273 22.2964679,8.87799405 21.5996178,8.15665773 L14.9435966,1.2667536 C14.2444373,0.543026859 12.9597145,0 11.9400952,0 L3.70907218,0 C1.66851513,0 0,1.66522562 0,3.71181238 L0,7.68577791 L0,7.68577791 Z" id="Shape"></path>
                    <path d="M1.67815859,23.1351527 L6.27194796,19.9267919 C6.25665965,19.9374694 6.24583373,19.9424723 6.23945449,19.9442905 C6.24191552,19.9435891 6.24794024,19.9427591 6.25511615,19.9427358 C6.26227154,19.9427125 6.26825901,19.9434978 6.27066604,19.9441674 C6.26418754,19.9423653 6.25324083,19.937388 6.23781668,19.9267506 L10.4746457,22.8487016 C11.0377711,23.237064 11.8190853,23.1188493 12.2421198,22.5816626 L16.6236703,17.017789 C16.4945035,17.1818103 16.1956568,17.1838943 16.0640196,17.0208761 L20.8831527,22.9888428 C21.1481124,23.3169663 21.6289012,23.3681706 21.9570247,23.1032109 C22.2851481,22.8382513 22.3363524,22.3574624 22.0713928,22.029339 L17.2522596,16.0613722 C16.7673859,15.4609095 15.9009603,15.4669514 15.4237893,16.0728828 L11.0422388,21.6367564 C11.1177724,21.5408409 11.2412772,21.5221543 11.3417287,21.5914312 L7.10489971,18.6694802 C6.61085632,18.3287606 5.88936058,18.3311109 5.39744895,18.6746683 L0.803659589,21.8830291 C0.457895206,22.1245154 0.373361066,22.600576 0.6148473,22.9463404 C0.856333533,23.2921048 1.33239422,23.376639 1.67815859,23.1351527 L1.67815859,23.1351527 L1.67815859,23.1351527 Z" id="Shape"></path>
                </g>
                <path d="M7.907,7.171 L9.1325,7.171 L12.0585,13.897 L10.3865,13.897 L9.807,12.472 L7.1945,12.472 L6.634,13.897 L5,13.897 L7.907,7.171 Z M8.477,9.128 L7.66,11.218 L9.3035,11.218 L8.477,9.128 Z M12.6715,9.28 L14.0965,9.28 L14.0965,13.897 L12.6715,13.897 L12.6715,9.28 Z M12.5575,7.8265 C12.5575,7.59849886 12.6382492,7.40375081 12.79975,7.24225 C12.9612508,7.08074919 13.1559989,7 13.384,7 C13.6120011,7 13.8067492,7.08074919 13.96825,7.24225 C14.1297508,7.40375081 14.2105,7.59849886 14.2105,7.8265 C14.2105,8.05450114 14.1297508,8.24924919 13.96825,8.41075 C13.8067492,8.57225081 13.6120011,8.653 13.384,8.653 C13.1559989,8.653 12.9612508,8.57225081 12.79975,8.41075 C12.6382492,8.24924919 12.5575,8.05450114 12.5575,7.8265 L12.5575,7.8265 Z" id="Ai-Copy-2" sketch:type="MSShapeGroup"></path>
            </g>
        </g>
    </g>
</svg>