<?xml version="1.0" encoding="UTF-8" standalone="no"?>
<svg width="28px" height="28px" viewBox="0 0 28 28" version="1.1" xmlns="http://www.w3.org/2000/svg" xmlns:xlink="http://www.w3.org/1999/xlink" xmlns:sketch="http://www.bohemiancoding.com/sketch/ns">
    <!-- Generator: Sketch 3.3.3 (12081) - http://www.bohemiancoding.com/sketch -->
    <title>doc_excel</title>
    <desc>Created with Sketch.</desc>
    <defs></defs>
    <g id="Page-1" stroke="none" stroke-width="1" fill="none" fill-rule="evenodd" sketch:type="MSPage">
        <g id="doc_excel" sketch:type="MSArtboardGroup" fill="#000000">
            <g id="doc_xls-copy-2" sketch:type="MSLayerGroup" transform="translate(2.000000, 0.000000)">
                <g id="Group-Copy-11" sketch:type="MSShapeGroup">
                    <path d="M2.32272727,7.71759609 L2.32272727,3.74363056 C2.32272727,2.96329113 2.9645565,2.32272727 3.74089036,2.32272727 L11.9719134,2.32272727 C12.3714048,2.32272727 13.0611154,2.61425431 13.3277736,2.89028253 L19.9837949,9.78018663 C20.2687184,10.075122 20.5481818,10.764163 20.5481818,11.173329 L20.5481818,24.2527549 C20.5481818,25.0398663 19.9136276,25.6772727 19.1367072,25.6772727 L3.73420184,25.6772727 C2.95734427,25.6772727 2.32272727,25.0415715 2.32272727,24.265918 L2.32272727,21.18301 L2.32272727,7.71759609 L2.32272727,7.71759609 Z M0.0318181818,7.71759609 L0.0318181818,21.18301 L0.0318181818,24.265918 C0.0318181818,26.3059311 1.69123391,27.9681818 3.73420184,27.9681818 L19.1367072,27.9681818 C21.1811674,27.9681818 22.8390909,26.3028062 22.8390909,24.2527549 L22.8390909,11.173329 C22.8390909,10.1692455 22.3282861,8.90981223 21.631436,8.18847591 L14.9754148,1.29857178 C14.2762555,0.574845041 12.9915327,0.0318181818 11.9719134,0.0318181818 L3.74089036,0.0318181818 C1.70033331,0.0318181818 0.0318181818,1.6970438 0.0318181818,3.74363056 L0.0318181818,7.71759609 L0.0318181818,7.71759609 Z" id="Shape"></path>
                    <path d="M7.89338421,20.9687145 L1.52974784,20.9687145 C1.10800312,20.9687145 0.766111478,21.3106061 0.766111478,21.7323508 C0.766111478,22.1540955 1.10800312,22.4959872 1.52974784,22.4959872 L7.89338421,22.4959872 L7.89090909,26.7485731 C7.89090909,27.1703178 8.23280074,27.5122095 8.65454545,27.5122095 C9.07629017,27.5122095 9.41818182,27.1703178 9.41818182,26.7485731 L9.42065693,22.4959872 L21.1297486,22.4959872 C21.5514933,22.4959872 21.893385,22.1540955 21.893385,21.7323508 C21.893385,21.3106061 21.5514933,20.9687145 21.1297486,20.9687145 L9.42065693,20.9687145 L9.4206573,18.2242692 L18.2692566,18.2242692 L21.0661126,18.2242692 C21.4878573,18.2242692 21.829749,17.8823775 21.829749,17.4606328 C21.829749,17.0388881 21.4878573,16.6969965 21.0661126,16.6969965 L1.7206573,16.6969965 C1.29891258,16.6969965 0.957020938,17.0388881 0.957020938,17.4606328 C0.957020938,17.8823775 1.29891258,18.2242692 1.7206573,18.2242692 L7.89338457,18.2242692 L7.89338421,20.9687145 Z" id="Shape"></path>
                    <path d="M6.64745455,9.62181818 L4.98145455,6.61054545 L6.72763636,6.61054545 L7.76109091,8.82 L9.36472727,6.61054545 L11.0485455,6.61054545 L8.58963636,9.59509091 L10.4070909,12.9181818 L8.66090909,12.9181818 L7.476,10.3790909 L5.62290909,12.9181818 L3.97472727,12.9181818 L6.64745455,9.62181818 L6.64745455,9.62181818 Z" id="X"></path>
                </g>
            </g>
        </g>
    </g>
</svg>