<?xml version="1.0" encoding="UTF-8" standalone="no"?>
<svg width="28px" height="29px" viewBox="0 0 28 29" version="1.1" xmlns="http://www.w3.org/2000/svg" xmlns:xlink="http://www.w3.org/1999/xlink" xmlns:sketch="http://www.bohemiancoding.com/sketch/ns">
    <!-- Generator: Sketch 3.3.3 (12081) - http://www.bohemiancoding.com/sketch -->
    <title>doc_photoshop</title>
    <desc>Created with Sketch.</desc>
    <defs></defs>
    <g id="Page-1" stroke="none" stroke-width="1" fill="none" fill-rule="evenodd" sketch:type="MSPage">
        <g id="doc_photoshop" sketch:type="MSArtboardGroup" transform="translate(0.000000, 0.500000)" fill="#000000">
            <g id="doc_image-copy-12" sketch:type="MSLayerGroup" transform="translate(2.000000, 0.000000)">
                <g id="Group-Copy-14" transform="translate(0.031818, 0.031818)" sketch:type="MSShapeGroup">
                    <path d="M2.29090909,7.68577791 L2.29090909,3.71181238 C2.29090909,2.93147294 2.93273832,2.29090909 3.70907218,2.29090909 L11.9400952,2.29090909 C12.3395866,2.29090909 13.0292972,2.58243612 13.2959555,2.85846434 L19.9519767,9.74836845 C20.2369002,10.0433038 20.5163636,10.7323448 20.5163636,11.1415109 L20.5163636,24.2209367 C20.5163636,25.0080481 19.8818094,25.6454545 19.104889,25.6454545 L3.70238366,25.6454545 C2.92552609,25.6454545 2.29090909,25.0097534 2.29090909,24.2340998 L2.29090909,21.1511918 L2.29090909,7.68577791 L2.29090909,7.68577791 Z M0,7.68577791 L0,21.1511918 L0,24.2340998 C0,26.274113 1.65941573,27.9363636 3.70238366,27.9363636 L19.104889,27.9363636 C21.1493492,27.9363636 22.8072727,26.270988 22.8072727,24.2209367 L22.8072727,11.1415109 C22.8072727,10.1374273 22.2964679,8.87799405 21.5996178,8.15665773 L14.9435966,1.2667536 C14.2444373,0.543026859 12.9597145,0 11.9400952,0 L3.70907218,0 C1.66851513,0 0,1.66522562 0,3.71181238 L0,7.68577791 L0,7.68577791 Z" id="Shape"></path>
                    <path d="M5,7 L7.4985,7 C7.84683507,7 8.17616512,7.03166635 8.4865,7.095 C8.79683488,7.15833365 9.06758218,7.26758256 9.29875,7.42275 C9.52991782,7.57791744 9.71358265,7.78691535 9.84975,8.04975 C9.98591735,8.31258465 10.054,8.643498 10.054,9.0425 C10.054,9.43516863 9.9906673,9.76449867 9.864,10.0305 C9.7373327,10.2965013 9.56316777,10.5086659 9.3415,10.667 C9.11983222,10.8253341 8.85700152,10.9377497 8.553,11.00425 C8.24899848,11.0707503 7.91966844,11.104 7.565,11.104 L6.482,11.104 L6.482,13.726 L5,13.726 L5,7 Z M6.482,9.85 L7.47,9.85 C7.60300066,9.85 7.73124938,9.83733346 7.85475,9.812 C7.97825062,9.78666654 8.08908284,9.74391697 8.18725,9.68375 C8.28541716,9.62358303 8.36458303,9.54125052 8.42475,9.43675 C8.48491697,9.33224948 8.515,9.20083413 8.515,9.0425 C8.515,8.87149914 8.47541706,8.73375052 8.39625,8.62925 C8.31708294,8.52474948 8.21575062,8.44400029 8.09225,8.387 C7.96874938,8.32999972 7.83100076,8.29358341 7.679,8.27775 C7.52699924,8.26191659 7.38133403,8.254 7.242,8.254 L6.482,8.254 L6.482,9.85 Z M13.917,10.4675 C13.707999,10.207832 13.4325017,10.078 13.0905,10.078 C12.9701661,10.078 12.8530006,10.1064997 12.739,10.1635 C12.6249994,10.2205003 12.568,10.318666 12.568,10.458 C12.568,10.5720006 12.6265827,10.6559164 12.74375,10.70975 C12.8609173,10.7635836 13.0097491,10.8110831 13.19025,10.85225 C13.3707509,10.8934169 13.5639156,10.9377498 13.76975,10.98525 C13.9755844,11.0327502 14.1687491,11.1071662 14.34925,11.2085 C14.5297509,11.3098338 14.6785827,11.4475825 14.79575,11.62175 C14.9129173,11.7959175 14.9715,12.0286652 14.9715,12.32 C14.9715,12.6176682 14.906584,12.8630824 14.77675,13.05625 C14.646916,13.2494176 14.4806677,13.4045827 14.278,13.52175 C14.0753323,13.6389173 13.8473346,13.7212498 13.594,13.76875 C13.3406654,13.8162502 13.0905012,13.84 12.8435,13.84 C12.5204984,13.84 12.194335,13.7940838 11.865,13.70225 C11.535665,13.6104162 11.2570011,13.4473345 11.029,13.213 L11.8935,12.2535 C12.0265007,12.4181675 12.1737492,12.5432496 12.33525,12.62875 C12.4967508,12.7142504 12.6851656,12.757 12.9005,12.757 C13.0651675,12.757 13.2139993,12.7332502 13.347,12.68575 C13.4800007,12.6382498 13.5465,12.5511673 13.5465,12.4245 C13.5465,12.3041661 13.4879173,12.213917 13.37075,12.15375 C13.2535827,12.093583 13.1047509,12.0429169 12.92425,12.00175 C12.7437491,11.9605831 12.5505844,11.9162502 12.34475,11.86875 C12.1389156,11.8212498 11.9457509,11.7500005 11.76525,11.655 C11.5847491,11.5599995 11.4359173,11.4254175 11.31875,11.25125 C11.2015827,11.0770825 11.143,10.8443348 11.143,10.553 C11.143,10.2806653 11.1984161,10.0463343 11.30925,9.85 C11.4200839,9.65366569 11.5657491,9.4921673 11.74625,9.3655 C11.9267509,9.2388327 12.1341655,9.14541697 12.3685,9.08525 C12.6028345,9.02508303 12.8403321,8.995 13.081,8.995 C13.3850015,8.995 13.6921651,9.03933289 14.0025,9.128 C14.3128349,9.21666711 14.5756656,9.37499886 14.791,9.603 L13.917,10.4675 Z" id="Ps-Copy-2"></path>
                    <path d="M1.67815859,23.1351527 L6.27194796,19.9267919 C6.25665965,19.9374694 6.24583373,19.9424723 6.23945449,19.9442905 C6.24191552,19.9435891 6.24794024,19.9427591 6.25511615,19.9427358 C6.26227154,19.9427125 6.26825901,19.9434978 6.27066604,19.9441674 C6.26418754,19.9423653 6.25324083,19.937388 6.23781668,19.9267506 L10.4746457,22.8487016 C11.0377711,23.237064 11.8190853,23.1188493 12.2421198,22.5816626 L16.6236703,17.017789 C16.4945035,17.1818103 16.1956568,17.1838943 16.0640196,17.0208761 L20.8831527,22.9888428 C21.1481124,23.3169663 21.6289012,23.3681706 21.9570247,23.1032109 C22.2851481,22.8382513 22.3363524,22.3574624 22.0713928,22.029339 L17.2522596,16.0613722 C16.7673859,15.4609095 15.9009603,15.4669514 15.4237893,16.0728828 L11.0422388,21.6367564 C11.1177724,21.5408409 11.2412772,21.5221543 11.3417287,21.5914312 L7.10489971,18.6694802 C6.61085632,18.3287606 5.88936058,18.3311109 5.39744895,18.6746683 L0.803659589,21.8830291 C0.457895206,22.1245154 0.373361066,22.600576 0.6148473,22.9463404 C0.856333533,23.2921048 1.33239422,23.376639 1.67815859,23.1351527 L1.67815859,23.1351527 L1.67815859,23.1351527 Z" id="Shape"></path>
                </g>
            </g>
        </g>
    </g>
</svg>