<?xml version="1.0" encoding="UTF-8" standalone="no"?>
<svg width="28px" height="28px" viewBox="0 0 28 28" version="1.1" xmlns="http://www.w3.org/2000/svg" xmlns:xlink="http://www.w3.org/1999/xlink" xmlns:sketch="http://www.bohemiancoding.com/sketch/ns">
    <!-- Generator: Sketch 3.3.3 (12081) - http://www.bohemiancoding.com/sketch -->
    <title>doc_slides</title>
    <desc>Created with Sketch.</desc>
    <defs></defs>
    <g id="Page-1" stroke="none" stroke-width="1" fill="none" fill-rule="evenodd" sketch:type="MSPage">
        <g id="doc_slides" sketch:type="MSArtboardGroup" fill="#000000">
            <g id="doc_slide-copy-2" sketch:type="MSLayerGroup" transform="translate(2.000000, 0.000000)">
                <g id="Group-Copy-23" sketch:type="MSShapeGroup">
                    <path d="M2.34181818,7.71759609 L2.34181818,3.74363056 C2.34181818,2.96329113 2.98364741,2.32272727 3.75998127,2.32272727 L11.9910043,2.32272727 C12.3904957,2.32272727 13.0802063,2.61425431 13.3468646,2.89028253 L20.0028858,9.78018663 C20.2878093,10.075122 20.5672727,10.764163 20.5672727,11.173329 L20.5672727,24.2527549 C20.5672727,25.0398663 19.9327185,25.6772727 19.1557981,25.6772727 L3.75329275,25.6772727 C2.97643518,25.6772727 2.34181818,25.0415715 2.34181818,24.265918 L2.34181818,21.18301 L2.34181818,7.71759609 L2.34181818,7.71759609 Z M0.0509090909,7.71759609 L0.0509090909,21.18301 L0.0509090909,24.265918 C0.0509090909,26.3059311 1.71032482,27.9681818 3.75329275,27.9681818 L19.1557981,27.9681818 C21.2002583,27.9681818 22.8581818,26.3028062 22.8581818,24.2527549 L22.8581818,11.173329 C22.8581818,10.1692455 22.347377,8.90981223 21.6505269,8.18847591 L14.9945057,1.29857178 C14.2953464,0.574845041 13.0106236,0.0318181818 11.9910043,0.0318181818 L3.75998127,0.0318181818 C1.71942422,0.0318181818 0.0509090909,1.6970438 0.0509090909,3.74363056 L0.0509090909,7.71759609 L0.0509090909,7.71759609 Z" id="Shape"></path>
                    <path d="M6.3,14.2550393 C6.3,14.3123993 6.24313349,14.3591529 6.17244211,14.3591529 L16.4821033,14.3591529 C16.4117567,14.3591529 16.3545455,14.3121421 16.3545455,14.2550393 L16.3545455,20.0550395 C16.3545455,19.9976794 16.411412,19.9509259 16.4821033,19.9509259 L6.17244211,19.9509259 C6.24278873,19.9509259 6.3,19.9979366 6.3,20.0550395 L6.3,14.2550393 L6.3,14.2550393 Z M4.77272727,14.2550393 L4.77272727,21.317688 C4.77272727,22.0914424 5.39909812,22.7181818 6.17244211,22.7181818 L16.4821033,22.7181818 C17.2552934,22.7181818 17.8818182,22.0909387 17.8818182,21.317688 L17.8818182,14.2550393 C17.8818182,13.4812849 17.2554474,12.8545455 16.4821033,12.8545455 L6.17244211,12.8545455 C5.39925207,12.8545455 4.77272727,13.4817885 4.77272727,14.2550393 L4.77272727,14.2550393 L4.77272727,14.2550393 Z" id="Shape"></path>
                </g>
            </g>
        </g>
    </g>
</svg>