<?xml version="1.0" encoding="UTF-8" standalone="no"?>
<svg width="28px" height="29px" viewBox="0 0 28 29" version="1.1" xmlns="http://www.w3.org/2000/svg" xmlns:xlink="http://www.w3.org/1999/xlink" xmlns:sketch="http://www.bohemiancoding.com/sketch/ns">
    <!-- Generator: Sketch 3.3.3 (12081) - http://www.bohemiancoding.com/sketch -->
    <title>doc_audio</title>
    <desc>Created with Sketch.</desc>
    <defs></defs>
    <g id="Page-1" stroke="none" stroke-width="1" fill="none" fill-rule="evenodd" sketch:type="MSPage">
        <g id="doc_audio" sketch:type="MSArtboardGroup" transform="translate(0.000000, 0.500000)" fill="#000000">
            <g id="doc_audio-copy-2" sketch:type="MSLayerGroup" transform="translate(2.000000, 0.000000)">
                <path d="M2.32272727,7.71759609 L2.32272727,3.74363056 C2.32272727,2.96329113 2.96455651,2.32272727 3.74089036,2.32272727 L11.9719134,2.32272727 C12.3714048,2.32272727 13.0611154,2.61425431 13.3277736,2.89028253 L19.9837949,9.78018663 C20.2687184,10.075122 20.5481818,10.764163 20.5481818,11.173329 L20.5481818,24.2527549 C20.5481818,25.0398663 19.9136276,25.6772727 19.1367072,25.6772727 L3.73420186,25.6772727 C2.95734428,25.6772727 2.32272727,25.0415715 2.32272727,24.265918 L2.32272727,21.18301 L2.32272727,7.71759609 L2.32272727,7.71759609 Z M0.0318181818,7.71759609 L0.0318181818,21.18301 L0.0318181818,24.265918 C0.0318181818,26.3059311 1.69123392,27.9681818 3.73420186,27.9681818 L19.1367072,27.9681818 C21.1811674,27.9681818 22.8390909,26.3028062 22.8390909,24.2527549 L22.8390909,11.173329 C22.8390909,10.1692455 22.3282861,8.90981223 21.631436,8.18847591 L14.9754148,1.29857178 C14.2762555,0.57484504 12.9915327,0.0318181818 11.9719134,0.0318181818 L3.74089036,0.0318181818 C1.70033328,0.0318181818 0.0318181818,1.6970438 0.0318181818,3.74363056 L0.0318181818,7.71759609 L0.0318181818,7.71759609 Z" id="Shape" sketch:type="MSShapeGroup"></path>
                <path d="M15.2727273,22.3408182 L15.2727273,11.7090904 C15.2727273,11.2873457 14.9308356,10.945454 14.5090909,10.945454 C14.0873462,10.945454 13.7454545,11.2873457 13.7454545,11.7090904 L13.7454545,22.3408182 C13.7454545,22.7625629 14.0873462,23.1044545 14.5090909,23.1044545 C14.9308356,23.1044545 15.2727273,22.7625629 15.2727273,22.3408182 L15.2727273,22.3408182 L15.2727273,22.3408182 Z" id="Shape" sketch:type="MSShapeGroup"></path>
                <path d="M11.9636364,20.0136364 L11.9636364,14.0273636 C11.9636364,13.6056189 11.6217447,13.2637273 11.2,13.2637273 C10.7782553,13.2637273 10.4363636,13.6056189 10.4363636,14.0273636 L10.4363636,20.0136364 C10.4363636,20.4353811 10.7782553,20.7772727 11.2,20.7772727 C11.6217447,20.7772727 11.9636364,20.4353811 11.9636364,20.0136364 L11.9636364,20.0136364 L11.9636364,20.0136364 Z" id="Shape" sketch:type="MSShapeGroup"></path>
                <path d="M5.34545455,18.9954545 L5.34545455,15.0498716 C5.34545455,14.6281269 5.0035629,14.2862352 4.58181818,14.2862352 C4.16007346,14.2862352 3.81818182,14.6281269 3.81818182,15.0498716 L3.81818182,18.9954545 C3.81818182,19.4171993 4.16007346,19.7590909 4.58181818,19.7590909 C5.0035629,19.7590909 5.34545455,19.4171993 5.34545455,18.9954545 L5.34545455,18.9954545 L5.34545455,18.9954545 Z" id="Shape" sketch:type="MSShapeGroup"></path>
                <path d="M8.65454545,18.109 L8.65454545,15.8817273 C8.65454545,15.4599826 8.31265381,15.1180909 7.89090909,15.1180909 C7.46916437,15.1180909 7.12727273,15.4599826 7.12727273,15.8817273 L7.12727273,18.109 C7.12727273,18.5307447 7.46916437,18.8726364 7.89090909,18.8726364 C8.31265381,18.8726364 8.65454545,18.5307447 8.65454545,18.109 L8.65454545,18.109 L8.65454545,18.109 Z" id="Shape" sketch:type="MSShapeGroup"></path>
                <path d="M18.5818182,19.6954545 L18.5818182,14.3455455 C18.5818182,13.9238007 18.2399265,13.5819091 17.8181818,13.5819091 C17.3964371,13.5819091 17.0545455,13.9238007 17.0545455,14.3455455 L17.0545455,19.6954545 C17.0545455,20.1171993 17.3964371,20.4590909 17.8181818,20.4590909 C18.2399265,20.4590909 18.5818182,20.1171993 18.5818182,19.6954545 L18.5818182,19.6954545 L18.5818182,19.6954545 Z" id="Shape" sketch:type="MSShapeGroup"></path>
            </g>
        </g>
    </g>
</svg>