<?xml version="1.0" encoding="UTF-8" standalone="no"?>
<svg width="28px" height="29px" viewBox="0 0 28 29" version="1.1" xmlns="http://www.w3.org/2000/svg" xmlns:xlink="http://www.w3.org/1999/xlink" xmlns:sketch="http://www.bohemiancoding.com/sketch/ns">
    <!-- Generator: Sketch 3.3.3 (12081) - http://www.bohemiancoding.com/sketch -->
    <title>doc_code</title>
    <desc>Created with Sketch.</desc>
    <defs></defs>
    <g id="Page-1" stroke="none" stroke-width="1" fill="none" fill-rule="evenodd" sketch:type="MSPage">
        <g id="doc_code" sketch:type="MSArtboardGroup" transform="translate(0.000000, 0.500000)" fill="#000000">
            <g id="doc_code-copy-2" sketch:type="MSLayerGroup" transform="translate(2.000000, 0.000000)">
                <path d="M2.29612756,7.70328538 L2.29612756,3.72026753 C2.29612756,2.93815056 2.93941882,2.29612756 3.71752109,2.29612756 L11.9672936,2.29612756 C12.367695,2.29612756 13.0589767,2.58831867 13.3262424,2.86497565 L19.9974254,9.7705743 C20.2829979,10.0661815 20.5630979,10.7567921 20.5630979,11.1668902 L20.5630979,24.2761097 C20.5630979,25.065014 19.9270983,25.7038724 19.1484082,25.7038724 L3.71081736,25.7038724 C2.93219017,25.7038724 2.29612756,25.0667232 2.29612756,24.2893028 L2.29612756,21.1993722 L2.29612756,7.70328538 L2.29612756,7.70328538 Z M0,7.70328538 L0,21.1993722 L0,24.2893028 C0,26.3339629 1.66319573,28 3.71081736,28 L19.1484082,28 C21.1975254,28 22.8592255,26.3308308 22.8592255,24.2761097 L22.8592255,11.1668902 C22.8592255,10.1605194 22.3472571,8.89821727 21.6488197,8.17523781 L14.9776367,1.26963914 C14.2768848,0.544263821 12.9892355,0 11.9672936,0 L3.71752109,0 C1.67231582,0 0,1.66901885 0,3.72026753 L0,7.70328538 L0,7.70328538 Z" id="Shape" sketch:type="MSShapeGroup"></path>
                <path d="M8.52504162,13.4292635 C8.64978864,13.3046864 8.85194851,13.3049633 8.97635372,13.4298817 L9.8096475,14.2666133 C9.93381066,14.3912886 9.93353436,14.5929695 9.80903016,14.7173043 L7.94380053,16.5823904 L9.80903016,18.4450805 C9.93353436,18.5694152 9.93381066,18.7710961 9.8096475,18.8957714 L8.97635372,19.732503 C8.85194851,19.8574214 8.64978864,19.8576984 8.52504162,19.7331212 L5.59477778,16.806847 C5.4700321,16.6822712 5.4700321,16.4801136 5.59477778,16.3555378 L8.52504162,13.4292635 L8.52504162,13.4292635 Z M13.7202831,19.7331212 C13.5955361,19.8576984 13.3933762,19.8574214 13.268971,19.732503 L12.4356772,18.8957714 C12.3115141,18.7710961 12.3117904,18.5694152 12.4362946,18.4450805 L14.305695,16.5841594 L12.4362946,14.7173043 C12.3117904,14.5929695 12.3115141,14.3912886 12.4356772,14.2666133 L13.268971,13.4298817 C13.3933762,13.3049633 13.5955361,13.3046864 13.7202831,13.4292635 L16.650547,16.3555378 C16.7752926,16.4801136 16.7752926,16.6822712 16.650547,16.806847 L13.7202831,19.7331212 L13.7202831,19.7331212 Z" id="Shape" sketch:type="MSShapeGroup"></path>
            </g>
        </g>
    </g>
</svg>