<?xml version="1.0" encoding="UTF-8" standalone="no"?>
<svg width="28px" height="28px" viewBox="0 0 28 28" version="1.1" xmlns="http://www.w3.org/2000/svg" xmlns:xlink="http://www.w3.org/1999/xlink" xmlns:sketch="http://www.bohemiancoding.com/sketch/ns">
    <!-- Generator: Sketch 3.3.3 (12081) - http://www.bohemiancoding.com/sketch -->
    <title>doc_indesign</title>
    <desc>Created with Sketch.</desc>
    <defs></defs>
    <g id="Page-1" stroke="none" stroke-width="1" fill="none" fill-rule="evenodd" sketch:type="MSPage">
        <g id="doc_indesign" sketch:type="MSArtboardGroup" fill="#000000">
            <g id="doc_pdf-copy-9" sketch:type="MSLayerGroup" transform="translate(2.000000, 0.000000)">
                <g id="Group" sketch:type="MSShapeGroup">
                    <path d="M2.32272727,7.71759609 L2.32272727,3.74363056 C2.32272727,2.96329113 2.9645565,2.32272727 3.74089036,2.32272727 L11.9719134,2.32272727 C12.3714048,2.32272727 13.0611154,2.61425431 13.3277736,2.89028253 L19.9837949,9.78018663 C20.2687184,10.075122 20.5481818,10.764163 20.5481818,11.173329 L20.5481818,24.2527549 C20.5481818,25.0398663 19.9136276,25.6772727 19.1367072,25.6772727 L3.73420184,25.6772727 C2.95734427,25.6772727 2.32272727,25.0415715 2.32272727,24.265918 L2.32272727,21.18301 L2.32272727,7.71759609 L2.32272727,7.71759609 Z M0.0318181818,7.71759609 L0.0318181818,21.18301 L0.0318181818,24.265918 C0.0318181818,26.3059311 1.69123391,27.9681818 3.73420184,27.9681818 L19.1367072,27.9681818 C21.1811674,27.9681818 22.8390909,26.3028062 22.8390909,24.2527549 L22.8390909,11.173329 C22.8390909,10.1692455 22.3282861,8.90981223 21.631436,8.18847591 L14.9754148,1.29857178 C14.2762555,0.574845041 12.9915327,0.0318181818 11.9719134,0.0318181818 L3.74089036,0.0318181818 C1.70033331,0.0318181818 0.0318181818,1.6970438 0.0318181818,3.74363056 L0.0318181818,7.71759609 L0.0318181818,7.71759609 Z" id="Shape"></path>
                    <path d="M5.6,22.3363636 L10.6909091,22.3363636 C11.1126538,22.3363636 11.4545455,21.994472 11.4545455,21.5727273 C11.4545455,21.1509826 11.1126538,20.8090909 10.6909091,20.8090909 L5.6,20.8090909 C5.17825528,20.8090909 4.83636364,21.1509826 4.83636364,21.5727273 C4.83636364,21.994472 5.17825528,22.3363636 5.6,22.3363636 L5.6,22.3363636 Z M5.60020978,18.2721208 L10.6925174,18.2721208 C11.114378,18.2721208 11.4563635,17.9302291 11.4563635,17.5084844 C11.4563635,17.0867397 11.114378,16.744848 10.6925174,16.744848 L5.60020978,16.744848 C5.1783492,16.744848 4.83636364,17.0867397 4.83636364,17.5084844 C4.83636364,17.9302291 5.1783492,18.2721208 5.60020978,18.2721208 L5.60020978,18.2721208 Z M13.9675707,16.2272727 L17.0233384,16.2272727 C17.4447456,16.2272727 17.7863636,16.5694094 17.7863636,16.990923 L17.7863636,21.8272588 C17.7863636,22.2490112 17.4438564,22.5909091 17.0233384,22.5909091 L13.9675707,22.5909091 C13.5461635,22.5909091 13.2045455,22.2487724 13.2045455,21.8272588 L13.2045455,16.990923 C13.2045455,16.5691706 13.5470527,16.2272727 13.9675707,16.2272727 L13.9675707,16.2272727 Z" id="Shape"></path>
                    <path d="M5,6.456 L6.482,6.456 L6.482,13.182 L5,13.182 L5,6.456 Z M13.0232778,13.182 L11.7122778,13.182 L11.7122778,12.574 L11.6932778,12.574 C11.6362775,12.6563337 11.5618616,12.7402496 11.4700278,12.82575 C11.378194,12.9112504 11.2705284,12.988833 11.1470278,13.0585 C11.0235272,13.128167 10.8873619,13.1851664 10.7385278,13.2295 C10.5896937,13.2738336 10.4361119,13.296 10.2777778,13.296 C9.93577608,13.296 9.62544585,13.2374173 9.34677779,13.12025 C9.06810973,13.0030827 8.82902879,12.8384177 8.62952779,12.62625 C8.43002679,12.4140823 8.276445,12.1623348 8.16877779,11.871 C8.06111059,11.5796652 8.00727779,11.2598351 8.00727779,10.9115 C8.00727779,10.5884984 8.05636063,10.2797515 8.15452779,9.98525 C8.25269495,9.69074853 8.39202689,9.42950114 8.57252779,9.2015 C8.75302869,8.97349886 8.97310983,8.79141735 9.23277779,8.65525 C9.49244576,8.51908265 9.78694281,8.451 10.1162778,8.451 C10.4139459,8.451 10.6910265,8.49691621 10.9475278,8.58875 C11.2040291,8.68058379 11.4146103,8.83733223 11.5792778,9.059 L11.5982778,9.059 L11.5982778,6 L13.0232778,6 L13.0232778,13.182 Z M11.7122778,10.8735 C11.7122778,10.5251649 11.6125288,10.2433344 11.4130278,10.028 C11.2135268,9.81266559 10.9332796,9.705 10.5722778,9.705 C10.211276,9.705 9.93102879,9.81266559 9.73152779,10.028 C9.53202679,10.2433344 9.43227779,10.5251649 9.43227779,10.8735 C9.43227779,11.2218351 9.53202679,11.5036656 9.73152779,11.719 C9.93102879,11.9343344 10.211276,12.042 10.5722778,12.042 C10.9332796,12.042 11.2135268,11.9343344 11.4130278,11.719 C11.6125288,11.5036656 11.7122778,11.2218351 11.7122778,10.8735 L11.7122778,10.8735 Z" id="Id-Copy-3"></path>
                </g>
            </g>
        </g>
    </g>
</svg>