<?xml version="1.0" encoding="UTF-8" standalone="no"?>
<svg width="28px" height="29px" viewBox="0 0 28 29" version="1.1" xmlns="http://www.w3.org/2000/svg" xmlns:xlink="http://www.w3.org/1999/xlink" xmlns:sketch="http://www.bohemiancoding.com/sketch/ns">
    <!-- Generator: Sketch 3.3.3 (12081) - http://www.bohemiancoding.com/sketch -->
    <title>doc_video</title>
    <desc>Created with Sketch.</desc>
    <defs></defs>
    <g id="Page-1" stroke="none" stroke-width="1" fill="none" fill-rule="evenodd" sketch:type="MSPage">
        <g id="doc_video" sketch:type="MSArtboardGroup" transform="translate(0.000000, 0.500000)" fill="#000000">
            <g id="doc_video-copy-3" sketch:type="MSLayerGroup" transform="translate(2.000000, 0.000000)">
                <g id="Group-Copy-19" sketch:type="MSShapeGroup">
                    <path d="M2.32272727,7.71759609 L2.32272727,3.74363056 C2.32272727,2.96329113 2.9645565,2.32272727 3.74089036,2.32272727 L11.9719134,2.32272727 C12.3714048,2.32272727 13.0611154,2.61425431 13.3277736,2.89028253 L19.9837949,9.78018663 C20.2687184,10.075122 20.5481818,10.764163 20.5481818,11.173329 L20.5481818,24.2527549 C20.5481818,25.0398663 19.9136276,25.6772727 19.1367072,25.6772727 L3.73420184,25.6772727 C2.95734427,25.6772727 2.32272727,25.0415715 2.32272727,24.265918 L2.32272727,21.18301 L2.32272727,7.71759609 L2.32272727,7.71759609 Z M0.0318181818,7.71759609 L0.0318181818,21.18301 L0.0318181818,24.265918 C0.0318181818,26.3059311 1.69123391,27.9681818 3.73420184,27.9681818 L19.1367072,27.9681818 C21.1811674,27.9681818 22.8390909,26.3028062 22.8390909,24.2527549 L22.8390909,11.173329 C22.8390909,10.1692455 22.3282861,8.90981223 21.631436,8.18847591 L14.9754148,1.29857178 C14.2762555,0.574845041 12.9915327,0.0318181818 11.9719134,0.0318181818 L3.74089036,0.0318181818 C1.70033331,0.0318181818 0.0318181818,1.6970438 0.0318181818,3.74363056 L0.0318181818,7.71759609 L0.0318181818,7.71759609 Z" id="Shape"></path>
                    <path d="M7.32912212,20.2662363 C7.32912212,21.6290707 8.51558839,22.2869418 9.66850856,21.5599412 L15.0346222,18.1820364 C16.1586055,17.4777704 16.1586055,16.1178699 15.0332746,15.4127575 L9.66941812,12.0198744 C8.51432069,11.2888001 7.32912212,11.9475633 7.32912212,13.3089051 L7.32912212,20.2662363 L7.32912212,20.2662363 Z M8.85639485,20.2662363 L8.85639485,13.3089051 C8.85639485,13.2275889 8.8667544,13.1742234 8.87780918,13.1502273 C8.87634205,13.1534119 8.8714486,13.1610047 8.86236814,13.1712185 C8.84765134,13.1877721 8.82803702,13.2035971 8.80505755,13.2163697 C8.78188564,13.2292492 8.75770993,13.2376747 8.7353616,13.2414906 C8.72119392,13.2439096 8.71140639,13.2440413 8.70722135,13.243499 C8.7327023,13.2468008 8.7832885,13.2664986 8.85280569,13.3104968 L14.2195906,16.705224 C14.2898748,16.7492711 14.3311085,16.7885148 14.3502301,16.8181957 C14.3531961,16.8227996 14.3538245,16.8241368 14.3533281,16.8225212 C14.3513225,16.8159953 14.35,16.8072897 14.35,16.7978201 C14.35,16.7883507 14.3513225,16.779645 14.3533281,16.7731191 C14.3538245,16.7715036 14.3531961,16.7728407 14.3502301,16.7774446 C14.3311085,16.8071254 14.2898748,16.8463692 14.2223497,16.8886793 L8.85438642,20.2677466 C8.78544125,20.3112213 8.73549587,20.3305518 8.71018457,20.3337897 C8.71415936,20.3332812 8.72364602,20.3334191 8.73745963,20.3357834 C8.75936454,20.3395325 8.78310593,20.3477969 8.80590811,20.3604403 C8.82860542,20.3730255 8.84801998,20.388642 8.86261015,20.4049987 C8.87164065,20.4151225 8.87651545,20.4226604 8.87796948,20.4258058 C8.86683089,20.4017104 8.85639485,20.3481165 8.85639485,20.2662363 L8.85639485,20.2662363 L8.85639485,20.2662363 Z" id="Shape"></path>
                </g>
            </g>
        </g>
    </g>
</svg>