<?xml version="1.0" encoding="UTF-8" standalone="no"?>
<svg width="28px" height="28px" viewBox="0 0 28 28" version="1.1" xmlns="http://www.w3.org/2000/svg" xmlns:xlink="http://www.w3.org/1999/xlink" xmlns:sketch="http://www.bohemiancoding.com/sketch/ns">
    <!-- Generator: Sketch 3.3.3 (12081) - http://www.bohemiancoding.com/sketch -->
    <title>doc_pdf</title>
    <desc>Created with Sketch.</desc>
    <defs></defs>
    <g id="Page-1" stroke="none" stroke-width="1" fill="none" fill-rule="evenodd" sketch:type="MSPage">
        <g id="doc_pdf" sketch:type="MSArtboardGroup" fill="#000000">
            <g id="doc_pdf-copy-8" sketch:type="MSLayerGroup" transform="translate(2.000000, 0.000000)">
                <g id="Group" sketch:type="MSShapeGroup">
                    <path d="M2.32272727,7.71759609 L2.32272727,3.74363056 C2.32272727,2.96329113 2.9645565,2.32272727 3.74089036,2.32272727 L11.9719134,2.32272727 C12.3714048,2.32272727 13.0611154,2.61425431 13.3277736,2.89028253 L19.9837949,9.78018663 C20.2687184,10.075122 20.5481818,10.764163 20.5481818,11.173329 L20.5481818,24.2527549 C20.5481818,25.0398663 19.9136276,25.6772727 19.1367072,25.6772727 L3.73420184,25.6772727 C2.95734427,25.6772727 2.32272727,25.0415715 2.32272727,24.265918 L2.32272727,21.18301 L2.32272727,7.71759609 L2.32272727,7.71759609 Z M0.0318181818,7.71759609 L0.0318181818,21.18301 L0.0318181818,24.265918 C0.0318181818,26.3059311 1.69123391,27.9681818 3.73420184,27.9681818 L19.1367072,27.9681818 C21.1811674,27.9681818 22.8390909,26.3028062 22.8390909,24.2527549 L22.8390909,11.173329 C22.8390909,10.1692455 22.3282861,8.90981223 21.631436,8.18847591 L14.9754148,1.29857178 C14.2762555,0.574845041 12.9915327,0.0318181818 11.9719134,0.0318181818 L3.74089036,0.0318181818 C1.70033331,0.0318181818 0.0318181818,1.6970438 0.0318181818,3.74363056 L0.0318181818,7.71759609 L0.0318181818,7.71759609 Z" id="Shape"></path>
                    <path d="M5.6,22.3363636 L10.6909091,22.3363636 C11.1126538,22.3363636 11.4545455,21.994472 11.4545455,21.5727273 C11.4545455,21.1509826 11.1126538,20.8090909 10.6909091,20.8090909 L5.6,20.8090909 C5.17825528,20.8090909 4.83636364,21.1509826 4.83636364,21.5727273 C4.83636364,21.994472 5.17825528,22.3363636 5.6,22.3363636 L5.6,22.3363636 Z M5.6,17.9454545 L10.6909091,17.9454545 C11.1126538,17.9454545 11.4545455,17.6035629 11.4545455,17.1818182 C11.4545455,16.7600735 11.1126538,16.4181818 10.6909091,16.4181818 L5.6,16.4181818 C5.17825528,16.4181818 4.83636364,16.7600735 4.83636364,17.1818182 C4.83636364,17.6035629 5.17825528,17.9454545 5.6,17.9454545 L5.6,17.9454545 Z M13.9675707,16.2272727 L17.0233384,16.2272727 C17.4447456,16.2272727 17.7863636,16.5694094 17.7863636,16.990923 L17.7863636,21.8272588 C17.7863636,22.2490112 17.4438564,22.5909091 17.0233384,22.5909091 L13.9675707,22.5909091 C13.5461635,22.5909091 13.2045455,22.2487724 13.2045455,21.8272588 L13.2045455,16.990923 C13.2045455,16.5691706 13.5470527,16.2272727 13.9675707,16.2272727 L13.9675707,16.2272727 Z" id="Shape"></path>
                </g>
            </g>
        </g>
    </g>
</svg>