<?xml version="1.0" encoding="UTF-8" standalone="no"?>
<svg width="512px" height="512px" viewBox="0 0 512 512" version="1.1" xmlns="http://www.w3.org/2000/svg" xmlns:xlink="http://www.w3.org/1999/xlink" xmlns:sketch="http://www.bohemiancoding.com/sketch/ns">
    <!-- Generator: Sketch 3.3.3 (12081) - http://www.bohemiancoding.com/sketch -->
    <title>download</title>
    <desc>Created with Sketch.</desc>
    <defs></defs>
    <g id="Page-2" stroke="none" stroke-width="1" fill="none" fill-rule="evenodd" sketch:type="MSPage">
        <g id="download" sketch:type="MSArtboardGroup" fill="#000000">
            <g id="switch_role-copy-7" sketch:type="MSLayerGroup" transform="translate(255.840909, 250.159091) rotate(-270.000000) translate(-255.840909, -250.159091) translate(27.840909, -3.840909)">
                <path d="M445.250311,507.107554 C450.82009,507.107554 455.117436,502.781469 455.117436,497.444973 L455.117436,10.4353075 C455.117436,5.15002105 450.699774,0.772727273 445.250311,0.772727273 L413.632493,0.772727273 L306.018043,0.772727273 C300.781281,0.772727273 296.272727,5.29696668 296.272727,10.8778988 L296.272727,51.8629306 C296.272727,57.5670817 300.635854,61.9681021 306.018043,61.9681021 L395.363636,61.9681021 L395.363636,445.931958 L306.018043,445.931958 C300.781281,445.931958 296.272727,450.456198 296.272727,456.03713 L296.272727,497.022162 C296.272727,502.726313 300.635854,507.127333 306.018043,507.127333 L422.034224,507.127333 C422.235124,507.127333 422.434951,507.120675 422.633493,507.107554 L445.250311,507.107554 Z M177.880642,176.853645 C172.912928,171.75382 172.915403,163.460068 177.840911,158.375747 L195.058462,140.603054 C200.004234,135.497818 208.053272,135.506414 212.996753,140.581457 L320.810473,251.264443 C324.526804,255.079677 324.516693,261.275918 320.810473,265.080952 L212.996753,375.769123 C208.03548,380.86267 199.983971,380.832278 195.058462,375.747958 L177.840911,357.975266 C172.895141,352.870029 172.920622,344.589022 177.879296,339.498143 L224.443318,291.692666 C226.937004,289.132495 226.059392,287.057066 222.506037,287.057066 L10.8773795,287.057061 C5.29734453,287.057061 0.773832418,282.482687 0.773832418,276.902707 L0.773832418,238.915612 C0.773832418,233.307517 5.39501333,228.763242 10.8555386,228.765587 L222.026716,228.856255 C225.621763,228.856255 226.517271,226.783713 224.052656,224.253553 L177.880642,176.853645 Z" id="Rectangle-762" sketch:type="MSShapeGroup"></path>
            </g>
        </g>
    </g>
</svg>