<?xml version="1.0" encoding="utf-8"?>
<!-- Generator: Adobe Illustrator 17.1.0, SVG Export Plug-In . SVG Version: 6.00 Build 0)  -->
<!DOCTYPE svg PUBLIC "-//W3C//DTD SVG 1.1//EN" "http://www.w3.org/Graphics/SVG/1.1/DTD/svg11.dtd">
<svg version="1.1" id="Layer_1" xmlns="http://www.w3.org/2000/svg" xmlns:xlink="http://www.w3.org/1999/xlink" x="0px" y="0px"
	 viewBox="0 0 512 512" enable-background="new 0 0 512 512" xml:space="preserve">
<g id="Welcome_14_">
	<g id="Desktop-HD-10_4_" transform="translate(-277.000000, -291.000000)">
		<g id="Group_4_" transform="translate(252.000000, 373.000000)">
			<g id="Path-654-_x2B_-Path-653-_x2B_-Path-655_1_" transform="translate(125.000000, 18.000000)">
				<path id="Path-654_1_" d="M232.1-48l132,127.8l34.8-35c12.3-12.3,12-32.4-0.3-44.4l-91.4-89.6c-12.4-12.2-31.7-11.1-42.7,2.2
					L232.1-48z M209-24.7L-39.6,229.2c-12.2,12.5-25.2,36.6-28.8,53.4L-96,409.6l128-23.7c17.1-3.2,40.9-15.5,53.3-27.7l255.9-252.2
					L209-24.7z M-39.1,350.8l17.4-92.9c0,0,30.8,29.5,18.4,57.5c30.6-7,60.6,22.4,60.6,22.4L-39.1,350.8z"/>
			</g>
		</g>
	</g>
</g>
</svg>
