<?xml version="1.0" encoding="UTF-8" standalone="no"?>
<svg width="48px" height="48px" viewBox="0 0 48 48" version="1.1" xmlns="http://www.w3.org/2000/svg" xmlns:xlink="http://www.w3.org/1999/xlink" xmlns:sketch="http://www.bohemiancoding.com/sketch/ns">
    <!-- Generator: Sketch 3.4.1 (15681) - http://www.bohemiancoding.com/sketch -->
    <title>Imported Layers</title>
    <desc>Created with Sketch.</desc>
    <defs></defs>
    <g id="Page-1" stroke="none" stroke-width="1" fill="none" fill-rule="evenodd" sketch:type="MSPage">
        <g id="1-Overview" sketch:type="MSArtboardGroup" transform="translate(-813.000000, -785.000000)" fill="#000000">
            <g id="Rectangle-1-Copy-4-+-Design-+-18,954-Tutorials-+-Line-Copy-3-+-Imported-Layers" sketch:type="MSLayerGroup" transform="translate(721.000000, 710.000000)">
                <g id="Imported-Layers" transform="translate(92.000000, 75.000000)" sketch:type="MSShapeGroup">
                    <path d="M5.907,39.246 L5.907,22.23 L3.186,20.532 L3.186,39.216 C1.347,39.783 0,41.475 0,43.5 C0,45.984 2.016,48 4.5,48 C6.984,48 9,45.984 9,43.5 C9,41.511 7.698,39.84 5.907,39.246" id="Fill-1"></path>
                    <path d="M24,33.54 L22.413,32.544 L9.798,24.873 L8.661,24.165 L8.661,32.46 C8.661,35.46 15.714,41.46 24,41.46 C32.286,41.46 38.661,34.944 38.661,32.46 L38.661,24.162 L25.593,32.544 L24,33.54" id="Fill-2"></path>
                    <path d="M20.454,13.125 L23.454,15 L11.73,22.329 L24,30 L48,15 L24,0 L0,15 L8.73,20.454 L20.454,13.125" id="Fill-3"></path>
                </g>
            </g>
        </g>
    </g>
</svg>