<?xml version="1.0" encoding="UTF-8" standalone="no"?>
<svg width="40px" height="40px" viewBox="0 0 40 40" version="1.1" xmlns="http://www.w3.org/2000/svg" xmlns:xlink="http://www.w3.org/1999/xlink" xmlns:sketch="http://www.bohemiancoding.com/sketch/ns">
    <!-- Generator: Sketch 3.4.1 (15681) - http://www.bohemiancoding.com/sketch -->
    <title>icon-video</title>
    <desc>Created with Sketch.</desc>
    <defs></defs>
    <g id="Page-1" stroke="none" stroke-width="1" fill="none" fill-rule="evenodd" sketch:type="MSPage">
        <g id="1-Overview" sketch:type="MSArtboardGroup" transform="translate(-564.000000, -1008.000000)" fill="#000000">
            <g id="Rectangle-1-Copy-6-+-Design-+-18,954-Tutorials-+-Line-Copy-5-+-icon-video" sketch:type="MSLayerGroup" transform="translate(468.000000, 930.000000)">
                <path d="M133.5,78 L98.5,78 C98.5,78 96,78 96,80.5 L96,115.5 C96,115.5 96,118 98.5,118 L133.5,118 C133.5,118 136,118 136,115.5 L136,80.5 C136,80.5 136,78 133.5,78 L133.5,78 Z M99.75,110.5 L103.5,110.5 L103.5,115.5 L99.75,115.5 L99.75,110.5 Z M99.75,103 L103.5,103 L103.5,108 L99.75,108 L99.75,103 Z M99.75,95.5 L103.5,95.5 L103.5,100.5 L99.75,100.5 L99.75,95.5 Z M99.75,88 L103.5,88 L103.5,93 L99.75,93 L99.75,88 Z M99.75,80.5 L103.5,80.5 L103.5,85.5 L99.75,85.5 L99.75,80.5 Z M106,100.5 L126,100.5 L126,115.5 L106,115.5 L106,100.5 Z M106,80.5 L126,80.5 L126,95.5 L106,95.5 L106,80.5 Z M128.5,110.5 L132.25,110.5 L132.25,115.5 L128.5,115.5 L128.5,110.5 Z M128.5,103 L132.25,103 L132.25,108 L128.5,108 L128.5,103 Z M128.5,95.5 L132.25,95.5 L132.25,100.5 L128.5,100.5 L128.5,95.5 Z M128.5,88 L132.25,88 L132.25,93 L128.5,93 L128.5,88 Z M128.5,80.5 L132.25,80.5 L132.25,85.5 L128.5,85.5 L128.5,80.5 Z" id="icon-video" sketch:type="MSShapeGroup"></path>
            </g>
        </g>
    </g>
</svg>