<?xml version="1.0" encoding="UTF-8" standalone="no"?>
<svg width="512px" height="512px" viewBox="0 0 512 512" version="1.1" xmlns="http://www.w3.org/2000/svg" xmlns:xlink="http://www.w3.org/1999/xlink" xmlns:sketch="http://www.bohemiancoding.com/sketch/ns">
    <!-- Generator: Sketch 3.4.4 (17249) - http://www.bohemiancoding.com/sketch -->
    <title>finetune</title>
    <desc>Created with Sketch.</desc>
    <defs></defs>
    <g id="Exports" stroke="none" stroke-width="1" fill="none" fill-rule="evenodd" sketch:type="MSPage">
        <g id="finetune" sketch:type="MSArtboardGroup" fill="#000000">
            <path d="M379.638306,18.3986328 C379.638306,8.1462518 371.39608,0 361.22878,0 L348.608113,0 C338.362552,0 330.198587,8.23734853 330.198587,18.3986328 L330.198587,99.6080883 C301.395197,109.781286 280.75887,137.231153 280.75887,169.497419 C280.75887,201.763683 301.395197,229.213551 330.198587,239.386749 L330.198587,493.510458 C330.198587,503.762839 338.440813,511.909091 348.608113,511.909091 L361.22878,511.909091 C371.474341,511.909091 379.638306,503.671743 379.638306,493.510458 L379.638306,239.386749 C408.441696,229.213551 429.078023,201.763683 429.078023,169.497419 C429.078023,137.231153 408.441696,109.781286 379.638306,99.6080883 L379.638306,18.3986328 L379.638306,18.3986328 Z M181.879435,18.3986328 C181.879435,8.1462518 173.63721,0 163.469909,0 L150.849244,0 C140.603681,0 132.439718,8.23734853 132.439718,18.3986328 L132.439718,272.522342 C103.636327,282.69554 83,310.145408 83,342.411672 C83,374.677938 103.636327,402.127805 132.439718,412.301003 L132.439718,493.510458 C132.439718,503.762839 140.681943,511.909091 150.849244,511.909091 L163.469909,511.909091 C173.715471,511.909091 181.879435,503.671743 181.879435,493.510458 L181.879435,412.301003 C210.682826,402.127805 231.319152,374.677938 231.319152,342.411672 C231.319152,310.145408 210.682826,282.69554 181.879435,272.522342 L181.879435,18.3986328 L181.879435,18.3986328 Z M157.159576,379.464727 C177.638178,379.464727 194.239364,362.87551 194.239364,342.411672 C194.239364,321.947836 177.638178,305.358618 157.159576,305.358618 C136.680975,305.358618 120.079788,321.947836 120.079788,342.411672 C120.079788,362.87551 136.680975,379.464727 157.159576,379.464727 L157.159576,379.464727 L157.159576,379.464727 Z M354.918446,206.550473 C375.397048,206.550473 391.998235,189.961255 391.998235,169.497419 C391.998235,149.033581 375.397048,132.444364 354.918446,132.444364 C334.439845,132.444364 317.838658,149.033581 317.838658,169.497419 C317.838658,189.961255 334.439845,206.550473 354.918446,206.550473 L354.918446,206.550473 L354.918446,206.550473 Z" id="Rectangle-5-Copy-5" sketch:type="MSShapeGroup" transform="translate(256.039011, 255.954545) rotate(-270.000000) translate(-256.039011, -255.954545) "></path>
        </g>
    </g>
</svg>