<?xml version="1.0" encoding="UTF-8" standalone="no"?>
<svg width="512px" height="512px" viewBox="0 0 512 512" version="1.1" xmlns="http://www.w3.org/2000/svg" xmlns:xlink="http://www.w3.org/1999/xlink" xmlns:sketch="http://www.bohemiancoding.com/sketch/ns">
    <!-- Generator: Sketch 3.3.2 (12043) - http://www.bohemiancoding.com/sketch -->
    <title>gear</title>
    <desc>Created with Sketch.</desc>
    <defs></defs>
    <g id="Exports" stroke="none" stroke-width="1" fill="none" fill-rule="evenodd" sketch:type="MSPage">
        <g id="gear" sketch:type="MSArtboardGroup" fill="#000000">
            <path d="M431.103226,207.904397 C427.14375,193.316055 421.349395,179.500605 414.106452,166.747882 C422.797984,155.637555 451.866331,115.543768 431.296371,95.0621218 L420.673387,83.8551835 C403.097177,66.2718838 357.804637,91.8739411 346.215927,98.8299718 C333.178629,91.3908834 319.079032,85.6908027 304.303427,81.7297297 C301.889113,67.0447761 291.555847,17 262.584073,17 L250.995363,17 C226.079637,17 211.786895,68.8803953 208.503427,82.1161759 C193.920968,86.1738604 180.014516,91.9705526 167.170363,99.3130294 C156.450806,91.680718 112.896573,63.1803146 91.9403226,84.1450182 L80.7379032,93.5163372 C62.5822581,111.775918 93.1957661,158.729125 99.3764113,167.810609 C92.3266129,180.46672 85.85625,194.088947 81.9933468,208.387455 C69.5354839,210.416297 17,220.463897 17,250.316862 L17,261.910246 C17,287.608915 71.5635081,302.100645 82.2830645,304.709157 C86.2425403,318.911053 92.3266129,332.53328 99.4729839,345.092779 C93.2923387,355.236991 65.6725806,403.639371 83.7316532,421.609117 L94.4512097,430.400766 C118.497782,454.360428 167.653226,413.976805 167.653226,413.976805 L165.818347,411.947963 C179.04879,419.676886 193.24496,426.632916 208.310282,430.883824 C211.014315,441.800928 225.403629,496 251.091935,496 L262.680645,496 C296.577621,496 305.076008,431.753328 305.076008,431.753328 L302.854839,431.27027 C318.016734,427.309197 332.406048,421.22267 345.636492,413.783582 C356.356048,420.932836 398.558266,447.211174 416.134476,429.627874 L427.916331,417.744655 C450.804032,394.847721 417.196774,349.440299 414.106452,345.479225 C421.445968,332.629891 427.14375,318.71783 431.199798,304.226099 C444.816532,300.844695 496,286.546188 496,261.813635 L496,250.22025 C495.903427,217.758774 436.704435,208.677289 431.103226,207.904397 L431.103226,207.904397 L431.103226,207.904397 Z M255.823992,338.23336 C211.014315,338.23336 174.703024,300.748084 174.703024,255.920331 C174.703024,211.092578 211.014315,174.76664 255.823992,174.76664 C300.633669,174.76664 338.683266,211.092578 338.683266,255.920331 C338.683266,300.748084 300.633669,338.23336 255.823992,338.23336 L255.823992,338.23336 L255.823992,338.23336 Z" id="Imported-Layers" sketch:type="MSShapeGroup"></path>
        </g>
    </g>
</svg>