<?xml version="1.0" encoding="utf-8"?>
<!-- Generator: Adobe Illustrator 18.0.0, SVG Export Plug-In . SVG Version: 6.00 Build 0)  -->
<!DOCTYPE svg PUBLIC "-//W3C//DTD SVG 1.1//EN" "http://www.w3.org/Graphics/SVG/1.1/DTD/svg11.dtd">
<svg version="1.1" id="Layer_1" xmlns="http://www.w3.org/2000/svg" xmlns:xlink="http://www.w3.org/1999/xlink" x="0px" y="0px"
	 viewBox="0 0 512 512" enable-background="new 0 0 512 512" xml:space="preserve">
<g id="book_3_">
	<path d="M0.3,60v328.5l252.1,62.1c1.3,0.3,2.5,0.5,3.7,0.5c1.2,0,2.5-0.1,3.7-0.5l252.6-62.1V60l-256.2,59.9L0.3,60z M31,98.8
		l209.6,49.1v268.2L31,364.4L31,98.8z M481.5,364.4l-210.1,51.7V147.8l210.1-49.1V364.4z"/>
	<path d="M67.8,182.7L197,211.9c1.2,0.2,2.3,0.4,3.4,0.4c7.1,0,13.4-4.8,15-12c1.9-8.3-3.3-16.5-11.6-18.4L74.6,152.7
		c-8.4-1.9-16.5,3.3-18.4,11.6C54.3,172.6,59.5,180.8,67.8,182.7z"/>
	<path d="M203.9,248.4L74.7,219.2c-8.4-1.9-16.6,3.3-18.4,11.6c-1.9,8.3,3.3,16.5,11.6,18.4l129.2,29.2c1.2,0.2,2.3,0.3,3.4,0.3
		c7,0,13.4-4.8,15-12C217.4,258.6,212.2,250.3,203.9,248.4z"/>
	<path d="M203.8,313.1L74.6,283.9c-8.4-1.8-16.5,3.4-18.4,11.6c-1.9,8.3,3.3,16.5,11.6,18.4L197,343.1c1.2,0.3,2.3,0.4,3.4,0.4
		c7.1,0,13.4-4.8,15-12C217.3,323.2,212.1,315,203.8,313.1z"/>
	<path d="M320.5,213.2c1.1,0,2.3-0.1,3.4-0.4l129.2-29.2c8.3-1.9,13.5-10.1,11.6-18.4c-1.9-8.3-10-13.5-18.4-11.6l-129.2,29.2
		c-8.3,1.9-13.5,10.1-11.6,18.4C307.1,208.4,313.4,213.2,320.5,213.2z"/>
	<path d="M320.4,279.8c1.1,0,2.3-0.1,3.4-0.4L453,250.2c8.3-1.9,13.5-10.1,11.6-18.4c-1.8-8.3-10.1-13.5-18.4-11.6L317,249.4
		c-8.3,1.9-13.5,10.1-11.6,18.4C307,274.9,313.4,279.8,320.4,279.8z"/>
	<path d="M446.3,284.8l-129.2,29.3c-8.3,1.8-13.5,10.1-11.6,18.4c1.6,7.1,8,12,15,12c1.1,0,2.3-0.1,3.4-0.4l129.2-29.2
		c8.3-1.8,13.5-10.1,11.6-18.4C462.8,288.1,454.6,282.9,446.3,284.8z"/>
</g>
</svg>
