<?xml version="1.0" encoding="utf-8"?>
<!-- Generator: Adobe Illustrator 17.1.0, SVG Export Plug-In . SVG Version: 6.00 Build 0)  -->
<!DOCTYPE svg PUBLIC "-//W3C//DTD SVG 1.1//EN" "http://www.w3.org/Graphics/SVG/1.1/DTD/svg11.dtd">
<svg version="1.1" id="Layer_1" xmlns="http://www.w3.org/2000/svg" xmlns:xlink="http://www.w3.org/1999/xlink" x="0px" y="0px"
	 width="512px" height="512px" viewBox="0 0 512 512" enable-background="new 0 0 512 512" xml:space="preserve">
<g>
	<path d="M511.4,260.4c-6.1-27.6-23-51.7-46.1-67.1c2.6-6.7,3.6-13.8,3.6-21c0-35.3-28.7-64.5-64.5-64.5
		c-35.3,0-64.5,28.7-64.5,64.5c0,3.1,0.5,6.1,0.5,9.2c-6.1-20-18.4-36.9-35.3-48.1c2-5.6,3.1-11.3,3.1-17.4
		c0-28.7-23.5-52.2-52.2-52.2s-52.2,23.5-52.2,52.2c0,6.1,1,11.8,3.1,17.4c-15.4,10.2-27.6,25.6-34.3,43.5c0-1.5,0-3.1,0-5.1
		c0-35.3-28.7-64.5-64.5-64.5c-35.3,0-64.5,28.7-64.5,64.5c0,7.2,1,14.3,3.6,21c-23,15.4-39.9,39.4-46.1,67.1c-0.5,3.6-1,6.1-1,9.2
		c0,24.1,19.5,43,43.5,43H172c-22,21-39.4,44-46.1,73.2c-1,4.1-1.5,9.7-1.5,13.8c0,29.2,23.5,49.1,52.7,49.1h156.1
		c29.2,0,52.7-20,52.7-48.6c0-3.6-0.5-8.7-1.5-12.8c-6.1-28.7-24.1-52.7-45.6-73.7h129.1c24.1,0,43.5-18.9,43.5-43
		C512.4,266.4,512,263.9,511.4,260.4z M468.9,292.1H339.9c-10.2,0-18.9-9.7-18.9-20.5c0-1.5,0-3.6,0.5-5.1
		c6.7-29.7,29.2-54.3,57.8-63c-9.2-7.2-14.8-18.9-14.8-31.2c0-22,17.9-39.9,39.9-39.9s39.9,17.9,39.9,39.9
		c0,12.8-5.6,23.5-14.8,31.2c29.2,8.7,51.2,32.8,57.8,63c0.5,1.5,0.5,4.6,0.5,6.1C487.9,281.9,479.2,292.1,468.9,292.1z
		 M338.3,422.7H173.3c-13.3,0-24.1-9.2-24.1-22.5c0-2,0.5-3.1,0.5-5.1c8.7-38.4,36.9-68.6,74.2-79.9c-11.8-9.2-18.9-23.5-18.9-39.4
		c0-28.2,22.5-50.7,50.7-50.7s50.7,23,50.7,51.2c0,15.9-7.7,30.7-18.9,39.9c36.9,11.3,65.5,42,74.2,80.4c0.5,2,0.5,2.6,0.5,4.6
		C362.3,413,351.6,422.7,338.3,422.7z M24.8,271.7c0-1.5,0-3.6,0.5-5.1c6.7-29.7,29.2-54.3,57.8-63c-9.2-7.2-14.8-18.9-14.8-31.2
		c0-22,17.9-39.9,39.9-39.9s39.9,17.9,39.9,39.9c0,12.8-5.6,23.5-14.8,31.2c29.2,8.7,51.2,32.8,57.8,63c0.5,1.5,0.5,4.6,0.5,6.1
		c0,10.2-8.7,20.5-18.9,20.5H43.7C33.5,292.1,24.8,281.9,24.8,271.7z M235.9,141c-7.2-6.1-12.3-14.8-12.3-25.1
		c0-17.9,14.3-32.3,32.3-32.3c17.9,0,32.3,14.3,32.3,32.3c0,10.2-4.6,19.5-12.3,25.1c23.5,7.2,41.5,26.6,47.1,50.7
		c0.5,1,0.5,3.6,0.5,5.1c0,8.2-6.7,16.4-15.4,16.4H203.7c-8.2,0-15.4-8.2-15.4-16.4c0-1,0-3.1,0.5-4.1
		C194.3,168.7,212.4,148.3,235.9,141z"/>
</g>
</svg>
