<?xml version="1.0" encoding="utf-8"?>
<!-- Generator: Adobe Illustrator 17.1.0, SVG Export Plug-In . SVG Version: 6.00 Build 0)  -->
<!DOCTYPE svg PUBLIC "-//W3C//DTD SVG 1.1//EN" "http://www.w3.org/Graphics/SVG/1.1/DTD/svg11.dtd">
<svg version="1.1" id="Layer_1" xmlns="http://www.w3.org/2000/svg" xmlns:xlink="http://www.w3.org/1999/xlink" x="0px" y="0px"
	 width="512px" height="512px" viewBox="0 0 512 512" enable-background="new 0 0 512 512" xml:space="preserve">
<g>
	<path d="M296.1,377.3H165V364c2.8-0.2,7-0.6,12.5-1c5.5-0.5,9.2-1.1,11.3-2.1c4.2-1.7,7.1-4,8.7-6.8c1.6-2.8,2.4-6.3,2.4-10.7
		v-83.6H96.2v81.7c0,3.9,0.8,7.4,2.5,10.4c1.7,3.1,4.5,5.5,8.5,7.2c2.2,0.9,5.9,1.9,11.1,2.9c5.2,1,9.5,1.7,12.8,1.9v13.3H0V364
		c2.8-0.1,7-0.5,12.6-1.1c5.5-0.6,9.6-1.4,12.1-2.3c4.1-1.5,7-3.7,8.5-6.8c1.6-3,2.4-6.6,2.4-10.7V171.5c0-4-0.7-7.4-2.1-10.1
		c-1.4-2.7-4.3-5.1-8.8-7.2c-3.3-1.5-7.6-2.8-13-4C6.3,149,2.4,148.3,0,148v-13.3h131.1V148c-3.5,0.2-7.7,0.8-12.7,1.7
		s-8.7,1.8-11.3,2.6c-4.4,1.5-7.4,3.8-8.8,7.1c-1.4,3.2-2.1,6.7-2.1,10.3v72.5h103.6v-70.8c0-4-0.7-7.4-2.2-10.1
		c-1.5-2.7-4.4-5.1-8.9-7.2c-3-1.4-6.9-2.6-11.9-3.9c-5-1.2-8.9-2-11.9-2.3v-13.3h131.1V148c-3.6,0.2-7.7,0.7-12.3,1.5
		c-4.6,0.7-8.7,1.7-12.3,2.8c-4.3,1.5-7.2,3.8-8.7,7c-1.5,3.2-2.2,6.7-2.2,10.4v171.8c0,4.1,0.7,7.6,2.2,10.4
		c1.5,2.8,4.4,5.2,8.7,7.2c2.7,1.1,6.7,2.2,11.9,3.1c5.2,0.9,9.4,1.5,12.7,1.7V377.3z"/>
	<path d="M512,377.3H326.7v-30.9c8.1-8.2,17-15.7,26.6-22.5c9.6-6.8,19.4-12.8,29.4-18c10.6-5.6,19.5-10.6,26.7-15
		c7.2-4.4,12.8-9,17-13.8c4.1-4.4,7-9.3,8.8-14.5s2.7-11.1,2.7-17.6c0-14.5-3.4-25-10.3-31.6s-15.9-9.9-27.3-9.9
		c-3.6,0-6.9,0.2-10,0.8c-3.2,0.5-6.4,1.4-9.9,2.8c1.7,5.1,3.4,10.4,5,15.9c1.6,5.5,2.4,11.6,2.4,18.3c0,8.1-2.9,14.5-8.7,19.3
		c-5.8,4.8-13.2,7.2-22.2,7.2c-8.5,0-15.4-2.8-20.4-8.4c-5.1-5.6-7.6-12.4-7.6-20.3c0-13.9,8.1-25.9,24.3-36.1
		c16.2-10.1,35.9-15.2,59.1-15.2c26.9,0,48.6,4.6,65.2,13.8s24.9,24.1,24.9,44.6c0,10.6-2.2,19.1-6.6,25.6
		c-4.4,6.5-10.8,12.2-19.4,17.1c-7.6,4.4-16.1,8.1-25.4,10.9c-9.3,2.8-19.2,5.6-29.8,8.2c-11.3,2.8-21.1,5.9-29.5,9.1
		c-8.4,3.2-15.8,7-22.3,11.5v1.9H512V377.3z"/>
</g>
</svg>
