<?xml version="1.0" encoding="utf-8"?>
<!-- Generator: Adobe Illustrator 17.1.0, SVG Export Plug-In . SVG Version: 6.00 Build 0)  -->
<!DOCTYPE svg PUBLIC "-//W3C//DTD SVG 1.1//EN" "http://www.w3.org/Graphics/SVG/1.1/DTD/svg11.dtd">
<svg version="1.1" id="Layer_1" xmlns="http://www.w3.org/2000/svg" xmlns:xlink="http://www.w3.org/1999/xlink" x="0px" y="0px"
	 width="512px" height="512px" viewBox="0 0 512 512" enable-background="new 0 0 512 512" xml:space="preserve">
<g>
	<path d="M322.8,388.1H179.8v-14.5c3.1-0.2,7.7-0.6,13.6-1.1c6-0.5,10.1-1.2,12.3-2.2c4.6-1.9,7.8-4.3,9.5-7.4
		c1.7-3.1,2.6-6.9,2.6-11.6v-91.2H105.1v89.1c0,4.2,0.9,8,2.7,11.4c1.8,3.4,4.9,5.9,9.2,7.8c2.3,1,6.4,2.1,12.1,3.2
		c5.7,1.1,10.4,1.8,14,2v14.5H0.1v-14.5c3.1-0.1,7.7-0.5,13.7-1.2s10.4-1.5,13.1-2.5c4.5-1.6,7.6-4.1,9.3-7.4s2.6-7.2,2.6-11.6
		V163.8c0-4.4-0.8-8-2.3-11c-1.5-3-4.7-5.6-9.6-7.8c-3.6-1.6-8.3-3.1-14.2-4.4c-5.8-1.3-10.1-2.1-12.7-2.3v-14.5h142.9v14.5
		c-3.9,0.2-8.5,0.9-13.8,1.9c-5.3,1-9.4,1.9-12.3,2.8c-4.9,1.6-8.1,4.2-9.6,7.7c-1.5,3.6-2.3,7.3-2.3,11.3v79h112.9v-77.2
		c0-4.4-0.8-8-2.4-11c-1.6-3-4.8-5.6-9.7-7.8c-3.2-1.5-7.5-2.9-13-4.2c-5.4-1.3-9.7-2.1-12.9-2.5v-14.5h142.9v14.5
		c-4,0.2-8.5,0.8-13.4,1.6c-5,0.8-9.4,1.8-13.4,3.1c-4.7,1.6-7.9,4.2-9.5,7.6c-1.6,3.5-2.4,7.3-2.4,11.4v187.2
		c0,4.5,0.8,8.3,2.4,11.4c1.6,3.1,4.8,5.7,9.5,7.8c3,1.2,7.3,2.4,13,3.4c5.6,1,10.3,1.6,13.9,1.9L322.8,388.1L322.8,388.1z"/>
	<path d="M511.9,388.1H358.3V374c3.7-0.2,9.7-0.9,17.8-1.9c8.1-1,13.7-2,16.7-3c3.7-1.2,6.7-3.3,8.8-6.3c2.1-3,3.2-7.1,3.2-12.3
		V232.4h-47.1v-17.7h10.2c10.8,0,20.2-1.2,28-3.5c7.9-2.4,14.5-5.2,19.7-8.6c5.3-3.5,9.7-7.1,13.1-10.8c3.4-3.7,6.1-7,8.1-9.9h32.8
		c-0.4,8.1-0.7,17.5-1.1,28.3s-0.6,20.5-0.6,29.1v109.2c0,4.5,1,8.4,2.9,11.6c1.9,3.3,4.7,5.8,8.3,7.5c3.2,1.5,8.6,2.9,16.2,4.1
		c7.6,1.2,13.2,2,16.8,2.2L511.9,388.1L511.9,388.1z"/>
</g>
</svg>
