<?xml version="1.0" encoding="utf-8"?>
<!-- Generator: Adobe Illustrator 18.0.0, SVG Export Plug-In . SVG Version: 6.00 Build 0)  -->
<!DOCTYPE svg PUBLIC "-//W3C//DTD SVG 1.1//EN" "http://www.w3.org/Graphics/SVG/1.1/DTD/svg11.dtd">
<svg version="1.1" id="Layer_1" xmlns="http://www.w3.org/2000/svg" xmlns:xlink="http://www.w3.org/1999/xlink" x="0px" y="0px"
	 viewBox="0 0 512 512" enable-background="new 0 0 512 512" xml:space="preserve">
<g>
	<path fill="#010101" d="M203.6,311.9c0-13.8,1.8-25.5,5.5-35.2c3.7-9.7,9.9-18.6,18.6-26.9c12.9-12.4,24.7-23.2,35.5-32.4
		c10.8-9.2,20.1-17.8,27.9-25.8c7.8-8,13.9-15.6,18.3-22.8c4.4-7.1,6.5-14.6,6.5-22.4c0-15.2-4.7-27-14.1-35.5
		c-9.4-8.5-25.2-14.7-39.5-14.7c-21.6,0-35,6.4-46.3,18.3c-9.3,9.9-14,23.3-16.9,36.2c-1.1,5-5.7,8.4-10.8,8.1l-85.2-5.5
		c-6.1-0.4-10.8-5.9-9.9-12c6.5-43.2,24-76.6,52.3-100.1C176.5,15.8,216,3,264.3,3c21.1,0,41,2.9,59.6,8.6
		c18.6,5.8,35,14.4,49.3,25.9C387.4,49,398.7,63.3,407,80.3c8.3,17,12.4,36.5,12.4,58.6c0,13.3-1.4,25.4-4.1,36.2
		c-2.8,10.8-7.5,21.5-14.1,32.1c-6.7,10.6-15.4,21.3-26.2,32.1c-10.8,10.8-24.5,22.6-41,35.5c-10.6,8.3-17.7,16.3-21.4,24.1
		c-3.7,7.8-5.5,15.6-5.5,23.4v25.1c0,5.8-4.7,10.6-10.6,10.6h-82.3c-5.8,0-10.6-4.7-10.6-10.6V311.9z M199.2,453.8
		c0-7.7,1.4-15,4.3-21.9c2.8-6.9,6.8-12.9,11.9-18c5.1-5.1,11.1-9,18-11.9c6.9-2.8,14.2-4.3,21.9-4.3c7.7,0,15,1.4,21.9,4.3
		c6.9,2.8,12.9,6.8,18,11.9c5.1,5.1,9,11.1,11.9,18c2.8,6.9,4.3,14.2,4.3,21.9c0,7.7-1.4,15-4.3,21.9c-2.8,6.9-6.8,12.9-11.9,18
		c-5.1,5.1-11.1,9.1-18,11.9c-6.9,2.8-14.2,4.3-21.9,4.3c-7.7,0-15-1.4-21.9-4.3c-6.9-2.8-12.9-6.8-18-11.9c-5.1-5.1-9-11.1-11.9-18
		C200.6,468.9,199.2,461.6,199.2,453.8z"/>
</g>
</svg>
