<?xml version="1.0" encoding="utf-8"?>
<!-- Generator: Adobe Illustrator 17.1.0, SVG Export Plug-In . SVG Version: 6.00 Build 0)  -->
<!DOCTYPE svg PUBLIC "-//W3C//DTD SVG 1.1//EN" "http://www.w3.org/Graphics/SVG/1.1/DTD/svg11.dtd">
<svg version="1.1" id="Layer_1" xmlns="http://www.w3.org/2000/svg" xmlns:xlink="http://www.w3.org/1999/xlink" x="0px" y="0px"
	 width="512px" height="512px" viewBox="0 0 512 512" enable-background="new 0 0 512 512" xml:space="preserve">
<g id="Your_Icon_2_">
	<path d="M212.6,207.4c0,24.3-19.8,44.1-44.1,44.1s-44.1-19.8-44.1-44.1s19.8-44.1,44.1-44.1C192.8,163.3,212.6,183,212.6,207.4z"/>
	<path d="M469.9,81c-19.4,0-427.8,0-427.8,0s-19.4,0-19.4,19.4c0,19.5,0,311.2,0,311.2s0,19.4,19.4,19.4s427.8,0,427.8,0
		s19.4,0,19.4-19.4c0-19.5,0-311.2,0-311.2S489.3,81,469.9,81z M450.5,392.1H61.6V119.9h388.9L450.5,392.1z"/>
	<path d="M419.7,359.1c0,0-18.1-105.4-72.7-105.4c-54.5,0-72.7,70.3-109.1,70.3c-36.5,0-36.5-17.6-72.7-17.6
		c-36.4,0-72.8,52.7-72.8,52.7H419.7L419.7,359.1z"/>
</g>
</svg>
