<?xml version="1.0" encoding="UTF-8" standalone="no"?>
<svg width="30px" height="30px" viewBox="0 0 30 30" version="1.1" xmlns="http://www.w3.org/2000/svg" xmlns:xlink="http://www.w3.org/1999/xlink">
    <!-- Generator: Sketch 39.1 (31720) - http://www.bohemiancoding.com/sketch -->
    <title>image_remove</title>
    <desc>Created with Sketch.</desc>
    <defs></defs>
    <g id="Symbols" stroke="none" stroke-width="1" fill="none" fill-rule="evenodd">
        <g id="Artboard-2" transform="translate(-15.000000, -16.000000)" fill="#8994A3">
            <g id="image_remove" transform="translate(15.000000, 16.000000)">
                <path d="M12.2173545,12.9836556 C12.2686596,12.7663939 12.2958444,12.5397163 12.2958444,12.3067448 C12.2958444,10.7032276 11.0185216,9.40858466 9.4508982,9.40858466 C7.88327481,9.40858466 6.60595205,10.7097994 6.60595205,12.3067448 C6.60595205,13.9036903 7.88327481,15.204905 9.4508982,15.204905 C9.66128469,15.204905 9.8664424,15.1814681 10.0639854,15.1370247 L12.2173548,12.9836553 Z M19.4263247,15.6741803 C19.8880734,15.4708265 20.3963621,15.3494845 20.9661564,15.3494845 C24.4884707,15.3494845 25.6561243,22.276153 25.6561243,22.276153 L25.6561243,22.276153 L12.824352,22.276153 L19.4263247,15.6741803 Z" id="Combined-Shape"></path>
                <path d="M20.2361191,4.96489105 L2.52340227,4.96489105 C2.52340227,4.96489105 1.38271844,4.96489105 1.38271844,6.12691109 L1.38271844,23.8182917 L3.6699659,21.5310442 L3.6699659,7.29492093 L17.9060892,7.29492093 L20.2361191,4.96489105 Z M9.17133489,25.9291702 L27.6772445,25.9291702 C27.6772445,25.9291702 28.8179283,25.9291702 28.8179283,24.7671501 L28.8179283,6.28257672 L26.5365607,8.56394437 L26.5365607,23.5991403 L11.5013648,23.5991403 L9.17133489,25.9291702 Z M0.30151519,27.7279221 L27.8786797,0.150757595 L30,2.27207794 L2.42283553,29.8492424 L0.30151519,27.7279221 Z" id="Combined-Shape"></path>
            </g>
        </g>
    </g>
</svg>