<?xml version="1.0" encoding="utf-8"?>
<!-- Generator: Adobe Illustrator 18.0.0, SVG Export Plug-In . SVG Version: 6.00 Build 0)  -->
<!DOCTYPE svg PUBLIC "-//W3C//DTD SVG 1.1//EN" "http://www.w3.org/Graphics/SVG/1.1/DTD/svg11.dtd">
<svg version="1.1" id="Layer_1" xmlns="http://www.w3.org/2000/svg" xmlns:xlink="http://www.w3.org/1999/xlink" x="0px" y="0px"
	 viewBox="0 0 512 512" enable-background="new 0 0 512 512" xml:space="preserve">
<g>
	<rect x="125.2" y="152.1" width="136.9" height="113.3"/>
	<path d="M486.5,10.2H25.5C11.4,10.2,0,21.6,0,35.7v41.6c0,13.9,11.1,25.1,24.9,25.4v237.6c0,14.1,11.4,25.5,25.5,25.5h180.1v22.2
		l-87.1,58.9c-11.7,7.9-14.7,23.7-6.8,35.4c7.9,11.6,23.7,14.7,35.4,6.8l58.5-39.6v26.8c0,14.1,11.4,25.5,25.5,25.5
		c14.1,0,25.5-11.4,25.5-25.5v-26.8l58.5,39.6c4.4,3,9.3,4.4,14.3,4.4c8.2,0,16.2-3.9,21.1-11.2c7.9-11.6,4.8-27.5-6.8-35.4
		l-87.1-58.9v-22.2h180.1c14.1,0,25.5-11.4,25.5-25.5V102.7c13.8-0.3,24.9-11.5,24.9-25.4V35.7C512,21.6,500.6,10.2,486.5,10.2z
		 M436.1,314.8H75.9v-212h360.2V314.8z"/>
	<g>
		<path d="M318.2,194.5h56.2c11.7,0,21.2-9.5,21.2-21.3s-9.5-21.3-21.2-21.3h-56.2c-11.7,0-21.2,9.5-21.2,21.3
			S306.5,194.5,318.2,194.5z"/>
		<path d="M374.4,222.8h-56.2c-11.7,0-21.2,9.5-21.2,21.3s9.5,21.3,21.2,21.3h56.2c11.7,0,21.2-9.5,21.2-21.3
			S386.2,222.8,374.4,222.8z"/>
	</g>
</g>
</svg>
