<?xml version="1.0" encoding="utf-8"?>
<!-- Generator: Adobe Illustrator 17.1.0, SVG Export Plug-In . SVG Version: 6.00 Build 0)  -->
<!DOCTYPE svg PUBLIC "-//W3C//DTD SVG 1.1//EN" "http://www.w3.org/Graphics/SVG/1.1/DTD/svg11.dtd">
<svg version="1.1" id="Layer_1" xmlns="http://www.w3.org/2000/svg" xmlns:xlink="http://www.w3.org/1999/xlink" x="0px" y="0px"
	 width="512px" height="512px" viewBox="0 0 512 512" enable-background="new 0 0 512 512" xml:space="preserve">
<g>
	<path d="M294.4,376.5l-2.8,12.1c-11.6,4.6-20.8,7.9-27.8,9.7c-6.9,1.8-12.9,2.7-17.7,2.7c-10.1,0-17.6-2.6-22.7-7.8
		c-5-5.2-7.5-11.7-7.5-19.4c0-2.9,0.2-5.9,0.7-9.1c0.5-3.2,1.3-7.1,2.4-11.9l19.9-80.3c1-4.4,2-9.1,2.9-14.2c1-5,1.4-9.3,1.4-12.9
		c0-7-1.2-11.7-3.5-14.1c-2.3-2.3-7.1-3.5-14.2-3.5c-2.8,0-6.5,0.5-11,1.3s-8.1,1.6-10.4,2.3l2.8-12.1c9.8-4.4,18.6-7.7,26.4-9.8
		c7.8-2.2,13.9-3.2,18.5-3.2c10.3,0,17.8,2.4,22.4,7.4s7,11.5,7,19.8c0,2.3-0.2,5.4-0.7,9.2c-0.5,3.9-1.2,7.8-2.3,11.7l-19.9,80.4
		c-1.2,4.9-2.4,9.7-3.3,14.4c-1,4.7-1.4,8.6-1.4,11.6c0,7.2,1.6,12.1,4.8,14.7c3.2,2.7,8.4,4,15.5,4c2.4,0,5.8-0.3,10.3-1
		C288.5,378.1,292,377.4,294.4,376.5z M307.7,135.1c0,7.2-2.3,13.4-7,18.8c-4.7,5.4-10.5,8-17.4,8c-6.4,0-12-2.5-16.6-7.6
		c-4.6-5.1-7-10.9-7-17.4c0-6.9,2.3-13,7-18.1s10.2-7.7,16.6-7.7c7.1,0,13,2.4,17.6,7.3C305.5,123.1,307.7,128.7,307.7,135.1z"/>
</g>
</svg>
