<?xml version="1.0" encoding="utf-8"?>
<!-- Generator: Adobe Illustrator 18.1.1, SVG Export Plug-In . SVG Version: 6.00 Build 0)  -->
<svg version="1.1" id="Layer_1" xmlns="http://www.w3.org/2000/svg" xmlns:xlink="http://www.w3.org/1999/xlink" x="0px" y="0px"
	 viewBox="0 50 500 500" enable-background="new 0 50 500 500" xml:space="preserve">
<path d="M434.1,245.7H224.2c-20.4-41.9-57.8-59.3-100.6-59.3C59,186.4,6.7,237.9,6.7,302.5S59.1,420,123.6,420
	c42.8,0,80.2-23.4,100.6-57h20.5l49.2-49.2l40.9,40.9l40.9-40.9l49.2,49.2h9.4l58.5-58.7L434.1,245.7z M99.5,338.7
	c-20.5,0-37.1-16.6-37.1-37.1s16.6-37.1,37.1-37.1s37.1,16.6,37.1,37.1S120,338.7,99.5,338.7z"/>
</svg>
