<?xml version="1.0" encoding="utf-8"?>
<!-- Generator: Adobe Illustrator 17.1.0, SVG Export Plug-In . SVG Version: 6.00 Build 0)  -->
<!DOCTYPE svg PUBLIC "-//W3C//DTD SVG 1.1//EN" "http://www.w3.org/Graphics/SVG/1.1/DTD/svg11.dtd">
<svg version="1.1" id="Layer_1" xmlns="http://www.w3.org/2000/svg" xmlns:xlink="http://www.w3.org/1999/xlink" x="0px" y="0px"
	 width="512px" height="512px" viewBox="0 0 512 512" enable-background="new 0 0 512 512" xml:space="preserve">
<path d="M256,56.4c53.5,0,97,44.2,97,97.8c0,30.6-14.2,59.4-36.5,77.2c70.7,21.6,125.3,82.9,141.4,155.8c0.8,3.6,1.3,9.9,1.3,13.7
	c0,25.4-20.6,54.1-46,54.1H98.7c-25.4,0-46-28.7-46-54.1c0-3.8,0.5-11.5,1.4-15c16.1-72.9,70.7-136.1,141.4-157.7
	c-22.2-17.8-36.5-44.6-36.5-75.3C159,99.3,202.4,56.4,256,56.4 M256,3.7c-82.5,0-149.7,66.9-149.7,149.2c0,19.1,3.6,37.6,10.5,54.9
	C60.2,245.2,17.9,305.5,2.6,374.5C0,385.7,0,400.4,0,401c0,50.6,40.5,107,98.7,107h314.5c58.2,0,98.8-56.4,98.8-107
	c0-6.6-0.8-16.9-2.5-25c-15.2-68.4-57.7-128.3-114.6-165.5c7-17.8,10.8-36.9,10.8-56.4C405.7,71.2,338.5,3.7,256,3.7L256,3.7z"/>
</svg>
