<?xml version="1.0" encoding="UTF-8" standalone="no"?>
<svg width="45px" height="45px" viewBox="0 0 45 45" version="1.1" xmlns="http://www.w3.org/2000/svg" xmlns:xlink="http://www.w3.org/1999/xlink" xmlns:sketch="http://www.bohemiancoding.com/sketch/ns">
    <!-- Generator: Sketch 3.4.1 (15681) - http://www.bohemiancoding.com/sketch -->
    <title>Oval 20 + Oval 26 Copy</title>
    <desc>Created with Sketch.</desc>
    <defs></defs>
    <g id="Page-1" stroke="none" stroke-width="1" fill="none" fill-rule="evenodd" sketch:type="MSPage">
        <g id="1-Overview" sketch:type="MSArtboardGroup" transform="translate(-1069.000000, -1009.000000)" fill="#000000">
            <g id="Oval-20-+-Oval-26-Copy" sketch:type="MSLayerGroup" transform="translate(1069.000000, 1009.000000)">
                <path d="M22.1116521,44.8057531 C34.3153346,44.8057531 44.2083739,34.8652527 44.2083739,22.6030241 C44.2083739,10.3407954 34.3153346,0.400295032 22.1116521,0.400295032 C9.90796957,0.400295032 0.0149302175,10.3407954 0.0149302175,22.6030241 C0.0149302175,34.8652527 9.90796957,44.8057531 22.1116521,44.8057531 Z M21.8130477,35.204573 C28.9043767,35.204573 34.6530347,29.4283363 34.6530347,22.3029872 C34.6530347,15.1776381 28.9043767,9.4014014 21.8130477,9.4014014 C14.7217187,9.4014014 8.97306069,15.1776381 8.97306069,22.3029872 C8.97306069,29.4283363 14.7217187,35.204573 21.8130477,35.204573 Z" id="Oval-20" sketch:type="MSShapeGroup"></path>
                <path d="M18.9591441,12.1980096 C19.8662886,11.9398512 20.8236113,11.8016964 21.8130477,11.8016964 C27.5850597,11.8016964 32.2641999,16.5032845 32.2641999,22.3029872 C32.2641999,28.1026899 27.5850597,32.804278 21.8130477,32.804278 C16.0410357,32.804278 11.3618955,28.1026899 11.3618955,22.3029872 C11.3618955,19.637788 12.3500252,17.204486 13.9782562,15.3527793 C14.4274886,16.4387445 15.4933809,17.2023603 16.7367738,17.2023603 C18.3859201,17.2023603 19.7228173,15.8590494 19.7228173,14.2019915 C19.7228173,13.4317384 19.4339559,12.7292762 18.9591441,12.1980096 Z M21.8130477,27.4036141 C24.6165964,27.4036141 26.8893216,25.1199857 26.8893216,22.3029872 C26.8893216,19.4859887 24.6165964,17.2023603 21.8130477,17.2023603 C19.009499,17.2023603 16.7367738,19.4859887 16.7367738,22.3029872 C16.7367738,25.1199857 19.009499,27.4036141 21.8130477,27.4036141 Z" id="Oval-26-Copy" sketch:type="MSShapeGroup"></path>
            </g>
        </g>
    </g>
</svg>