<?xml version="1.0" encoding="utf-8"?>
<!-- Generator: Adobe Illustrator 17.1.0, SVG Export Plug-In . SVG Version: 6.00 Build 0)  -->
<!DOCTYPE svg PUBLIC "-//W3C//DTD SVG 1.1//EN" "http://www.w3.org/Graphics/SVG/1.1/DTD/svg11.dtd">
<svg version="1.1" id="Layer_1" xmlns="http://www.w3.org/2000/svg" xmlns:xlink="http://www.w3.org/1999/xlink" x="0px" y="0px"
	 viewBox="0 0 512 512" enable-background="new 0 0 512 512" xml:space="preserve">
<g>
	<path fill="#010101" d="M256,0.3c-90.2,0-163.6,73.4-163.6,163.6c0,44.4,22.4,83.7,42.2,118.5c17,29.9,33.1,58.2,33.1,84.9v67.5
		c5.8,43.4,43.8,76.9,88.7,76.9c44.9,0,82-33.6,87.8-76.9v-76.3c3.3-19.9,17.4-44.1,31.4-69.6c20.6-37.6,44-80.3,44-125
		C419.6,73.7,346.2,0.3,256,0.3z M256.4,479.2c-25.3,0-46.8-16.8-53.8-39.9h107.5C303.2,462.3,281.7,479.2,256.4,479.2z
		 M312.6,402.2H200.2v-18.7h112.4V402.2z M347.1,273.2c-14.9,27.1-29.1,53-33.7,77.8h-41.1V216.9c6.6-5.3,10.9-13.3,10.9-22.5
		c0-16-12.9-28.9-28.9-28.9s-28.9,12.9-28.9,28.9c0,10.6,5.8,19.8,14.3,24.8V351h-40.8c-4.6-29.4-20.5-57.5-36.1-84.7
		c-18.6-32.7-37.9-66.6-37.9-102.4c0-72.3,58.8-131,131-131c72.3,0,131,58.8,131,131C387,200.2,366.7,237.3,347.1,273.2z"/>
</g>
</svg>
