<?xml version="1.0" encoding="UTF-8" standalone="no"?>
<svg width="308px" height="260px" viewBox="0 0 308 260" version="1.1" xmlns="http://www.w3.org/2000/svg" xmlns:xlink="http://www.w3.org/1999/xlink">
    <!-- Generator: Sketch 3.6.1 (26313) - http://www.bohemiancoding.com/sketch -->
    <title>Slice 1</title>
    <desc>Created with Sketch.</desc>
    <defs>
        <path id="path-1" d="M0,0.333255814 L208.139302,0.333255814 L208.139302,204.116279 L0,204.116279"></path>
    </defs>
    <g id="Page-1" stroke="none" stroke-width="1" fill="none" fill-rule="evenodd">
        <g id="Fill-1-Copy-+-Page-1">
            <path d="M307.563443,59.1166484 L294.087358,54.1244928 C292.796775,48.7354992 290.72584,43.6599742 288.011281,39.0479828 L294.310792,26.1090624 C291.015971,21.8005353 287.210919,17.9388678 282.958999,14.52406 L269.896434,20.5366562 C265.3177,17.7521205 260.302101,15.5911874 254.969693,14.1905826 L250.290914,0.601381449 C247.656391,0.261234573 244.951836,0.0378047622 242.197259,0.00112225595 C239.472695,-0.0155516105 236.758136,0.154521827 234.083595,0.447981877 L229.158037,13.9238008 C223.758933,15.2076885 218.723325,17.2652436 214.091234,19.9597404 L201.138718,13.6536841 C196.860119,16.9751183 192.951688,20.7667556 189.59017,24.9852438 L195.596215,38.0808985 C192.748262,42.6395336 190.580617,47.635024 189.196659,53.0173481 L175.600519,57.7060393 C175.253696,60.343845 175.036931,63.0883634 175.003583,65.8095384 C174.973569,68.5774003 175.133641,71.2552232 175.427107,73.9530548 L188.929871,78.8818498 C190.200445,84.3008564 192.244702,89.3597075 194.995944,93.9817032 L188.716442,106.890611 C191.997924,111.215812 195.819649,115.100823 200.024882,118.488952 L213.107456,112.456347 C217.68619,115.290905 222.671775,117.438499 228.050871,118.812425 L232.699637,132.414965 C235.354169,132.768451 238.055389,132.978542 240.796627,132.991881 C243.547869,133.038568 246.252424,132.881834 248.903621,132.575035 L253.855857,119.099216 C259.218279,117.828667 264.27723,115.791121 268.912656,113.053272 L281.838493,119.359328 C286.177119,116.061237 290.055537,112.249591 293.447069,107.987751 L287.417679,94.9487875 C290.238953,90.3901524 292.409934,85.3713186 293.797227,79.9823249 L307.383362,75.3369858 C307.756864,72.6524932 307.94695,69.9880094 307.996973,67.2201476 C308.023651,64.4889682 307.873584,61.7511193 307.563443,59.1166484 Z M241.696785,90.6292455 C254.915308,90.6292455 265.631038,79.9137274 265.631038,66.6954659 C265.631038,53.4772044 254.915308,42.7616863 241.696785,42.7616863 C228.478262,42.7616863 217.762532,53.4772044 217.762532,66.6954659 C217.762532,79.9137274 228.478262,90.6292455 241.696785,90.6292455 Z" id="Fill-1-Copy" fill="#9098A3"></path>
            <g id="Page-1" transform="translate(0.000000, 55.000000)">
                <mask id="mask-2" fill="white">
                    <use xlink:href="#path-1"></use>
                </mask>
                <g id="Clip-2"></g>
                <path d="M137.443535,102.205233 C137.443535,120.221279 122.47493,134.882209 104.07307,134.882209 C85.7005116,134.882209 70.7074884,120.221279 70.7074884,102.205233 C70.7074884,84.2233721 85.7005116,69.5819767 104.07307,69.5819767 C122.479814,69.5917442 137.443535,84.2233721 137.443535,102.205233 M179.531442,78.870814 L174.286326,66.3684884 C174.286326,66.3684884 186.510279,38.7852326 185.416326,37.7254651 L169.241442,21.9315116 C168.118186,20.8375581 140.525163,33.4131395 140.525163,33.4131395 L127.798186,28.2754651 C127.798186,28.2754651 116.55586,0.335697674 115.017488,0.335697674 L92.1763256,0.335697674 C90.5891163,0.335697674 80.181907,28.3487209 80.181907,28.3487209 L67.4793488,33.5059302 C67.4793488,33.5059302 39.3051628,21.5456977 38.2258605,22.6054651 L22.0705116,38.4238372 C20.9521395,39.5031395 33.8158605,66.5394186 33.8158605,66.5394186 L28.5512093,79.0026744 C28.5512093,79.0026744 0.000976744186,90.0056977 0.000976744186,91.4903488 L0.000976744186,113.872442 C0.000976744186,115.440116 28.6293488,125.627558 28.6293488,125.627558 L33.8793488,138.076163 C33.8793488,138.076163 21.6553953,165.630116 22.7249302,166.689884 L38.899814,182.527791 C40.0035349,183.602209 67.6014419,171.011977 67.6014419,171.011977 L80.338186,176.183837 C80.338186,176.183837 91.5853953,204.118721 93.1335349,204.118721 L115.974698,204.118721 C117.557023,204.118721 127.974,176.100814 127.974,176.100814 L140.720512,170.933837 C140.720512,170.933837 168.831209,182.913605 169.915395,181.868488 L186.095163,166.035465 C187.218419,164.941512 174.325395,137.919884 174.325395,137.919884 L179.575395,125.456628 C179.575395,125.456628 208.140279,114.43407 208.140279,112.934767 L208.140279,90.5673256 C208.15493,89.0240698 179.531442,78.870814 179.531442,78.870814" id="Fill-1" fill="#9098A3" mask="url(#mask-2)"></path>
            </g>
        </g>
    </g>
</svg>