<?xml version="1.0" encoding="UTF-8" standalone="no"?>
<svg width="63px" height="65px" viewBox="0 0 63 65" version="1.1" xmlns="http://www.w3.org/2000/svg" xmlns:xlink="http://www.w3.org/1999/xlink" xmlns:sketch="http://www.bohemiancoding.com/sketch/ns">
    <!-- Generator: Sketch 3.3.2 (12043) - http://www.bohemiancoding.com/sketch -->
    <title>Imported Layers</title>
    <desc>Created with Sketch.</desc>
    <defs></defs>
    <g id="Page-1" stroke="none" stroke-width="1" fill="none" fill-rule="evenodd" sketch:type="MSPage">
        <path d="M61.209,0 L55.189,0 C55.175,0 55.162,0.004 55.148,0.004 C55.074,0.005 55.001,0.015 54.929,0.026 C54.903,0.031 54.876,0.032 54.85,0.038 C54.325,0.146 53.863,0.51 53.663,1.047 L50.522,9.502 L2.55,9.502 C1.148,9.502 0,10.65 0,12.053 L0,35.925 C0,37.327 1.141,38.241 2.55,38.475 L40.3,44.451 L45.412,49.599 L4.715,49.599 C3.83,49.599 3.107,50.322 3.107,51.207 L3.107,53.518 C3.107,54.402 3.83,55.126 4.715,55.126 L6.408,55.126 C5.106,56.081 4.25,57.611 4.25,59.35 C4.25,62.25 6.601,64.6 9.5,64.6 C12.399,64.6 14.75,62.25 14.75,59.35 C14.75,57.611 13.894,56.081 12.592,55.126 L39.408,55.126 C38.106,56.081 37.25,57.611 37.25,59.35 C37.25,62.25 39.601,64.6 42.5,64.6 C45.4,64.6 47.75,62.25 47.75,59.35 C47.75,57.611 46.894,56.081 45.592,55.126 L48.22,55.126 C49.105,55.126 49.828,54.402 49.828,53.518 L49.828,48.81 C49.828,48.488 49.731,48.189 49.566,47.938 C49.563,47.932 49.561,47.926 49.558,47.921 C49.521,47.866 49.477,47.818 49.434,47.769 C49.406,47.736 49.385,47.701 49.354,47.67 L43.176,41.448 L52.999,14.77 L56.943,4.157 L61.209,4.157 C62.093,4.157 62.817,3.433 62.817,2.549 L62.817,1.608 C62.817,0.723 62.093,0 61.209,0" id="Imported-Layers" fill="#1A1918" sketch:type="MSShapeGroup"></path>
    </g>
</svg>