<?xml version="1.0" encoding="utf-8"?>
<!-- Generator: Adobe Illustrator 17.1.0, SVG Export Plug-In . SVG Version: 6.00 Build 0)  -->
<!DOCTYPE svg PUBLIC "-//W3C//DTD SVG 1.1//EN" "http://www.w3.org/Graphics/SVG/1.1/DTD/svg11.dtd">
<svg version="1.1" id="Layer_1" xmlns="http://www.w3.org/2000/svg" xmlns:xlink="http://www.w3.org/1999/xlink" x="0px" y="0px"
	 viewBox="0 0 512 512" enable-background="new 0 0 512 512" xml:space="preserve">
<g>
	<path d="M487.6,154.5c-0.1-0.8-0.3-1.6-0.6-2.4c-0.3-0.8-0.7-1.5-1.2-2.2c-0.7-1-1.6-1.9-2.7-2.6c-1.7-1.2-3.7-1.7-5.7-1.7
		c-0.3,0-0.6,0-1,0c-1,0.1-1.9,0.3-2.8,0.7l-162.1,65.4c-1.2,0.5-2.3,1.2-3.2,2c-2,1.9-3.2,4.5-3.2,7.4v160.3
		c-0.9-0.3-1.8-0.5-2.7-0.7c-0.9-0.2-1.8-0.4-2.8-0.6c-1.9-0.4-3.8-0.7-5.7-1c-2.9-0.4-5.8-0.7-8.7-0.8c-1,0-2-0.1-3-0.1l0,0h0
		c-15.4,0-29.6,4.2-40.7,11.2c-2.4,1.5-4.6,3.1-6.7,4.9c-10.3,8.7-16.6,20.3-16.6,33s6.3,24.3,16.6,33c2.1,1.7,4.3,3.4,6.7,4.9
		c11.1,7,25.3,11.2,40.7,11.2l0,0h0c6.6,0,13-0.8,19-2.2c5-1.2,9.8-2.9,14.2-4.9c18.5-8.6,30.8-24.2,30.8-42V242.1l100.3-40.5v122.9
		c-5.4-1.6-11.1-2.6-17-3c-2-0.1-3.9-0.2-5.9-0.2c-35.3,0-64,22-64,49.1s28.7,49.1,64,49.1s64-22,64-49.1V155.8
		C487.7,155.3,487.6,154.9,487.6,154.5z"/>
	<path d="M73.7,303.9V101.2h272.6v69.1l41-16.6v-52.5c0-22.6-18.4-41-41-41H73.7c-22.6,0-41,18.4-41,41v202.7c0,22.6,18.4,41,41,41
		h206v-41H73.7z"/>
	<polygon points="162.1,151.8 275.7,202.5 162.1,253.3 	"/>
</g>
</svg>
