<?xml version="1.0" encoding="utf-8"?>
<!-- Generator: Adobe Illustrator 18.0.0, SVG Export Plug-In . SVG Version: 6.00 Build 0)  -->
<!DOCTYPE svg PUBLIC "-//W3C//DTD SVG 1.1//EN" "http://www.w3.org/Graphics/SVG/1.1/DTD/svg11.dtd">
<svg version="1.1" id="Layer_1" xmlns="http://www.w3.org/2000/svg" xmlns:xlink="http://www.w3.org/1999/xlink" x="0px" y="0px"
	 viewBox="0 0 512 512" enable-background="new 0 0 512 512" xml:space="preserve">
<path d="M465.2,75H45.8C20.3,75,0,96.5,0,122.4v266.8C0,415.1,20.3,436,45.8,436h419.5c25.5,0,46.8-20.9,46.8-46.8V122.4
	C512,96.5,490.8,75,465.2,75z M447.3,113.6L260.9,303.8c-2.7,3-8.6,3.3-11.8-0.3L62.9,113.5L447.3,113.6z M37,361V141.7l107.6,110
	L37,361z M52.8,399l118.1-120.6l50.8,52c15.6,17.1,48,18.2,65.9,0.2l51.7-52.8L457.5,399H52.8z M474,361L365.7,250.3L474,139.7V361z
	"/>
</svg>
