<?xml version="1.0" encoding="UTF-8" standalone="no"?>
<svg width="512px" height="512px" viewBox="0 0 512 512" version="1.1" xmlns="http://www.w3.org/2000/svg" xmlns:xlink="http://www.w3.org/1999/xlink" xmlns:sketch="http://www.bohemiancoding.com/sketch/ns">
    <!-- Generator: Sketch 3.3.2 (12043) - http://www.bohemiancoding.com/sketch -->
    <title>moveup</title>
    <desc>Created with Sketch.</desc>
    <defs></defs>
    <g id="Exports" stroke="none" stroke-width="1" fill="none" fill-rule="evenodd" sketch:type="MSPage">
        <g id="moveup" sketch:type="MSArtboardGroup" fill="#000000">
            <path d="M440.393904,201.400265 C448.302893,208.680785 448.294034,220.461038 440.347588,227.736485 L412.147383,253.555464 C404.212815,260.820037 391.394738,260.830733 383.495835,253.559497 L269.875371,148.967602 C261.986126,141.705256 249.205209,141.696365 241.306824,148.967602 L127.693815,253.559497 C119.805087,260.821842 106.989649,260.830912 99.0432037,253.555464 L70.8429984,227.736485 C62.9084304,220.471913 62.8755702,208.691669 70.7960114,201.400265 L241.27081,44.4644725 C249.179427,37.1839524 261.990307,37.173068 269.911119,44.4644725 L440.393904,201.400265 L440.393904,201.400265 Z M1,405.061389 C1,388.954371 14.1275471,375.897053 30.0842887,375.897053 L482.235514,375.897053 C498.298323,375.897053 511.319803,389.006386 511.319803,405.061389 L511.319803,443.936488 C511.319803,460.043506 498.192256,473.100825 482.235514,473.100825 L30.0842887,473.100825 C14.0214796,473.100825 1,459.991491 1,443.936488 L1,405.061389 L1,405.061389 Z" id="Imported-Layers-6-Copy-3" sketch:type="MSShapeGroup"></path>
        </g>
    </g>
</svg>