<?xml version="1.0" encoding="utf-8"?>
<!-- Generated by IcoMoon.io -->
<!DOCTYPE svg PUBLIC "-//W3C//DTD SVG 1.1//EN" "http://www.w3.org/Graphics/SVG/1.1/DTD/svg11.dtd">
<svg version="1.1" xmlns="http://www.w3.org/2000/svg" xmlns:xlink="http://www.w3.org/1999/xlink" width="31" height="32" viewBox="0 0 31 32">
<path fill="#444444" d="M15.892 31.758c-0.547 0-1.095-0.030-1.637-0.096-1.731-0.203-3.397-0.711-4.945-1.512-1.348-0.699-2.573-1.608-3.65-2.702-2.738-2.78-4.245-6.474-4.245-10.407s1.507-7.627 4.245-10.413c0.807-0.819 2.119-0.819 2.932 0s0.807 2.152 0 2.977c-1.955 1.985-3.032 4.627-3.032 7.436s1.077 5.452 3.032 7.436c0.771 0.783 1.648 1.435 2.608 1.931 1.107 0.574 2.296 0.938 3.532 1.082 2.208 0.251 4.486-0.227 6.405-1.357 0.765-0.454 1.472-1.010 2.102-1.65 1.96-1.991 3.038-4.633 3.038-7.436 0-2.809-1.077-5.452-3.032-7.436-0.807-0.819-0.807-2.152 0-2.977s2.119-0.819 2.932 0c2.738 2.78 4.251 6.48 4.251 10.413s-1.507 7.633-4.251 10.407c-0.877 0.891-1.866 1.674-2.944 2.313-2.225 1.303-4.78 1.991-7.341 1.991zM15.91 20.192c-1.142 0-2.072-0.938-2.072-2.104v-14.717c0-1.16 0.93-2.104 2.072-2.104s2.072 0.944 2.072 2.104v14.723c0 1.16-0.93 2.098-2.072 2.098z"></path>
</svg>
