<?xml version="1.0" encoding="utf-8"?>
<!-- Generator: Adobe Illustrator 17.1.0, SVG Export Plug-In . SVG Version: 6.00 Build 0)  -->
<!DOCTYPE svg PUBLIC "-//W3C//DTD SVG 1.1//EN" "http://www.w3.org/Graphics/SVG/1.1/DTD/svg11.dtd">
<svg version="1.1" id="Layer_1" xmlns="http://www.w3.org/2000/svg" xmlns:xlink="http://www.w3.org/1999/xlink" x="0px" y="0px"
	 width="512px" height="512px" viewBox="0 0 512 512" enable-background="new 0 0 512 512" xml:space="preserve">
<g>
	<g>
		<path d="M63.3,188.3v-46.8H45.2v-11.1c2.5,0.1,5-0.1,7.4-0.6c2.4-0.4,4.5-1.2,6.4-2.4c1.9-1.1,3.5-2.6,4.8-4.5
			c1.3-1.9,2.2-4.1,2.6-6.9H78v72.3H63.3z"/>
	</g>
	<g>
		<path d="M42.8,235.5c1.1-3.6,2.7-6.6,5-9.3c2.2-2.6,5-4.7,8.3-6.2s7.2-2.2,11.5-2.2c3.3,0,6.4,0.5,9.4,1.5s5.6,2.5,7.9,4.5
			c2.3,1.9,4.1,4.3,5.4,7.1c1.4,2.8,2,6,2,9.5c0,3.6-0.6,6.8-1.8,9.4s-2.7,4.9-4.7,6.9c-1.9,2-4.1,3.9-6.5,5.5
			c-2.5,1.7-4.9,3.3-7.4,4.9s-4.9,3.4-7.2,5.2c-2.4,1.9-4.4,4.1-6.2,6.5h34.1v12.6H39.7c0-4.2,0.6-7.9,1.8-10.9
			c1.2-3.1,2.9-5.8,4.9-8.3c2-2.5,4.5-4.7,7.3-6.8c2.8-2,5.8-4.1,8.8-6.3c1.6-1.1,3.3-2.2,5.1-3.4c1.8-1.1,3.4-2.4,4.9-3.7
			c1.5-1.4,2.7-3,3.7-4.7c1-1.7,1.5-3.7,1.5-5.9c0-3.5-1-6.3-3-8.2c-2-1.9-4.7-3-7.8-3c-2.1,0-3.9,0.5-5.4,1.5
			c-1.5,1-2.7,2.3-3.6,3.9c-0.9,1.6-1.5,3.4-1.9,5.3c-0.3,1.9-0.6,3.9-0.6,5.8h-14C41.2,242.9,41.7,239,42.8,235.5z"/>
	</g>
	<g>
		<path d="M66.1,351.6c1.8-0.2,3.5-0.5,5-1.2s2.8-1.6,3.8-2.9c1-1.2,1.5-2.9,1.5-5c0-3-1-5.4-3-7.1c-2.1-1.6-4.4-2.5-7.1-2.5
			c-3.7,0-6.5,1.2-8.4,3.6c-1.9,2.5-2.8,5.5-2.7,9.2H41.1c0.2-3.7,0.8-7.1,2-10.2c1.2-3,2.9-5.7,5.1-7.9c2.1-2.2,4.7-3.9,7.8-5.1
			c3-1.2,6.4-1.8,10.1-1.8c2.9,0,5.8,0.4,8.6,1.3c2.9,0.8,5.5,2.1,7.8,3.9c2.3,1.7,4.1,3.8,5.6,6.3c1.4,2.5,2.2,5.3,2.2,8.6
			c0,3.5-0.8,6.6-2.5,9.3c-1.7,2.7-4.2,4.5-7.5,5.5v0.2c4,0.9,7.1,2.8,9.4,5.8s3.4,6.5,3.4,10.7c0,3.8-0.8,7.1-2.2,10.1
			c-1.5,3-3.5,5.4-5.9,7.5s-5.3,3.5-8.6,4.6c-3.2,1-6.6,1.5-10.1,1.5c-4.1,0-7.8-0.6-11.1-1.8c-3.3-1.2-6.2-2.9-8.6-5.1
			c-2.4-2.2-4.1-5-5.4-8.2c-1.3-3.2-1.9-6.9-1.8-11.2h14c0.1,1.9,0.3,3.8,0.9,5.5c0.6,1.7,1.4,3.3,2.4,4.6c1,1.3,2.3,2.3,3.9,3
			c1.5,0.8,3.4,1.1,5.5,1.1c3.3,0,6.1-1,8.4-3c2.3-2,3.4-4.8,3.4-8.3c0-2.7-0.5-4.8-1.6-6.3c-1-1.4-2.5-2.5-4.1-3.1
			c-1.6-0.7-3.5-1-5.4-1.1c-1.9-0.1-3.8-0.2-5.6-0.2v-10.3C62.6,351.8,64.3,351.8,66.1,351.6z"/>
	</g>
	<g>
		<rect x="161" y="130.8" width="320.3" height="49.3"/>
	</g>
	<g>
		<rect x="161" y="229.4" width="320.3" height="49.3"/>
	</g>
	<g>
		<rect x="161" y="327.9" width="320.3" height="49.3"/>
	</g>
</g>
</svg>
