<?xml version="1.0" encoding="utf-8"?>
<!-- Generator: Adobe Illustrator 17.1.0, SVG Export Plug-In . SVG Version: 6.00 Build 0)  -->
<!DOCTYPE svg PUBLIC "-//W3C//DTD SVG 1.1//EN" "http://www.w3.org/Graphics/SVG/1.1/DTD/svg11.dtd">
<svg version="1.1" id="Layer_1" xmlns="http://www.w3.org/2000/svg" xmlns:xlink="http://www.w3.org/1999/xlink" x="0px" y="0px"
	 viewBox="0 0 512 512" enable-background="new 0 0 512 512" xml:space="preserve">
<g>
	<path fill="#010101" d="M107.3,107.3c0,13.7-11.1,24.8-24.8,24.8S57.8,121,57.8,107.3s11.1-24.8,24.8-24.8S107.3,93.6,107.3,107.3z
		"/>
	<rect x="156.9" y="82.5" fill="#010101" width="297.4" height="49.6"/>
	<path fill="#010101" d="M107.3,305.6c0,13.7-11.1,24.8-24.8,24.8s-24.8-11.1-24.8-24.8c0-13.7,11.1-24.8,24.8-24.8
		S107.3,291.9,107.3,305.6z"/>
	<rect x="156.9" y="280.8" fill="#010101" width="297.4" height="49.6"/>
	<path fill="#010101" d="M107.3,206.4c0,13.7-11.1,24.8-24.8,24.8s-24.8-11.1-24.8-24.8c0-13.7,11.1-24.8,24.8-24.8
		S107.3,192.7,107.3,206.4z"/>
	<path fill="#010101" d="M107.3,404.7c0,13.7-11.1,24.8-24.8,24.8s-24.8-11.1-24.8-24.8c0-13.7,11.1-24.8,24.8-24.8
		S107.3,391,107.3,404.7z"/>
	<rect x="156.9" y="181.7" fill="#010101" width="297.4" height="49.6"/>
	<rect x="156.9" y="379.9" fill="#010101" width="297.4" height="49.6"/>
</g>
</svg>
