<?xml version="1.0" encoding="utf-8"?>
<!-- Generator: Adobe Illustrator 18.0.0, SVG Export Plug-In . SVG Version: 6.00 Build 0)  -->
<!DOCTYPE svg PUBLIC "-//W3C//DTD SVG 1.1//EN" "http://www.w3.org/Graphics/SVG/1.1/DTD/svg11.dtd">
<svg version="1.1" id="Layer_1" xmlns="http://www.w3.org/2000/svg" xmlns:xlink="http://www.w3.org/1999/xlink" x="0px" y="0px"
	 viewBox="0 0 512 512" enable-background="new 0 0 512 512" xml:space="preserve">
<path d="M479.9,358L334.7,221.9v-199c0-7.7-3.9-14.9-10.3-19.1c-6.5-4.2-14.6-4.9-21.7-1.9l-264,114.4c-8.4,3.6-13.8,11.9-13.8,21
	v208.9c0,0.3,0.1,0.6,0.1,0.9c0,1,0.2,1.9,0.4,2.9c0.2,0.9,0.3,1.8,0.5,2.7c0.3,0.9,0.6,1.7,1,2.6c0.4,0.9,0.7,1.7,1.2,2.6
	c0.4,0.8,1,1.4,1.5,2.1c0.6,0.8,1.2,1.6,1.9,2.3c0.2,0.2,0.3,0.5,0.5,0.6l152.5,142.9c4.3,4.1,10,6.2,15.7,6.2
	c3.1,0,6.2-0.6,9.1-1.9l264-114.4c7.1-3.1,12.1-9.5,13.5-17.1C488.1,371,485.5,363.3,479.9,358z M70.7,311.4v-159l218.2-94.6v159
	L70.7,311.4z M281,429.5l-41.2-38.6l71.4-30.9l41.2,38.6L281,429.5z"/>
</svg>
