<?xml version="1.0" encoding="UTF-8" standalone="no"?>
<svg width="512px" height="512px" viewBox="0 0 512 512" version="1.1" xmlns="http://www.w3.org/2000/svg" xmlns:xlink="http://www.w3.org/1999/xlink" xmlns:sketch="http://www.bohemiancoding.com/sketch/ns">
    <!-- Generator: Sketch 3.3.3 (12081) - http://www.bohemiancoding.com/sketch -->
    <title>paperclip</title>
    <desc>Created with Sketch.</desc>
    <defs></defs>
    <g id="Page-2" stroke="none" stroke-width="1" fill="none" fill-rule="evenodd" sketch:type="MSPage">
        <g id="paperclip" sketch:type="MSArtboardGroup" fill="#000000">
            <path d="M332.555556,248.007378 L332.555556,388.660797 C332.555556,430.739593 298.447918,464.844444 256.355556,464.844444 C214.257108,464.844444 180.155556,430.768706 180.155556,388.698184 L180.155556,75.4342194 C180.155556,59.8081792 192.793077,47.1555556 208.377778,47.1555556 C223.96208,47.1555556 236.6,59.7913389 236.6,75.3626808 L236.6,376.41849 C236.6,388.887852 246.708415,398.996267 259.177778,398.996267 C271.64714,398.996267 281.755556,388.887852 281.755556,376.41849 L281.755556,75.3626808 C281.755556,34.850905 248.899096,2 208.377778,2 C167.842272,2 135,34.8815192 135,75.4342194 L135,388.698184 C135,455.715088 189.326035,510 256.355556,510 C323.385818,510 377.711111,455.679143 377.711111,388.660797 L377.711111,248.007378 C377.711111,235.538016 367.602696,225.429601 355.133333,225.429601 C342.663971,225.429601 332.555556,235.538016 332.555556,248.007378 L332.555556,248.007378 Z" id="Shape-Copy-9" sketch:type="MSShapeGroup"></path>
        </g>
    </g>
</svg>