<?xml version="1.0" encoding="UTF-8" standalone="no"?>
<svg width="512px" height="512px" viewBox="0 0 512 512" version="1.1" xmlns="http://www.w3.org/2000/svg" xmlns:xlink="http://www.w3.org/1999/xlink" xmlns:sketch="http://www.bohemiancoding.com/sketch/ns">
    <!-- Generator: Sketch 3.2.2 (9983) - http://www.bohemiancoding.com/sketch -->
    <title>phone_portrait</title>
    <desc>Created with Sketch.</desc>
    <defs></defs>
    <g id="Exports" stroke="none" stroke-width="1" fill="none" fill-rule="evenodd" sketch:type="MSPage">
        <g id="phone_portrait" sketch:type="MSArtboardGroup" fill="#000000">
            <path d="M105,24.0080948 C105,10.7487902 115.74834,0 128.997321,0 L383.002679,0 C396.256033,0 407,10.7528376 407,24.0080948 L407,487.991905 C407,501.25121 396.25166,512 383.002679,512 L128.997321,512 C115.743967,512 105,501.247162 105,487.991905 L105,24.0080948 Z M263.55,496.941176 C276.05925,496.941176 286.2,486.828079 286.2,474.352941 C286.2,461.877803 276.05925,451.764706 263.55,451.764706 C251.04075,451.764706 240.9,461.877803 240.9,474.352941 C240.9,486.828079 251.04075,496.941176 263.55,496.941176 Z M135.2,50.122722 C135.2,39.0742242 144.1575,30.1176471 155.202445,30.1176471 L356.797555,30.1176471 C367.8446,30.1176471 376.8,39.0778793 376.8,50.122722 L376.8,401.641984 C376.8,412.690482 367.8425,421.647059 356.797555,421.647059 L155.202445,421.647059 C144.1554,421.647059 135.2,412.686827 135.2,401.641984 L135.2,50.122722 Z" id="Rectangle-746" sketch:type="MSShapeGroup"></path>
        </g>
    </g>
</svg>