<?xml version="1.0" encoding="UTF-8" standalone="no"?>
<svg width="46px" height="46px" viewBox="0 0 46 46" version="1.1" xmlns="http://www.w3.org/2000/svg" xmlns:xlink="http://www.w3.org/1999/xlink" xmlns:sketch="http://www.bohemiancoding.com/sketch/ns">
    <!-- Generator: Sketch 3.4.1 (15681) - http://www.bohemiancoding.com/sketch -->
    <title>Imported Layers</title>
    <desc>Created with Sketch.</desc>
    <defs></defs>
    <g id="Page-1" stroke="none" stroke-width="1" fill="none" fill-rule="evenodd" sketch:type="MSPage">
        <g id="1-Overview" sketch:type="MSArtboardGroup" transform="translate(-562.000000, -788.000000)">
            <g id="Rectangle-1-Copy-3-+-Design-+-18,954-Tutorials-+-Line-Copy-2-+-Imported-Layers" sketch:type="MSLayerGroup" transform="translate(468.000000, 710.000000)">
                <g id="Imported-Layers" transform="translate(94.000000, 78.000000)" sketch:type="MSShapeGroup">
                    <path d="M25.875,0 L25.875,20.125 L46,20.125 C46,9.01025 36.992625,0 25.875,0" id="Fill-1" fill="#000000"></path>
                    <path d="M20.125,5.75 C9.013125,5.75 0,14.76025 0,25.875 C0,36.98975 9.013125,46 20.125,46 C31.242625,46 40.25,36.98975 40.25,25.875 L20.125,25.875 L20.125,5.75 L20.125,5.75 Z M37.1335,28.75 C35.765,36.89775 28.660875,43.125 20.125,43.125 C10.611625,43.125 2.875,35.388375 2.875,25.875 C2.875,17.342 9.10225,10.235 17.25,8.8665 L17.25,28.75 L37.1335,28.75 L37.1335,28.75 Z" id="Fill-2" fill="#010101"></path>
                </g>
            </g>
        </g>
    </g>
</svg>