<?xml version="1.0" encoding="utf-8"?>
<!-- Generator: Adobe Illustrator 17.1.0, SVG Export Plug-In . SVG Version: 6.00 Build 0)  -->
<!DOCTYPE svg PUBLIC "-//W3C//DTD SVG 1.1//EN" "http://www.w3.org/Graphics/SVG/1.1/DTD/svg11.dtd">
<svg version="1.1" id="Layer_1" xmlns="http://www.w3.org/2000/svg" xmlns:xlink="http://www.w3.org/1999/xlink" x="0px" y="0px"
	 width="512px" height="512px" viewBox="0 0 512 512" enable-background="new 0 0 512 512" xml:space="preserve">
<g>
	<path d="M291.9,419.4c-13.2,2.6-26.9,3.8-41.2,3.8c-57.6,0-104.3-18.6-140.3-55.6c-36.1-37.1-54-89.5-54-157.4
		S75.9,89.4,115.2,51.1c35.1-34,80-51.1,134.9-51.1s100.3,16.9,136,50.5c39.2,37.2,58.8,90.3,58.8,159.1S425.9,332,387.8,369.9
		c-11.9,12.1-25.3,22.2-40.2,30.2c8.6,34.8,18.3,57,29.1,66.5c4.4,3.8,9.5,5.8,15.4,5.8c11,0,19.4-4.4,25.3-13.3
		c5.9-8.9,8.8-19.1,8.8-30.6h26.9c1.7,5.1,2.5,10.7,2.5,16.7c0,6-0.8,12-2.5,17.9c-3.7,13.7-11,25.3-22.2,34.7
		c-11,9.5-24.8,14.2-41.5,14.2c-28.6,0-50.8-9.6-66.5-28.9C311.8,469.6,301.4,448.3,291.9,419.4z M332.8,349.6
		c27.1-32.3,40.7-78.6,40.7-139s-11.6-104.7-34.9-132.8S286,35.7,250.7,35.7S186,50.2,162.8,79.1s-34.9,72.2-34.9,129.8
		c0,67.8,15.5,117.2,46.4,148.2c2.9-19.4,11-37,24.2-52.6c13.2-15.6,30.4-23.5,51.7-23.5c30.6,0,54,14.1,70.1,42.3
		C325,331.5,329.2,340.2,332.8,349.6z M203.2,377.1c26,12.5,53.2,14.2,81.7,5.2c-8.8-42.3-23.5-63.5-44.3-63.5
		c-11.4,0-20.2,5.2-26.7,15.6C207.4,344.7,203.8,358.9,203.2,377.1z"/>
</g>
</svg>
