<?xml version="1.0" encoding="utf-8"?>
<!-- Generator: Adobe Illustrator 17.1.0, SVG Export Plug-In . SVG Version: 6.00 Build 0)  -->
<!DOCTYPE svg PUBLIC "-//W3C//DTD SVG 1.1//EN" "http://www.w3.org/Graphics/SVG/1.1/DTD/svg11.dtd">
<svg version="1.1" id="Layer_1" xmlns="http://www.w3.org/2000/svg" xmlns:xlink="http://www.w3.org/1999/xlink" x="0px" y="0px"
	 width="512px" height="512px" viewBox="0 0 512 512" enable-background="new 0 0 512 512" xml:space="preserve">
<path d="M496.2,352.9l-86-20.9c-7.9,15.7-18.3,30.5-31.4,43.6c-66,66-173,66-238.9,0c-66-66-66-173,0-239
	c56.9-56.9,144.1-64.6,209.4-23.4l-55.6,55.6l215,46.2L462.4,0l-50.9,50.9C311.4-23.6,169.3-15.7,78.3,75.2
	c-99.9,99.9-99.9,261.9,0,361.8c99.9,99.9,261.9,99.9,361.9,0C465,412.2,483.7,383.5,496.2,352.9z"/>
</svg>
