<?xml version="1.0" encoding="UTF-8" standalone="no"?>
<svg width="24px" height="23px" viewBox="0 0 24 23" version="1.1" xmlns="http://www.w3.org/2000/svg" xmlns:xlink="http://www.w3.org/1999/xlink" xmlns:sketch="http://www.bohemiancoding.com/sketch/ns">
    <!-- Generator: Sketch 3.3.1 (12002) - http://www.bohemiancoding.com/sketch -->
    <title>Rectangle 762icon</title>
    <desc>Created with Sketch.</desc>
    <defs></defs>
    <g id="Page-1" stroke="none" stroke-width="1" fill="none" fill-rule="evenodd" sketch:type="MSPage">
        <g id="Comments" sketch:type="MSArtboardGroup" transform="translate(-127.000000, -112.000000)" fill="#9098A3">
            <path d="M135.03691,127.21673 C134.751481,127.21673 134.680382,127.381279 134.87606,127.582162 L138.541894,131.345484 C138.936306,131.750385 138.93611,132.408869 138.545048,132.812539 L137.178058,134.223605 C136.785388,134.628936 136.146334,134.628253 135.753845,134.225319 L127.220993,125.168731 C126.925934,124.86582 126.926737,124.373868 127.220993,124.071767 L135.753845,115.552562 C136.147746,115.148159 136.786997,115.150572 137.178058,115.554242 L138.545048,116.965308 C138.937718,117.370639 138.935695,118.02811 138.542001,118.432302 L134.845044,122.227824 C134.647057,122.431089 134.716735,122.595868 134.998854,122.595868 L137.875146,122.595869 L140.191297,122.613332 C143.602429,122.613332 146.367699,119.879267 146.367699,116.506626 L146.367699,113.193624 C146.367699,112.633769 146.827976,112.175854 147.395756,112.175854 L149.971942,112.175854 C150.538902,112.175854 151,112.631525 151,113.193624 L151,116.506626 C151,122.408747 146.160779,127.193361 140.191297,127.193361 L137.875146,127.224272 L135.03691,127.21673 Z" id="Rectangle-762" sketch:type="MSShapeGroup"></path>
        </g>
    </g>
</svg>