<?xml version="1.0" encoding="utf-8"?>
<!-- Generator: Adobe Illustrator 17.1.0, SVG Export Plug-In . SVG Version: 6.00 Build 0)  -->
<!DOCTYPE svg PUBLIC "-//W3C//DTD SVG 1.1//EN" "http://www.w3.org/Graphics/SVG/1.1/DTD/svg11.dtd">
<svg version="1.1" id="Layer_1" xmlns="http://www.w3.org/2000/svg" xmlns:xlink="http://www.w3.org/1999/xlink" x="0px" y="0px"
	 viewBox="0 0 512 512" enable-background="new 0 0 512 512" xml:space="preserve">
<path d="M502.3,451.6L395.6,345c25.1-35.9,39-79,39-124.1c0-57.9-22.6-112.8-63.6-153.8S275.1,3.5,217.2,3.5S104.4,26.1,63.4,67.1
	c-84.6,84.6-84.6,223,0,307.6c41,41,95.9,63.6,153.8,63.6c48.7,0,94.9-15.9,132.8-45.1l105.6,105.6c6.7,6.7,14.9,9.7,23.6,9.7
	s16.9-3.1,23.6-9.7C515.1,486,515.1,465,502.3,451.6z M110.1,328.1c-59-59-59-154.3,0-213.3c28.7-28.7,66.1-44.1,106.6-44.1
	s77.9,15.9,106.6,44.1c28.7,28.7,44.1,66.1,44.1,106.6s-15.9,78-44.1,106.7c-28.7,28.7-66.1,44.1-106.6,44.1
	C176.7,372.2,138.8,356.3,110.1,328.1z"/>
</svg>
