<?xml version="1.0" encoding="UTF-8" standalone="no"?>
<svg width="512px" height="512px" viewBox="0 0 512 512" version="1.1" xmlns="http://www.w3.org/2000/svg" xmlns:xlink="http://www.w3.org/1999/xlink" xmlns:sketch="http://www.bohemiancoding.com/sketch/ns">
    <!-- Generator: Sketch 3.3 (11970) - http://www.bohemiancoding.com/sketch -->
    <title>settings</title>
    <desc>Created with Sketch.</desc>
    <defs></defs>
    <g id="SVGs" stroke="none" stroke-width="1" fill="none" fill-rule="evenodd" sketch:type="MSPage">
        <g id="settings" sketch:type="MSArtboardGroup" fill="#000000">
            <path d="M465.045455,32.7877226 C465.045455,23.1543808 457.300895,15.5 447.747496,15.5 L435.888867,15.5 C426.261932,15.5 418.590909,23.2399771 418.590909,32.7877226 L418.590909,201.935854 C391.526668,211.494793 372.136364,237.287237 372.136364,267.605263 C372.136364,297.92329 391.526668,323.715733 418.590909,333.274673 L418.590909,479.212277 C418.590909,488.845619 426.335469,496.5 435.888867,496.5 L447.747496,496.5 C457.374431,496.5 465.045455,488.760023 465.045455,479.212277 L465.045455,333.274673 C492.109696,323.715733 511.5,297.92329 511.5,267.605263 C511.5,237.287237 492.109696,211.494793 465.045455,201.935854 L465.045455,32.7877226 Z M279.227273,32.7877226 C279.227273,23.1543808 271.482713,15.5 261.929315,15.5 L250.070685,15.5 C240.443751,15.5 232.772727,23.2399771 232.772727,32.7877226 L232.772727,109.093748 C205.708486,118.652688 186.318182,144.445131 186.318182,174.763158 C186.318182,205.081184 205.708486,230.873628 232.772727,240.432568 L232.772727,479.212277 C232.772727,488.845619 240.517287,496.5 250.070685,496.5 L261.929315,496.5 C271.556249,496.5 279.227273,488.760023 279.227273,479.212277 L279.227273,240.432568 C306.291514,230.873628 325.681818,205.081184 325.681818,174.763158 C325.681818,144.445131 306.291514,118.652688 279.227273,109.093748 L279.227273,32.7877226 Z M93.4090909,32.7877226 C93.4090909,23.1543808 85.6645313,15.5 76.1111328,15.5 L64.2525036,15.5 C54.6255688,15.5 46.9545455,23.2399771 46.9545455,32.7877226 L46.9545455,271.567432 C19.8903044,281.126372 0.5,306.918816 0.5,337.236842 C0.5,367.554869 19.8903044,393.347312 46.9545455,402.906252 L46.9545455,479.212277 C46.9545455,488.845619 54.6991051,496.5 64.2525036,496.5 L76.1111328,496.5 C85.7380675,496.5 93.4090909,488.760023 93.4090909,479.212277 L93.4090909,402.906252 C120.473332,393.347312 139.863636,367.554869 139.863636,337.236842 C139.863636,306.918816 120.473332,281.126372 93.4090909,271.567432 L93.4090909,32.7877226 Z M70.1818182,372.052632 C89.4239209,372.052632 105.022727,356.465072 105.022727,337.236842 C105.022727,318.008613 89.4239209,302.421053 70.1818182,302.421053 C50.9397154,302.421053 35.3409091,318.008613 35.3409091,337.236842 C35.3409091,356.465072 50.9397154,372.052632 70.1818182,372.052632 L70.1818182,372.052632 Z M256,209.578947 C275.242103,209.578947 290.840909,193.991387 290.840909,174.763158 C290.840909,155.534928 275.242103,139.947368 256,139.947368 C236.757897,139.947368 221.159091,155.534928 221.159091,174.763158 C221.159091,193.991387 236.757897,209.578947 256,209.578947 L256,209.578947 Z M441.818182,302.421053 C461.060285,302.421053 476.659091,286.833493 476.659091,267.605263 C476.659091,248.377034 461.060285,232.789474 441.818182,232.789474 C422.576079,232.789474 406.977273,248.377034 406.977273,267.605263 C406.977273,286.833493 422.576079,302.421053 441.818182,302.421053 L441.818182,302.421053 Z" id="Rectangle-5-Copy-5" sketch:type="MSShapeGroup"></path>
        </g>
    </g>
</svg>