<?xml version="1.0" encoding="utf-8"?>
<!-- Generator: Adobe Illustrator 18.1.1, SVG Export Plug-In . SVG Version: 6.00 Build 0)  -->
<svg version="1.1" id="Layer_1" xmlns="http://www.w3.org/2000/svg" xmlns:xlink="http://www.w3.org/1999/xlink" x="0px" y="0px"
	 viewBox="0 0 500 600" enable-background="new 0 0 500 600" xml:space="preserve">
<g>
	<path fill="#010101" d="M488.7,332.2c-10.2-8.8-25.5-7.6-34.3,2.6L424,370.3V167c0-13.4-10.9-24.3-24.3-24.3
		c-13.5,0-24.3,10.8-24.3,24.3v204.6l-33.6-37.2c-9-9.9-24.3-10.8-34.3-1.8c-9.9,9-10.8,24.3-1.8,34.3l76.3,84.6
		c4.6,5.1,11.2,8,18,8c0.1,0,0.2,0,0.3,0c7-0.1,13.6-3.2,18.1-8.5l72.8-84.6C500,356.3,498.9,340.9,488.7,332.2z"/>
	<path fill="#010101" d="M266.2,140.5H29.6c-14.8,0-26.8,11.7-26.8,26.5c0,14.6,11.7,26.5,26.8,26.5h236.6
		c14.8,0,26.8-11.8,26.8-26.5C293,152.4,281.3,140.5,266.2,140.5z"/>
	<path fill="#010101" d="M187.2,273.1H29.6c-14.8,0-26.7,11.8-26.7,26.5c0,14.6,11.9,26.5,26.7,26.5h157.6
		c14.8,0,26.7-11.8,26.7-26.5C213.9,284.9,201.9,273.1,187.2,273.1z"/>
	<path fill="#010101" d="M125.7,405.6H29.6c-14.8,0-26.8,11.8-26.8,26.5c0,14.6,11.7,26.5,26.8,26.5h96.1
		c14.8,0,26.8-11.8,26.8-26.5S140.7,405.6,125.7,405.6z"/>
</g>
</svg>
