<?xml version="1.0" encoding="UTF-8" standalone="no"?>
<svg width="512px" height="512px" viewBox="0 0 512 512" version="1.1" xmlns="http://www.w3.org/2000/svg" xmlns:xlink="http://www.w3.org/1999/xlink" xmlns:sketch="http://www.bohemiancoding.com/sketch/ns">
    <!-- Generator: Sketch 3.2.2 (9983) - http://www.bohemiancoding.com/sketch -->
    <title>surveys</title>
    <desc>Created with Sketch.</desc>
    <defs></defs>
    <g id="Exports" stroke="none" stroke-width="1" fill="none" fill-rule="evenodd" sketch:type="MSPage">
        <g id="surveys" sketch:type="MSArtboardGroup" fill="#000000">
            <path d="M109.303063,221.236152 L160.460407,171.622949 L240.64521,248.145942 L460.850565,34 L512,83.6208641 L240.64521,347.31106 L109.303063,221.236152 Z M234.544401,40.5108131 C113.755443,32.0541696 8.98949599,123.23641 0.543109218,244.172047 C-7.90327756,365.107684 83.1683708,470.000852 203.957329,478.457496 C320.04373,486.584905 422.073144,402.482176 436.717941,287.402072 C438.517086,273.264233 428.528499,260.342984 414.407807,258.541654 C400.287116,256.740325 387.381538,266.741041 385.582393,280.87888 C374.387173,368.851907 296.338103,433.187666 207.553201,426.971682 C115.164585,420.503395 45.5060366,340.273093 51.966478,247.772286 C58.4269194,155.271479 138.559913,85.5283407 230.948529,91.9966272 C251.871144,93.4614557 271.955997,98.7211687 290.501198,107.43877 C303.386536,113.495822 318.736421,107.947718 324.786126,95.0467328 C330.835831,82.1457481 325.294456,66.7772232 312.409118,60.7201717 C288.1286,49.3065512 261.837866,42.4216757 234.544401,40.5108131 Z" id="Imported-Layers-2" sketch:type="MSShapeGroup"></path>
        </g>
    </g>
</svg>