<?xml version="1.0" encoding="utf-8"?>
<!-- Generated by IcoMoon.io -->
<!DOCTYPE svg PUBLIC "-//W3C//DTD SVG 1.1//EN" "http://www.w3.org/Graphics/SVG/1.1/DTD/svg11.dtd">
<svg version="1.1" xmlns="http://www.w3.org/2000/svg" xmlns:xlink="http://www.w3.org/1999/xlink" width="32" height="32" viewBox="0 0 32 32">
<path fill="#444444" d="M25.882 5.552c0.214 0 0.268-0.124 0.121-0.274l-2.753-2.826c-0.296-0.304-0.296-0.799-0.002-1.102l1.026-1.060c0.295-0.304 0.775-0.304 1.069-0.001l6.428 6.599c0.222 0.227 0.221 0.597 0 0.824l-6.428 6.599c-0.296 0.304-0.776 0.302-1.069-0.001l-1.026-1.060c-0.295-0.304-0.293-0.798 0.002-1.102l2.776-2.85c0.149-0.153 0.096-0.276-0.116-0.276l-17.732-0.013c-2.562 0-4.638 2.053-4.638 4.586v0.955c0 0.42-0.346 0.764-0.772 0.764h-1.935c-0.426 0-0.772-0.342-0.772-0.764v-0.955c0-4.432 3.634-8.025 8.117-8.025l1.739-0.023 15.964 0.006zM6.118 26.448c-0.214 0-0.268 0.124-0.121 0.274l2.753 2.826c0.296 0.304 0.296 0.799 0.002 1.102l-1.027 1.060c-0.295 0.304-0.775 0.304-1.069 0.001l-6.428-6.599c-0.222-0.227-0.221-0.597 0-0.824l6.428-6.599c0.296-0.304 0.776-0.302 1.069 0.001l1.027 1.060c0.295 0.304 0.293 0.798-0.002 1.102l-2.776 2.85c-0.149 0.153-0.096 0.276 0.115 0.276l17.732 0.013c2.561 0 4.638-2.053 4.638-4.586v-0.955c0-0.42 0.346-0.764 0.772-0.764h1.935c0.426 0 0.772 0.342 0.772 0.764v0.955c0 4.432-3.634 8.025-8.117 8.025l-1.739 0.023-15.964-0.006z"></path>
</svg>
