<?xml version="1.0" encoding="UTF-8" standalone="no"?>
<svg width="512px" height="512px" viewBox="0 0 512 512" version="1.1" xmlns="http://www.w3.org/2000/svg" xmlns:xlink="http://www.w3.org/1999/xlink" xmlns:sketch="http://www.bohemiancoding.com/sketch/ns">
    <!-- Generator: Sketch 3.2.2 (9983) - http://www.bohemiancoding.com/sketch -->
    <title>tablet</title>
    <desc>Created with Sketch.</desc>
    <defs></defs>
    <g id="Exports" stroke="none" stroke-width="1" fill="none" fill-rule="evenodd" sketch:type="MSPage">
        <g id="tablet" sketch:type="MSArtboardGroup" fill="#000000">
            <path d="M40,24.0080948 C40,10.7487902 50.7460144,0 63.9964873,0 L448.003513,0 C461.256407,0 472,10.7528376 472,24.0080948 L472,487.991905 C472,501.25121 461.253986,512 448.003513,512 L63.9964873,512 C50.7435933,512 40,501.247162 40,487.991905 L40,24.0080948 Z M263.533333,496.941176 C276.014969,496.941176 286.133333,486.828079 286.133333,474.352941 C286.133333,461.877803 276.014969,451.764706 263.533333,451.764706 C251.051698,451.764706 240.933333,461.877803 240.933333,474.352941 C240.933333,486.828079 251.051698,496.941176 263.533333,496.941176 Z M70.1333333,50.122722 C70.1333333,39.0742242 79.0923303,30.1176471 90.1357865,30.1176471 L421.864214,30.1176471 C432.911263,30.1176471 441.866667,39.0778793 441.866667,50.122722 L441.866667,401.641984 C441.866667,412.690482 432.90767,421.647059 421.864214,421.647059 L90.1357865,421.647059 C79.0887366,421.647059 70.1333333,412.686827 70.1333333,401.641984 L70.1333333,50.122722 Z" id="Rectangle-746" sketch:type="MSShapeGroup"></path>
        </g>
    </g>
</svg>