<?xml version="1.0" encoding="UTF-8" standalone="no"?>
<svg width="511px" height="511px" viewBox="0 0 511 511" version="1.1" xmlns="http://www.w3.org/2000/svg" xmlns:xlink="http://www.w3.org/1999/xlink">
    <!-- Generator: Sketch 39.1 (31720) - http://www.bohemiancoding.com/sketch -->
    <title>icon-tag</title>
    <desc>Created with Sketch.</desc>
    <defs></defs>
    <g id="Page-1" stroke="none" stroke-width="1" fill="none" fill-rule="evenodd">
        <path d="M481.188513,240.374993 L241.563727,0 L40.6231875,0 L0,37.9753294 L0,238.534778 L240.594257,480.726086 C280.531721,521.091305 320.942098,521.091305 360.879562,480.726086 L480.928411,360.53859 C520.865875,320.173372 521.102332,280.716312 481.164867,240.351094 L481.188513,240.374993 L481.188513,240.374993 Z M129.246998,126.042723 C112.789642,142.676348 86.0700829,142.676348 69.6127264,126.042723 C53.1080786,109.409099 53.1080786,82.5228524 69.6127264,65.889228 C86.0700829,49.2556035 112.789642,49.2556035 129.246998,65.889228 C145.704355,82.5228524 145.704355,109.409099 129.246998,126.042723 L129.246998,126.042723 Z" id="icon-tag" fill="#000000"></path>
    </g>
</svg>