<?xml version="1.0" encoding="utf-8"?>
<!-- Generator: Adobe Illustrator 17.1.0, SVG Export Plug-In . SVG Version: 6.00 Build 0)  -->
<!DOCTYPE svg PUBLIC "-//W3C//DTD SVG 1.1//EN" "http://www.w3.org/Graphics/SVG/1.1/DTD/svg11.dtd">
<svg version="1.1" id="Layer_1" xmlns="http://www.w3.org/2000/svg" xmlns:xlink="http://www.w3.org/1999/xlink" x="0px" y="0px"
	 viewBox="0 0 512 512" enable-background="new 0 0 512 512" xml:space="preserve">
<g>
	<g>
		<path d="M254.7,286.7h-90.9v-9.2c4.2-0.3,9.2-1.1,14.9-2.3c5.7-1.2,8.6-2.7,8.6-4.5c0-0.6-0.1-1.3-0.2-2.1c-0.1-0.8-0.5-1.8-1-3.2
			l-14.2-34.6h-57.6c-1.3,3.2-2.8,7-4.4,11.3c-1.6,4.3-3,8.2-4.1,11.5c-1.5,4.4-2.4,7.6-2.6,9.5c-0.3,2-0.4,3.3-0.4,4.1
			c0,2.5,1.9,4.6,5.7,6.4c3.8,1.8,10.1,3,19,3.8v9.2H58.9v-9.2c2.6-0.2,5.5-0.6,8.8-1.2c3.3-0.7,5.8-1.6,7.7-2.8
			c3.2-1.9,5.9-4.2,8.2-6.9c2.2-2.7,4.1-6,5.6-9.8c9.1-22,18.2-44.1,27.3-66.2c9.1-22.1,19.2-46.5,30.3-73.1h23.5
			c15.4,37.8,27.4,67.7,36.1,89.6s16.1,40.1,22.2,54.6c1,2.4,2.3,4.5,3.9,6.4c1.6,1.9,3.8,3.7,6.7,5.5c2.2,1.2,4.7,2.2,7.6,2.8
			c2.9,0.6,5.5,1,7.9,1.2V286.7z M167,219.2l-24.1-60.3l-23.8,60.3H167z"/>
	</g>
	<g>
		<rect x="280" y="140" width="171" height="49"/>
	</g>
	<g>
		<rect x="280" y="238" width="171" height="49"/>
	</g>
	<g>
		<rect x="59" y="336" width="392" height="49"/>
	</g>
</g>
</svg>
