<?xml version="1.0" encoding="UTF-8" standalone="no"?>
<svg width="49px" height="49px" viewBox="0 0 49 49" version="1.1" xmlns="http://www.w3.org/2000/svg" xmlns:xlink="http://www.w3.org/1999/xlink" xmlns:sketch="http://www.bohemiancoding.com/sketch/ns">
    <!-- Generator: Sketch 3.3.3 (12072) - http://www.bohemiancoding.com/sketch -->
    <title>Wrench + Rectangle 59 + Rectangle 59 Copy 2</title>
    <desc>Created with Sketch.</desc>
    <defs></defs>
    <g id="Page-1" stroke="none" stroke-width="1" fill="none" fill-rule="evenodd" sketch:type="MSPage">
        <g id="Icons" sketch:type="MSArtboardGroup" transform="translate(-103.000000, -342.000000)" fill="#000000">
            <g id="Wrench-+-Rectangle-59-+-Rectangle-59-Copy-2" sketch:type="MSLayerGroup" transform="translate(101.000000, 342.000000)">
                <path d="M41.1178029,31.8633186 C39.7489128,31.9758134 38.4016046,31.4728273 37.430359,30.5015817 L22.1436655,15.2148271 C20.7899989,13.8610993 20.0705215,12.0035295 20.1430317,10.0905683 C20.2556488,7.11875005 18.9779773,4.13244201 16.4569329,2.21617929 C14.2664642,0.551134492 11.592268,-0.00461410068 9.09366144,0.444142189 C8.14442573,0.614657351 7.86930266,1.84953195 8.64790094,2.41879214 L12.6370631,5.33534119 C13.3146607,5.83080727 13.6007886,6.70741049 13.3357534,7.5038612 C12.7028481,9.35941343 11.5868267,10.8867133 10.0959653,11.9811528 C9.35582316,12.5244903 8.42835273,12.5253463 7.74555842,12.0261507 L3.75627397,9.10960169 C2.97767569,8.5403415 1.88439776,9.17709855 2.00991502,10.133304 C2.34024611,12.6503744 3.68101252,15.0299444 5.93206945,16.6121466 C7.66650639,17.8311252 9.68896662,18.3740347 11.6759665,18.2970614 C13.6056797,18.2224724 15.482447,18.9308838 16.8479745,20.2963501 L32.2418437,35.6902804 C33.2137006,36.6620762 33.715464,38.010485 33.6033972,39.3802921 C33.3899017,41.9881531 34.414032,44.6765334 36.6870376,46.4892276 C39.6441826,48.8473991 43.9399542,48.8442199 46.8928806,46.4807294 C50.7871559,43.3637684 51.0208271,37.6621792 47.5937108,34.2350628 C45.8193504,32.4607025 43.4366624,31.67275 41.1178029,31.8633186 Z M45.7239744,39.448217 L44.8981772,42.5302067 C44.8160683,42.8366326 44.5767724,43.0758674 44.2703464,43.1580375 L41.1884178,43.9837736 C40.882053,44.0658825 40.5551457,43.9782711 40.3308898,43.7540152 L38.0747584,41.4978838 C37.8505025,41.2736279 37.7628911,40.9466595 37.8449389,40.6403558 L38.6707361,37.5584272 C38.752845,37.2520012 38.992141,37.0127664 39.2985669,36.9305964 L42.3804955,36.1047992 C42.6868603,36.0226902 43.0137677,36.1103017 43.2380235,36.3346187 L45.4941549,38.5907501 C45.7184108,38.8150059 45.8060834,39.1419133 45.7239744,39.448217 L45.7239744,39.448217 Z" id="Wrench" sketch:type="MSShapeGroup"></path>
                <path d="M30.3751991,13.2816551 L41.8508888,1.80596545 C43.802601,-0.145746732 46.971662,-0.141036422 48.9203102,1.80761184 C50.8729317,3.7602333 50.8724564,6.9265335 48.9219566,8.87703326 L37.4554116,20.3435783 L37.4554116,20.3435783 C37.1959387,20.1289643 36.86303,20 36.5,20 C35.6715729,20 35,20.6715729 35,21.5 C35,21.86303 35.1289643,22.1959387 35.3435783,22.4554116 L34.0710678,23.7279221 L27,16.6568542 L28.2816551,15.3751991 C28.5539622,15.7536036 28.9982066,16 29.5,16 C30.3284271,16 31,15.3284271 31,14.5 C31,13.9982066 30.7536036,13.5539622 30.3751991,13.2816551 Z" id="Rectangle-59" sketch:type="MSShapeGroup"></path>
                <path d="M8.94832037,46.2562988 C8.86335074,45.9959115 8.90986462,45.5887997 9.04518038,45.358934 L10.3990205,43.0591179 L10.3990205,25.2460895 L14.8091981,25.2460895 L14.809198,43.0591179 L16.2153206,45.358934 C16.3591317,45.5941476 16.4041056,45.9961078 16.3159212,46.2562988 L14.8091981,50.7019336 L10.3990205,50.7019336 L8.94832037,46.2562988 Z" id="Rectangle-59-Copy-2" sketch:type="MSShapeGroup" transform="translate(12.633973, 37.974012) rotate(45.000000) translate(-12.633973, -37.974012) "></path>
            </g>
        </g>
    </g>
</svg>