<?xml version="1.0" encoding="UTF-8" standalone="no"?>
<svg width="45px" height="39px" viewBox="0 0 45 39" version="1.1" xmlns="http://www.w3.org/2000/svg" xmlns:xlink="http://www.w3.org/1999/xlink" xmlns:sketch="http://www.bohemiancoding.com/sketch/ns">
    <!-- Generator: Sketch 3.4.1 (15681) - http://www.bohemiancoding.com/sketch -->
    <title>Aa + Rectangle 458</title>
    <desc>Created with Sketch.</desc>
    <defs></defs>
    <g id="Page-1" stroke="none" stroke-width="1" fill="none" fill-rule="evenodd" sketch:type="MSPage">
        <g id="1-Overview" sketch:type="MSArtboardGroup" transform="translate(-816.000000, -576.000000)" fill="#000000">
            <g id="Rectangle-1-Copy-+-Design-+-18,954-Tutorials-+-Line-+-Aa-+-Rectangle-458" sketch:type="MSLayerGroup" transform="translate(722.000000, 494.000000)">
                <g id="Aa-+-Rectangle-458" transform="translate(94.000000, 82.000000)" sketch:type="MSShapeGroup">
                    <path d="M12.088,0.512 L16.012,0.512 L26.992,26 L21.808,26 L19.432,20.168 L8.38,20.168 L6.076,26 L1,26 L12.088,0.512 Z M17.848,16.28 L13.924,5.912 L9.928,16.28 L17.848,16.28 Z M40.24,23.624 L40.132,23.624 C39.5079969,24.6080049 38.7160048,25.3219978 37.756,25.766 C36.7959952,26.2100022 35.7400058,26.432 34.588,26.432 C33.795996,26.432 33.0220038,26.3240011 32.266,26.108 C31.5099962,25.8919989 30.8380029,25.5680022 30.25,25.136 C29.6619971,24.7039978 29.1880018,24.1640032 28.828,23.516 C28.4679982,22.8679968 28.288,22.1120043 28.288,21.248 C28.288,20.3119953 28.4559983,19.5140033 28.792,18.854 C29.1280017,18.1939967 29.5779972,17.6420022 30.142,17.198 C30.7060028,16.7539978 31.3599963,16.4000013 32.104,16.136 C32.8480037,15.8719987 33.621996,15.6740007 34.426,15.542 C35.230004,15.4099993 36.0399959,15.3260002 36.856,15.29 C37.6720041,15.2539998 38.4399964,15.236 39.16,15.236 L40.24,15.236 L40.24,14.768 C40.24,13.6879946 39.8680037,12.8780027 39.124,12.338 C38.3799963,11.7979973 37.4320058,11.528 36.28,11.528 C35.3679954,11.528 34.516004,11.6899984 33.724,12.014 C32.931996,12.3380016 32.2480029,12.7759972 31.672,13.328 L29.404,11.06 C30.3640048,10.0759951 31.4859936,9.36800216 32.77,8.936 C34.0540064,8.50399784 35.3799932,8.288 36.748,8.288 C37.9720061,8.288 39.0039958,8.42599862 39.844,8.702 C40.6840042,8.97800138 41.3799972,9.33199784 41.932,9.764 C42.4840028,10.1960022 42.9099985,10.6939972 43.21,11.258 C43.5100015,11.8220028 43.7259993,12.3919971 43.858,12.968 C43.9900007,13.5440029 44.0679999,14.1019973 44.092,14.642 C44.1160001,15.1820027 44.128,15.655998 44.128,16.064 L44.128,26 L40.24,26 L40.24,23.624 Z M39.988,18.26 L39.088,18.26 C38.487997,18.26 37.8160037,18.2839998 37.072,18.332 C36.3279963,18.3800002 35.6260033,18.4939991 34.966,18.674 C34.3059967,18.8540009 33.7480023,19.1179983 33.292,19.466 C32.8359977,19.8140017 32.608,20.2999969 32.608,20.924 C32.608,21.332002 32.6979991,21.6739986 32.878,21.95 C33.0580009,22.2260014 33.2919986,22.459999 33.58,22.652 C33.8680014,22.844001 34.1919982,22.9819996 34.552,23.066 C34.9120018,23.1500004 35.2719982,23.192 35.632,23.192 C37.1200074,23.192 38.2179965,22.8380035 38.926,22.13 C39.6340035,21.4219965 39.988,20.4560061 39.988,19.232 L39.988,18.26 Z" id="Aa"></path>
                    <rect id="Rectangle-458" x="0" y="30" width="45" height="9" rx="2"></rect>
                </g>
            </g>
        </g>
    </g>
</svg>