<?xml version="1.0" encoding="UTF-8" standalone="no"?>
<svg width="23px" height="24px" viewBox="0 0 23 24" version="1.1" xmlns="http://www.w3.org/2000/svg" xmlns:xlink="http://www.w3.org/1999/xlink" xmlns:sketch="http://www.bohemiancoding.com/sketch/ns">
    <!-- Generator: Sketch 3.3.2 (12043) - http://www.bohemiancoding.com/sketch -->
    <title>icon-unlock</title>
    <desc>Created with Sketch.</desc>
    <defs></defs>
    <g id="Page-1" stroke="none" stroke-width="1" fill="none" fill-rule="evenodd" sketch:type="MSPage">
        <path d="M21.3571429,9.77436503 L13.1428571,9.77436503 L13.1428571,6.51624335 C13.1428571,2.91789722 10.2002486,0 6.57142857,0 C2.94260852,0 0,2.91789722 0,6.51624335 L0,9.77436503 L3.28571429,9.77436503 L3.28571429,6.51624335 C3.28571429,4.88718252 4.92857143,3.25812168 6.57142857,3.25812168 C8.21428571,3.25812168 9.85714286,4.88718252 9.85714286,6.51624335 L9.85714286,9.77436503 L8.21428571,9.77436503 C7.30648503,9.77436503 6.57142857,10.5032487 6.57142857,11.4034259 L6.57142857,22.3709392 C6.57142857,23.2711164 7.30648503,24 8.21428571,24 L21.3571429,24 C22.2649435,24 23,23.2711164 23,22.3709392 L23,11.4034259 C23,10.5032487 22.2649435,9.77436503 21.3571429,9.77436503" id="icon-unlock" fill="#374A59" sketch:type="MSShapeGroup"></path>
    </g>
</svg>