<?xml version="1.0" encoding="UTF-8" standalone="no"?>
<svg width="512px" height="512px" viewBox="0 0 512 512" version="1.1" xmlns="http://www.w3.org/2000/svg" xmlns:xlink="http://www.w3.org/1999/xlink" xmlns:sketch="http://www.bohemiancoding.com/sketch/ns">
    <!-- Generator: Sketch 3.3.2 (12043) - http://www.bohemiancoding.com/sketch -->
    <title>upload</title>
    <desc>Created with Sketch.</desc>
    <defs></defs>
    <g id="Exports" stroke="none" stroke-width="1" fill="none" fill-rule="evenodd" sketch:type="MSPage">
        <g id="upload" sketch:type="MSArtboardGroup" fill="#000000">
            <path d="M418.340793,230.485906 C418.340793,229.108725 418.557932,227.804027 418.557932,226.426846 C418.557932,153.436242 359.568555,94.3624161 286.827054,94.3624161 C234.351841,94.3624161 189.331728,125.095302 168.124504,169.455034 C168.124504,169.527517 167.979745,169.527517 167.907365,169.527517 C158.715156,164.961074 148.364873,162.279195 137.507932,162.279195 C103.923796,162.279195 75.9852691,186.851007 70.5567989,218.888591 C70.5567989,218.961074 70.4844193,218.961074 70.4844193,218.961074 C30.1689802,232.805369 1.43427762,270.85906 1.43427762,315.653691 C1.43427762,372.045638 47.1058074,417.855034 103.344759,417.855034 L215.316006,417.855034 C217.921671,417.855034 220.093059,415.75302 220.093059,413.071141 L220.093059,332.759732 C220.093059,330.150336 217.994051,327.975839 215.316006,327.975839 L175.796742,327.975839 C173.118697,327.975839 171.671105,324.786577 173.480595,322.757047 L254.183853,232.877852 C255.414306,231.500671 257.585694,231.500671 258.816147,232.877852 L339.519405,322.684564 C341.328895,324.714094 339.881303,327.903356 337.203258,327.903356 L297.683994,327.903356 C295.078329,327.903356 292.906941,330.005369 292.906941,332.687248 L292.906941,412.998658 C292.906941,415.608054 295.005949,417.78255 297.683994,417.78255 L415.879887,417.78255 C466.835127,417.78255 510.045751,377.844295 511.493343,326.888591 C513.085694,274.048322 470.671246,230.630872 418.340793,230.485906 L418.340793,230.485906 L418.340793,230.485906 Z" id="Shape_1_" sketch:type="MSShapeGroup"></path>
        </g>
    </g>
</svg>