<?xml version="1.0" encoding="UTF-8" standalone="no"?>
<svg width="22px" height="25px" viewBox="0 0 22 25" version="1.1" xmlns="http://www.w3.org/2000/svg" xmlns:xlink="http://www.w3.org/1999/xlink" xmlns:sketch="http://www.bohemiancoding.com/sketch/ns">
    <!-- Generator: Sketch 3.3.1 (12002) - http://www.bohemiancoding.com/sketch -->
    <title>Rectangle 762 Copy 2icons</title>
    <desc>Created with Sketch.</desc>
    <defs></defs>
    <g id="Page-1" stroke="none" stroke-width="1" fill="none" fill-rule="evenodd" sketch:type="MSPage">
        <g id="Comments" sketch:type="MSArtboardGroup" transform="translate(-88.000000, -112.000000)" fill="#9098A3">
            <path d="M95.725276,126.77198 C95.4069401,126.77198 95.3276442,126.955501 95.5458822,127.179542 L99.6343432,131.376732 C100.074227,131.828313 100.074008,132.562712 99.6378613,133.012921 L98.1132736,134.586666 C97.6753331,135.038727 96.9626031,135.037966 96.5248654,134.588578 L86.9962823,124.798489 C86.6672069,124.460656 86.6681022,123.911989 86.9962823,123.575059 L96.5248654,113.763071 C96.9641786,113.312045 97.6771273,113.314736 98.1132736,113.764945 L99.6378613,115.338689 C100.075802,115.79075 100.073545,116.524021 99.6344624,116.97481 L95.5112896,121.207912 C95.2904775,121.434611 95.3681887,121.618387 95.6828329,121.618387 L98.8907273,121.618388 L109.75911,121.636237 C110.306259,121.637136 110.749811,122.09117 110.749811,122.647051 L110.749811,125.73673 C110.749811,126.294089 110.301045,126.746775 109.746349,126.747834 L108.173459,126.750838 C105.079197,126.750838 98.8907273,126.780392 98.8907273,126.780392 L95.725276,126.77198 Z" id="Rectangle-762-Copy-2" sketch:type="MSShapeGroup" transform="translate(98.749811, 124.175854) rotate(-270.000000) translate(-98.749811, -124.175854) "></path>
        </g>
    </g>
</svg>