<?xml version="1.0" encoding="utf-8"?>
<!-- Generated by IcoMoon.io -->
<!DOCTYPE svg PUBLIC "-//W3C//DTD SVG 1.1//EN" "http://www.w3.org/Graphics/SVG/1.1/DTD/svg11.dtd">
<svg version="1.1" xmlns="http://www.w3.org/2000/svg" xmlns:xlink="http://www.w3.org/1999/xlink" width="32" height="32" viewBox="0 0 32 32">
<path fill="#444444" d="M6.584 22.83c-4.344-0.278-6.263-1.397-6.263-1.397s-0.463-3.598 0-4.347c0.516-0.838 2.251-1.359 3.967-2.103 1.716-0.745 2.124-1.003 2.124-1.003l0.017-1.714c0 0-0.644-0.514-0.843-2.126-0.403 0.121-0.824-0.624-0.848-1.018-0.022-0.378 0.055-1.428 0.546-1.322-0.099-0.791-0.172-1.502-0.137-1.878 0.127-1.376 1.43-2.828 3.434-2.828 2.002 0 3.305 1.452 3.434 2.828 0.035 0.376-0.038 1.087-0.138 1.878 0.491-0.106 0.569 0.944 0.546 1.322-0.022 0.393-0.444 1.138-0.847 1.018-0.2 1.612-0.843 2.126-0.843 2.126l0.015 1.714c0 0 0.408 0.258 2.124 1.003 0.722 0.313 1.448 0.586 2.084 0.861-0.1 0.225-0.478 0.421-1.37 0.808-0.048 0.021-0.048 0.021-0.098 0.042-0.467 0.201-2.268 0.927-2.672 1.101-1.867 0.8-2.932 1.461-3.626 2.588-0.397 0.642-0.565 1.408-0.606 2.447v0zM26.125 18.701c-2.33-1.011-2.884-1.361-2.884-1.361l-0.021-2.327c0 0 0.873-0.698 1.145-2.886 0.546 0.164 1.119-0.848 1.149-1.381 0.032-0.514-0.075-1.939-0.741-1.795 0.137-1.074 0.236-2.039 0.188-2.549-0.174-1.868-1.943-3.84-4.662-3.84-2.72 0-4.489 1.971-4.662 3.84-0.048 0.51 0.051 1.475 0.186 2.549-0.666-0.144-0.771 1.281-0.741 1.795 0.031 0.534 0.603 1.545 1.151 1.381 0.27 2.188 1.145 2.886 1.145 2.886l-0.023 2.327c0 0-0.554 0.35-2.884 1.361-2.33 1.010-4.686 1.717-5.386 2.855-0.629 1.018 0 5.902 0 5.902s3.396 1.981 11.213 1.981c7.817 0 11.484-1.981 11.484-1.981s0.357-4.884-0.27-5.902c-0.702-1.138-3.056-1.845-5.388-2.855v0z"></path>
</svg>
