<?xml version="1.0" encoding="utf-8"?>
<!-- Generated by IcoMoon.io -->
<!DOCTYPE svg PUBLIC "-//W3C//DTD SVG 1.1//EN" "http://www.w3.org/Graphics/SVG/1.1/DTD/svg11.dtd">
<svg version="1.1" xmlns="http://www.w3.org/2000/svg" xmlns:xlink="http://www.w3.org/1999/xlink" width="32" height="32" viewBox="0 0 32 32">
<path fill="#444444" d="M22.789 19.134c-2.737-1.174-3.387-1.579-3.387-1.579l-0.025-2.7c0 0 1.026-0.81 1.345-3.349 0.641 0.19 1.315-0.983 1.35-1.603 0.037-0.596-0.088-2.249-0.871-2.083 0.16-1.246 0.277-2.365 0.22-2.958-0.204-2.168-2.282-4.456-5.475-4.456-3.195 0-5.273 2.288-5.475 4.456-0.056 0.592 0.060 1.712 0.219 2.958-0.782-0.167-0.906 1.487-0.871 2.083 0.037 0.619 0.708 1.793 1.352 1.603 0.317 2.539 1.345 3.349 1.345 3.349l-0.026 2.7c0 0-0.65 0.406-3.387 1.579-2.737 1.172-5.503 1.992-6.326 3.313-0.738 1.181 0 6.848 0 6.848s3.989 2.299 13.171 2.299c9.182 0 13.488-2.299 13.488-2.299s0.419-5.667-0.318-6.848c-0.825-1.32-3.59-2.141-6.328-3.313z"></path>
</svg>
