<?xml version="1.0" encoding="utf-8"?>
<!-- Generator: Adobe Illustrator 17.1.0, SVG Export Plug-In . SVG Version: 6.00 Build 0)  -->
<!DOCTYPE svg PUBLIC "-//W3C//DTD SVG 1.1//EN" "http://www.w3.org/Graphics/SVG/1.1/DTD/svg11.dtd">
<svg version="1.1" id="Layer_1" xmlns="http://www.w3.org/2000/svg" xmlns:xlink="http://www.w3.org/1999/xlink" x="0px" y="0px"
	 width="512px" height="512px" viewBox="0 0 512 512" enable-background="new 0 0 512 512" xml:space="preserve">
<g id="Your_Icon_3_">
	<path d="M420,153.4H89.2c-11.6,0-18.1,9.4-18.1,21v235.6c0,11.6,9.4,20.9,21,20.9H420c11.6,0,20.9-9.4,20.9-20.9V174.4
		C440.9,162.8,431.5,153.4,420,153.4z M189.7,360.5v-138l131,69L189.7,360.5z"/>
	<polygon points="313.1,128.1 360.4,128.1 400,81.1 352.7,81.1 	"/>
	<polygon points="71.1,128.1 77.4,128.1 117,81.1 71.1,81.1 	"/>
	<polygon points="164.1,81.1 164.1,81.1 124.5,128.1 124.5,128.1 171.7,128.1 171.7,128.1 211.4,81.1 211.4,81.1 	"/>
	<polygon points="218.8,128.1 266,128.1 305.6,81.1 258.4,81.1 	"/>
	<polygon points="440.9,88.3 407.4,128.1 440.9,128.1 	"/>
</g>
</svg>
