<?xml version="1.0" encoding="UTF-8" standalone="no"?>
<svg width="96px" height="121px" viewBox="0 0 96 121" version="1.1" xmlns="http://www.w3.org/2000/svg" xmlns:xlink="http://www.w3.org/1999/xlink">
    <!-- Generator: Sketch 39.1 (31720) - http://www.bohemiancoding.com/sketch -->
    <title>Slice 1</title>
    <desc>Created with Sketch.</desc>
    <defs></defs>
    <g id="Page-1" stroke="none" stroke-width="1" fill="none" fill-rule="evenodd">
        <g id="ICON-1" fill="#000000">
            <g id="Group">
                <path d="M47.8,71 C60.4,71 70.6,60.8 70.6,48.2 C70.6,35.6 60.4,25.4 47.8,25.4 C42.9,25.4 38.3,27 34.6,29.6 C36.4,30.2 37.6,31.8 37.6,33.7 C37.6,36.1 35.7,38 33.3,38 C31.4,38 29.7,36.7 29.2,35 C26.5,38.7 25,43.3 25,48.2 C25,60.8 35.2,71 47.8,71 L47.8,71 Z M47.8,36.5 C54.2,36.5 59.5,41.7 59.5,48.2 C59.5,54.6 54.3,59.9 47.8,59.9 C41.3,59.9 36.1,54.7 36.1,48.2 C36.2,41.7 41.4,36.5 47.8,36.5 L47.8,36.5 Z" id="Shape"></path>
                <path d="M78.2,91.3 L77.3,91.3 C68.9,97 58.8,100.3 47.9,100.3 C37,100.3 26.9,97 18.5,91.3 L17.6,91.3 C11,91.3 5.6,96.7 5.6,103.3 L5.6,108.6 C5.6,115.2 11,120.6 17.6,120.6 L78.3,120.6 C84.9,120.6 90.3,115.2 90.3,108.6 L90.3,103.3 C90.2,96.7 84.8,91.3 78.2,91.3 L78.2,91.3 Z" id="Shape"></path>
                <path d="M48,96.3 C74.5,96.3 96,74.8 96,48.3 C96,21.8 74.5,0.3 48,0.3 C21.5,0.3 0,21.8 0,48.3 C0,74.8 21.5,96.3 48,96.3 L48,96.3 Z M47.9,20.8 C63.1,20.8 75.3,33.1 75.3,48.2 C75.3,63.3 63,75.6 47.9,75.6 C32.8,75.6 20.5,63.3 20.5,48.2 C20.5,33.1 32.8,20.8 47.9,20.8 L47.9,20.8 Z" id="Shape"></path>
            </g>
        </g>
    </g>
</svg>