<?xml version="1.0" encoding="utf-8"?>
<!-- Generator: Adobe Illustrator 18.0.0, SVG Export Plug-In . SVG Version: 6.00 Build 0)  -->
<!DOCTYPE svg PUBLIC "-//W3C//DTD SVG 1.1//EN" "http://www.w3.org/Graphics/SVG/1.1/DTD/svg11.dtd">
<svg version="1.1" id="Layer_1" xmlns="http://www.w3.org/2000/svg" xmlns:xlink="http://www.w3.org/1999/xlink" x="0px" y="0px"
	 viewBox="0 0 512 512" enable-background="new 0 0 512 512" xml:space="preserve">
<path d="M339,0H48v512h416V125.2L339,0z M415,462H97V50h211v106h107V462z"/>
<polygon points="235.5,92 171.5,92 171.5,70.6 235.5,70.6 235.5,92 "/>
<polygon points="235.5,113.3 171.5,113.3 171.5,134.6 235.5,134.6 235.5,113.3 "/>
<polygon points="235.5,156 171.5,156 171.5,177.3 235.5,177.3 235.5,156 "/>
<polygon points="235.5,198.6 171.5,198.6 171.5,220 235.5,220 235.5,198.6 "/>
<path d="M255.2,337.1L235.5,241h-64l-19.8,96.1c-8.4,33.7,17.1,53.3,51.7,53.3C238.2,390.5,263.6,370.8,255.2,337.1z M171.5,349.3
	c0-28,63.9-28.7,63.9-0.1C235.4,376.5,171.5,376.3,171.5,349.3z"/>
</svg>
